InriaSans-LightItalic.ufo
<glyph name="exclam" format="1">
  <advance width="280"/>
  <unicode hex="0021"/>
  <outline>
    <contour>
      <point x="152" y="172" type="line"/>
      <point x="199" y="410" type="line"/>
      <point x="247" y="680" type="line"/>
      <point x="187" y="680" type="line"/>
      <point x="139" y="410" type="line"/>
      <point x="102" y="172" type="line"/>
    </contour>
    <contour>
      <point x="133" y="0" type="line"/>
      <point x="146" y="73" type="line"/>
      <point x="74" y="73" type="line"/>
      <point x="61" y="0" type="line"/>
    </contour>
  </outline>
</glyph>
<glyph name="quotedbl" format="1">
  <advance width="332"/>
  <unicode hex="0022"/>
  <outline>
    <contour>
      <point x="151" y="458" type="line"/>
      <point x="186" y="614" type="line"/>
      <point x="198" y="680" type="line"/>
      <point x="136" y="680" type="line"/>
      <point x="124" y="614" type="line"/>
      <point x="105" y="458" type="line"/>
    </contour>
    <contour>
      <point x="303" y="458" type="line"/>
      <point x="338" y="614" type="line"/>
      <point x="350" y="680" type="line"/>
      <point x="288" y="680" type="line"/>
      <point x="276" y="614" type="line"/>
      <point x="257" y="458" type="line"/>
    </contour>
  </outline>
</glyph>
<glyph name="numbersign" format="1">
  <advance width="628"/>
  <unicode hex="0023"/>
  <outline>
    <contour>
      <point x="258" y="0" type="line"/>
      <point x="318" y="0" type="line"/>
      <point x="416" y="202" type="line"/>
      <point x="534" y="202" type="line"/>
      <point x="543" y="254" type="line"/>
      <point x="441" y="254" type="line"/>
      <point x="525" y="426" type="line"/>
      <point x="643" y="426" type="line"/>
      <point x="652" y="478" type="line"/>
      <point x="550" y="478" type="line"/>
      <point x="648" y="680" type="line"/>
      <point x="588" y="680" type="line"/>
      <point x="490" y="478" type="line"/>
      <point x="306" y="478" type="line"/>
      <point x="404" y="680" type="line"/>
      <point x="344" y="680" type="line"/>
      <point x="246" y="478" type="line"/>
      <point x="128" y="478" type="line"/>
      <point x="119" y="426" type="line"/>
      <point x="221" y="426" type="line"/>
      <point x="137" y="254" type="line"/>
      <point x="19" y="254" type="line"/>
      <point x="10" y="202" type="line"/>
      <point x="112" y="202" type="line"/>
      <point x="14" y="0" type="line"/>
      <point x="74" y="0" type="line"/>
      <point x="172" y="202" type="line"/>
      <point x="356" y="202" type="line"/>
    </contour>
    <contour>
      <point x="197" y="254" type="line"/>
      <point x="281" y="426" type="line"/>
      <point x="465" y="426" type="line"/>
      <point x="381" y="254" type="line"/>
    </contour>
  </outline>
</glyph>
<glyph name="dollar" format="1">
  <advance width="498.54969265321625"/>
  <unicode hex="0024"/>
  <outline>
    <contour>
      <point x="440" y="187" type="curve" smooth="yes"/>
      <point x="440" y="273"/>
      <point x="394" y="325"/>
      <point x="316" y="359" type="curve" smooth="yes"/>
      <point x="245" y="390" type="line" smooth="yes"/>
      <point x="181" y="418"/>
      <point x="157" y="452"/>
      <point x="157" y="503" type="curve" smooth="yes"/>
      <point x="157" y="580"/>
      <point x="208" y="633"/>
      <point x="307" y="633" type="curve" smooth="yes"/>
      <point x="360" y="633"/>
      <point x="411" y="620"/>
      <point x="469" y="590" type="curve"/>
      <point x="491" y="647" type="line"/>
      <point x="451" y="668"/>
      <point x="408" y="680"/>
      <point x="365" y="686" type="curve"/>
      <point x="386" y="805" type="line"/>
      <point x="326" y="805" type="line"/>
      <point x="305" y="690" type="line"/>
      <point x="151" y="690"/>
      <point x="90" y="601"/>
      <point x="90" y="501" type="curve" smooth="yes"/>
      <point x="90" y="424"/>
      <point x="125" y="372"/>
      <point x="210" y="335" type="curve" smooth="yes"/>
      <point x="281" y="304" type="line" smooth="yes"/>
      <point x="343" y="277"/>
      <point x="372" y="239"/>
      <point x="372" y="182" type="curve" smooth="yes"/>
      <point x="372" y="98"/>
      <point x="312" y="47"/>
      <point x="207" y="47" type="curve" smooth="yes"/>
      <point x="152" y="47"/>
      <point x="95" y="61"/>
      <point x="30" y="93" type="curve"/>
      <point x="8" y="36" type="line"/>
      <point x="65" y="8"/>
      <point x="125" y="-6"/>
      <point x="182" y="-9" type="curve"/>
      <point x="162" y="-125" type="line"/>
      <point x="222" y="-125" type="line"/>
      <point x="242" y="-9" type="line"/>
      <point x="386" y="4"/>
      <point x="440" y="94"/>
    </contour>
  </outline>
</glyph>
<glyph name="percent" format="1">
  <advance width="779"/>
  <unicode hex="0025"/>
  <outline>
    <contour>
      <point x="355" y="500" type="curve" smooth="yes"/>
      <point x="361" y="537" type="line" smooth="yes"/>
      <point x="374" y="618"/>
      <point x="335" y="685"/>
      <point x="243" y="685" type="curve" smooth="yes"/>
      <point x="162" y="685"/>
      <point x="114" y="645"/>
      <point x="100" y="560" type="curve" smooth="yes"/>
      <point x="94" y="523" type="line" smooth="yes"/>
      <point x="81" y="442"/>
      <point x="120" y="375"/>
      <point x="212" y="375" type="curve" smooth="yes"/>
      <point x="293" y="375"/>
      <point x="341" y="415"/>
    </contour>
    <contour>
      <point x="614" y="680" type="line"/>
      <point x="137" y="0" type="line"/>
      <point x="199" y="0" type="line"/>
      <point x="676" y="680" type="line"/>
    </contour>
    <contour>
      <point x="301" y="502" type="line" smooth="yes"/>
      <point x="294" y="451"/>
      <point x="263" y="425"/>
      <point x="213" y="425" type="curve" smooth="yes"/>
      <point x="161" y="425"/>
      <point x="140" y="462"/>
      <point x="149" y="523" type="curve" smooth="yes"/>
      <point x="154" y="558" type="line" smooth="yes"/>
      <point x="161" y="609"/>
      <point x="192" y="635"/>
      <point x="242" y="635" type="curve" smooth="yes"/>
      <point x="294" y="635"/>
      <point x="315" y="598"/>
      <point x="306" y="537" type="curve" smooth="yes"/>
    </contour>
    <contour>
      <point x="713" y="120" type="curve" smooth="yes"/>
      <point x="719" y="157" type="line" smooth="yes"/>
      <point x="732" y="238"/>
      <point x="693" y="305"/>
      <point x="601" y="305" type="curve" smooth="yes"/>
      <point x="520" y="305"/>
      <point x="472" y="265"/>
      <point x="458" y="180" type="curve" smooth="yes"/>
      <point x="452" y="143" type="line" smooth="yes"/>
      <point x="439" y="62"/>
      <point x="478" y="-5"/>
      <point x="570" y="-5" type="curve" smooth="yes"/>
      <point x="651" y="-5"/>
      <point x="699" y="35"/>
    </contour>
    <contour>
      <point x="659" y="122" type="line" smooth="yes"/>
      <point x="652" y="71"/>
      <point x="621" y="45"/>
      <point x="571" y="45" type="curve" smooth="yes"/>
      <point x="519" y="45"/>
      <point x="498" y="82"/>
      <point x="507" y="143" type="curve" smooth="yes"/>
      <point x="512" y="178" type="line" smooth="yes"/>
      <point x="519" y="229"/>
      <point x="550" y="255"/>
      <point x="600" y="255" type="curve" smooth="yes"/>
      <point x="652" y="255"/>
      <point x="673" y="218"/>
      <point x="664" y="157" type="curve" smooth="yes"/>
    </contour>
  </outline>
</glyph>
<glyph name="ampersand" format="1">
  <advance width="573.761458465824"/>
  <unicode hex="0026"/>
  <outline>
    <contour>
      <point x="455" y="188" type="curve" smooth="yes"/>
      <point x="455" y="240"/>
      <point x="434" y="290"/>
      <point x="396" y="333" type="curve"/>
      <point x="403" y="334" type="line" smooth="yes"/>
      <point x="487" y="353"/>
      <point x="536" y="367"/>
      <point x="587" y="391" type="curve"/>
      <point x="568" y="446" type="line"/>
      <point x="521" y="422"/>
      <point x="467" y="403"/>
      <point x="360" y="380" type="curve" smooth="yes"/>
      <point x="270" y="360" type="line"/>
      <point x="193" y="425"/>
      <point x="173" y="478"/>
      <point x="173" y="528" type="curve" smooth="yes"/>
      <point x="173" y="610"/>
      <point x="229" y="637"/>
      <point x="294" y="637" type="curve" smooth="yes"/>
      <point x="384" y="637"/>
      <point x="426" y="582"/>
      <point x="396" y="478" type="curve"/>
      <point x="456" y="493" type="line"/>
      <point x="491" y="598"/>
      <point x="430" y="690"/>
      <point x="295" y="690" type="curve" smooth="yes"/>
      <point x="186" y="690"/>
      <point x="111" y="632"/>
      <point x="111" y="527" type="curve" smooth="yes"/>
      <point x="111" y="453"/>
      <point x="150" y="394"/>
      <point x="212" y="346" type="curve"/>
      <point x="82" y="310"/>
      <point x="17" y="253"/>
      <point x="17" y="153" type="curve" smooth="yes"/>
      <point x="17" y="44"/>
      <point x="97" y="-10"/>
      <point x="217" y="-10" type="curve" smooth="yes"/>
      <point x="354" y="-10"/>
      <point x="455" y="62"/>
    </contour>
    <contour>
      <point x="80" y="155" type="curve" smooth="yes"/>
      <point x="80" y="234"/>
      <point x="132" y="274"/>
      <point x="272" y="305" type="curve" smooth="yes"/>
      <point x="342" y="320" type="line"/>
      <point x="376" y="280"/>
      <point x="392" y="235"/>
      <point x="392" y="190" type="curve" smooth="yes"/>
      <point x="392" y="97"/>
      <point x="322" y="45"/>
      <point x="218" y="45" type="curve" smooth="yes"/>
      <point x="136" y="45"/>
      <point x="80" y="78"/>
    </contour>
  </outline>
</glyph>
<glyph name="quotesingle" format="1">
  <advance width="180"/>
  <unicode hex="0027"/>
  <outline>
    <contour>
      <point x="151" y="458" type="line"/>
      <point x="186" y="614" type="line"/>
      <point x="198" y="680" type="line"/>
      <point x="136" y="680" type="line"/>
      <point x="124" y="614" type="line"/>
      <point x="105" y="458" type="line"/>
    </contour>
  </outline>
</glyph>
<glyph name="parenleft" format="1">
  <advance width="304"/>
  <unicode hex="0028"/>
  <outline>
    <contour>
      <point x="131" y="200" type="curve" smooth="yes"/>
      <point x="131" y="225" type="line" smooth="yes"/>
      <point x="131" y="410"/>
      <point x="224" y="572"/>
      <point x="382" y="703" type="curve"/>
      <point x="350" y="750" type="line"/>
      <point x="155" y="600"/>
      <point x="71" y="393"/>
      <point x="71" y="223" type="curve" smooth="yes"/>
      <point x="71" y="199" type="line" smooth="yes"/>
      <point x="71" y="81"/>
      <point x="112" y="-52"/>
      <point x="192" y="-153" type="curve"/>
      <point x="237" y="-116" type="line"/>
      <point x="168" y="-23"/>
      <point x="131" y="94"/>
    </contour>
  </outline>
</glyph>
<glyph name="parenright" format="1">
  <advance width="303.2994335921959"/>
  <unicode hex="0029"/>
  <outline>
    <contour>
      <point x="191" y="372" type="line" smooth="yes"/>
      <point x="191" y="187"/>
      <point x="98" y="25"/>
      <point x="-60" y="-106" type="curve"/>
      <point x="-28" y="-153" type="line"/>
      <point x="167" y="-3"/>
      <point x="251" y="204"/>
      <point x="251" y="374" type="curve" smooth="yes"/>
      <point x="251" y="398" type="line" smooth="yes"/>
      <point x="251" y="516"/>
      <point x="210" y="649"/>
      <point x="130" y="750" type="curve"/>
      <point x="85" y="713" type="line"/>
      <point x="154" y="620"/>
      <point x="191" y="503"/>
      <point x="191" y="397" type="curve" smooth="yes"/>
    </contour>
  </outline>
</glyph>
<glyph name="asterisk" format="1">
  <advance width="402"/>
  <unicode hex="002A"/>
  <outline>
    <contour>
      <point x="354" y="337" type="line"/>
      <point x="345" y="355" type="line"/>
      <point x="267" y="480" type="line"/>
      <point x="415" y="485" type="line"/>
      <point x="435" y="489" type="line"/>
      <point x="427" y="548" type="line"/>
      <point x="407" y="545" type="line"/>
      <point x="263" y="511" type="line"/>
      <point x="303" y="652" type="line"/>
      <point x="307" y="672" type="line"/>
      <point x="248" y="682" type="line"/>
      <point x="244" y="663" type="line"/>
      <point x="233" y="516" type="line"/>
      <point x="110" y="597" type="line"/>
      <point x="92" y="607" type="line"/>
      <point x="65" y="554" type="line"/>
      <point x="82" y="544" type="line"/>
      <point x="219" y="488" type="line"/>
      <point x="103" y="397" type="line"/>
      <point x="88" y="384" type="line"/>
      <point x="130" y="340" type="line"/>
      <point x="145" y="353" type="line"/>
      <point x="239" y="466" type="line"/>
      <point x="291" y="328" type="line"/>
      <point x="300" y="310" type="line"/>
    </contour>
  </outline>
</glyph>
<glyph name="plus" format="1">
  <advance width="588"/>
  <unicode hex="002B"/>
  <outline>
    <contour>
      <point x="505" y="268" type="line"/>
      <point x="515" y="321" type="line"/>
      <point x="336" y="321" type="line"/>
      <point x="368" y="506" type="line"/>
      <point x="312" y="506" type="line"/>
      <point x="280" y="321" type="line"/>
      <point x="101" y="321" type="line"/>
      <point x="91" y="268" type="line"/>
      <point x="270" y="268" type="line"/>
      <point x="238" y="83" type="line"/>
      <point x="294" y="83" type="line"/>
      <point x="326" y="268" type="line"/>
    </contour>
  </outline>
</glyph>
<glyph name="comma" format="1">
  <advance width="180"/>
  <unicode hex="002C"/>
  <outline>
    <contour>
      <point x="91" y="73" type="line"/>
      <point x="29" y="73" type="line"/>
      <point x="10" y="-32"/>
      <point x="-11" y="-85"/>
      <point x="-72" y="-173" type="curve"/>
      <point x="-34" y="-199" type="line"/>
      <point x="33" y="-120"/>
      <point x="72" y="-50"/>
      <point x="88" y="54" type="curve" smooth="yes"/>
    </contour>
  </outline>
</glyph>
<glyph name="hyphen" format="1">
  <advance width="384"/>
  <unicode hex="002D"/>
  <outline>
    <contour>
      <point x="64" y="269" type="line"/>
      <point x="328" y="269" type="line"/>
      <point x="338" y="322" type="line"/>
      <point x="74" y="322" type="line"/>
    </contour>
  </outline>
</glyph>
<glyph name="slash" format="1">
  <advance width="344"/>
  <unicode hex="002F"/>
  <outline>
    <contour>
      <point x="377" y="740" type="line"/>
      <point x="-107" y="-143" type="line"/>
      <point x="-44" y="-143" type="line"/>
      <point x="440" y="740" type="line"/>
    </contour>
  </outline>
</glyph>
<glyph name="zero" format="1">
  <advance width="616"/>
  <unicode hex="0030"/>
  <outline>
    <contour>
      <point x="559" y="397" type="line" smooth="yes"/>
      <point x="591" y="580"/>
      <point x="514" y="690"/>
      <point x="371" y="690" type="curve" smooth="yes"/>
      <point x="233" y="690"/>
      <point x="144" y="595"/>
      <point x="115" y="427" type="curve" smooth="yes"/>
      <point x="90" y="284" type="line" smooth="yes"/>
      <point x="58" y="99"/>
      <point x="132" y="-10"/>
      <point x="277" y="-10" type="curve" smooth="yes"/>
      <point x="415" y="-10"/>
      <point x="504" y="84"/>
      <point x="534" y="254" type="curve" smooth="yes"/>
    </contour>
    <contour>
      <point x="493" y="397" type="curve" smooth="yes"/>
      <point x="468" y="254" type="line" smooth="yes"/>
      <point x="444" y="117"/>
      <point x="377" y="47"/>
      <point x="278" y="47" type="curve" smooth="yes"/>
      <point x="177" y="47"/>
      <point x="129" y="129"/>
      <point x="156" y="284" type="curve" smooth="yes"/>
      <point x="181" y="427" type="line" smooth="yes"/>
      <point x="205" y="564"/>
      <point x="271" y="633"/>
      <point x="370" y="633" type="curve" smooth="yes"/>
      <point x="470" y="633"/>
      <point x="520" y="552"/>
    </contour>
  </outline>
</glyph>
<glyph name="one" format="1">
  <advance width="360"/>
  <unicode hex="0031"/>
  <outline>
    <contour>
      <point x="86" y="588" type="line"/>
      <point x="107" y="538" type="line"/>
      <point x="247" y="613" type="line"/>
      <point x="139" y="0" type="line"/>
      <point x="202" y="0" type="line"/>
      <point x="322" y="680" type="line"/>
      <point x="257" y="680" type="line"/>
    </contour>
  </outline>
</glyph>
<glyph name="two" format="1">
  <advance width="485"/>
  <unicode hex="0032"/>
  <outline>
    <contour>
      <point x="392" y="57" type="line"/>
      <point x="83" y="57" type="line"/>
      <point x="103" y="164"/>
      <point x="138" y="221"/>
      <point x="225" y="263" type="curve" smooth="yes"/>
      <point x="294" y="296" type="line" smooth="yes"/>
      <point x="391" y="342"/>
      <point x="453" y="377"/>
      <point x="470" y="488" type="curve" smooth="yes"/>
      <point x="473" y="507" type="line" smooth="yes"/>
      <point x="489" y="607"/>
      <point x="432" y="690"/>
      <point x="294" y="690" type="curve" smooth="yes"/>
      <point x="242" y="690"/>
      <point x="180" y="678"/>
      <point x="112" y="649" type="curve"/>
      <point x="130" y="596" type="line"/>
      <point x="195" y="623"/>
      <point x="252" y="633"/>
      <point x="292" y="633" type="curve" smooth="yes"/>
      <point x="381" y="633"/>
      <point x="424" y="587"/>
      <point x="410" y="506" type="curve" smooth="yes"/>
      <point x="407" y="488" type="line" smooth="yes"/>
      <point x="395" y="412"/>
      <point x="344" y="381"/>
      <point x="270" y="346" type="curve" smooth="yes"/>
      <point x="201" y="313" type="line" smooth="yes"/>
      <point x="107" y="268"/>
      <point x="46" y="206"/>
      <point x="17" y="47" type="curve"/>
      <point x="9" y="0" type="line"/>
      <point x="382" y="0" type="line"/>
    </contour>
  </outline>
</glyph>
<glyph name="three" format="1">
  <advance width="497"/>
  <unicode hex="0033"/>
  <outline>
    <contour>
      <point x="410" y="163" type="curve" smooth="yes"/>
      <point x="413" y="180" type="line" smooth="yes"/>
      <point x="426" y="256"/>
      <point x="400" y="312"/>
      <point x="345" y="340" type="curve"/>
      <point x="410" y="365"/>
      <point x="449" y="415"/>
      <point x="459" y="483" type="curve" smooth="yes"/>
      <point x="461" y="497" type="line" smooth="yes"/>
      <point x="478" y="614"/>
      <point x="425" y="690"/>
      <point x="289" y="690" type="curve" smooth="yes"/>
      <point x="233" y="690"/>
      <point x="168" y="677"/>
      <point x="103" y="648" type="curve"/>
      <point x="120" y="596" type="line"/>
      <point x="183" y="623"/>
      <point x="236" y="633"/>
      <point x="283" y="633" type="curve" smooth="yes"/>
      <point x="366" y="633"/>
      <point x="409" y="596"/>
      <point x="395" y="497" type="curve" smooth="yes"/>
      <point x="393" y="483" type="line" smooth="yes"/>
      <point x="383" y="414"/>
      <point x="333" y="371"/>
      <point x="248" y="371" type="curve" smooth="yes"/>
      <point x="152" y="371" type="line"/>
      <point x="142" y="316" type="line"/>
      <point x="238" y="316" type="line" smooth="yes"/>
      <point x="328" y="316"/>
      <point x="361" y="262"/>
      <point x="347" y="180" type="curve" smooth="yes"/>
      <point x="344" y="163" type="line" smooth="yes"/>
      <point x="329" y="79"/>
      <point x="266" y="47"/>
      <point x="178" y="47" type="curve" smooth="yes"/>
      <point x="128" y="47"/>
      <point x="73" y="56"/>
      <point x="17" y="84" type="curve"/>
      <point x="-5" y="32" type="line"/>
      <point x="53" y="3"/>
      <point x="116" y="-10"/>
      <point x="177" y="-10" type="curve" smooth="yes"/>
      <point x="325" y="-10"/>
      <point x="391" y="56"/>
    </contour>
  </outline>
</glyph>
<glyph name="four" format="1">
  <advance width="496"/>
  <unicode hex="0034"/>
  <outline>
    <contour>
      <point x="452" y="170" type="line"/>
      <point x="462" y="226" type="line"/>
      <point x="385" y="226" type="line"/>
      <point x="409" y="364" type="line"/>
      <point x="349" y="364" type="line"/>
      <point x="325" y="226" type="line"/>
      <point x="114" y="226" type="line"/>
      <point x="252" y="390"/>
      <point x="345" y="529"/>
      <point x="432" y="680" type="curve"/>
      <point x="361" y="680" type="line"/>
      <point x="275" y="527"/>
      <point x="172" y="384"/>
      <point x="32" y="216" type="curve"/>
      <point x="23" y="170" type="line"/>
      <point x="315" y="170" type="line"/>
      <point x="285" y="0" type="line"/>
      <point x="345" y="0" type="line"/>
      <point x="375" y="170" type="line"/>
    </contour>
  </outline>
</glyph>
<glyph name="five" format="1">
  <advance width="500"/>
  <unicode hex="0035"/>
  <outline>
    <contour>
      <point x="90" y="356" type="line"/>
      <point x="126" y="328" type="line"/>
      <point x="171" y="349"/>
      <point x="214" y="360"/>
      <point x="253" y="360" type="curve" smooth="yes"/>
      <point x="350" y="360"/>
      <point x="387" y="301"/>
      <point x="373" y="212" type="curve" smooth="yes"/>
      <point x="368" y="180" type="line" smooth="yes"/>
      <point x="353" y="83"/>
      <point x="287" y="47"/>
      <point x="198" y="47" type="curve" smooth="yes"/>
      <point x="149" y="47"/>
      <point x="95" y="56"/>
      <point x="40" y="85" type="curve"/>
      <point x="16" y="32" type="line"/>
      <point x="74" y="3"/>
      <point x="137" y="-10"/>
      <point x="197" y="-10" type="curve" smooth="yes"/>
      <point x="339" y="-10"/>
      <point x="415" y="56"/>
      <point x="434" y="180" type="curve" smooth="yes"/>
      <point x="439" y="212" type="line" smooth="yes"/>
      <point x="459" y="338"/>
      <point x="383" y="417"/>
      <point x="259" y="417" type="curve" smooth="yes"/>
      <point x="223" y="417"/>
      <point x="191" y="410"/>
      <point x="159" y="398" type="curve"/>
      <point x="212" y="623" type="line"/>
      <point x="487" y="623" type="line"/>
      <point x="498" y="680" type="line"/>
      <point x="167" y="680" type="line"/>
    </contour>
  </outline>
</glyph>
<glyph name="six" format="1">
  <advance width="561"/>
  <unicode hex="0036"/>
  <outline>
    <contour>
      <point x="495" y="181" type="curve" smooth="yes"/>
      <point x="501" y="218" type="line" smooth="yes"/>
      <point x="520" y="334"/>
      <point x="455" y="418"/>
      <point x="331" y="418" type="curve" smooth="yes"/>
      <point x="271" y="418"/>
      <point x="215" y="395"/>
      <point x="165" y="345" type="curve"/>
      <point x="180" y="429" type="line" smooth="yes"/>
      <point x="207" y="579"/>
      <point x="282" y="633"/>
      <point x="383" y="633" type="curve" smooth="yes"/>
      <point x="424" y="633"/>
      <point x="473" y="624"/>
      <point x="526" y="598" type="curve"/>
      <point x="548" y="651" type="line"/>
      <point x="491" y="680"/>
      <point x="432" y="690"/>
      <point x="382" y="690" type="curve" smooth="yes"/>
      <point x="245" y="690"/>
      <point x="151" y="609"/>
      <point x="119" y="429" type="curve" smooth="yes"/>
      <point x="93" y="285" type="line" smooth="yes"/>
      <point x="59" y="97"/>
      <point x="128" y="-10"/>
      <point x="275" y="-10" type="curve" smooth="yes"/>
      <point x="392" y="-10"/>
      <point x="475" y="58"/>
    </contour>
    <contour>
      <point x="325" y="361" type="curve" smooth="yes"/>
      <point x="417" y="361"/>
      <point x="453" y="301"/>
      <point x="440" y="218" type="curve" smooth="yes"/>
      <point x="434" y="181" type="line" smooth="yes"/>
      <point x="420" y="93"/>
      <point x="356" y="47"/>
      <point x="277" y="47" type="curve" smooth="yes"/>
      <point x="172" y="47"/>
      <point x="129" y="119"/>
      <point x="150" y="263" type="curve"/>
      <point x="205" y="334"/>
      <point x="266" y="361"/>
    </contour>
  </outline>
</glyph>
<glyph name="seven" format="1">
  <advance width="474.3850212115417"/>
  <unicode hex="0037"/>
  <outline>
    <contour>
      <point x="500" y="633" type="curve"/>
      <point x="508" y="680" type="line"/>
      <point x="111" y="680" type="line"/>
      <point x="100" y="623" type="line"/>
      <point x="427" y="623" type="line"/>
      <point x="288" y="416"/>
      <point x="184" y="208"/>
      <point x="112" y="0" type="curve"/>
      <point x="181" y="0" type="line"/>
      <point x="253" y="211"/>
      <point x="358" y="423"/>
    </contour>
  </outline>
</glyph>
<glyph name="eight" format="1">
  <advance width="558"/>
  <unicode hex="0038"/>
  <outline>
    <contour>
      <point x="478" y="186" type="curve" smooth="yes"/>
      <point x="478" y="259"/>
      <point x="445" y="301"/>
      <point x="384" y="336" type="curve"/>
      <point x="480" y="398"/>
      <point x="517" y="468"/>
      <point x="517" y="536" type="curve" smooth="yes"/>
      <point x="517" y="624"/>
      <point x="452" y="690"/>
      <point x="335" y="690" type="curve" smooth="yes"/>
      <point x="187" y="690"/>
      <point x="129" y="587"/>
      <point x="129" y="500" type="curve" smooth="yes"/>
      <point x="129" y="435"/>
      <point x="157" y="387"/>
      <point x="205" y="355" type="curve"/>
      <point x="96" y="294"/>
      <point x="52" y="217"/>
      <point x="52" y="146" type="curve" smooth="yes"/>
      <point x="52" y="69"/>
      <point x="113" y="-10"/>
      <point x="250" y="-10" type="curve" smooth="yes"/>
      <point x="414" y="-10"/>
      <point x="478" y="89"/>
    </contour>
    <contour>
      <point x="285" y="384" type="line" smooth="yes"/>
      <point x="216" y="416"/>
      <point x="193" y="452"/>
      <point x="193" y="505" type="curve" smooth="yes"/>
      <point x="193" y="595"/>
      <point x="262" y="635"/>
      <point x="335" y="635" type="curve" smooth="yes"/>
      <point x="409" y="635"/>
      <point x="453" y="595"/>
      <point x="453" y="529" type="curve" smooth="yes"/>
      <point x="453" y="483"/>
      <point x="435" y="424"/>
      <point x="335" y="360" type="curve"/>
    </contour>
    <contour>
      <point x="116" y="158" type="curve" smooth="yes"/>
      <point x="116" y="212"/>
      <point x="145" y="266"/>
      <point x="253" y="329" type="curve"/>
      <point x="307" y="304" type="line" smooth="yes"/>
      <point x="384" y="268"/>
      <point x="414" y="235"/>
      <point x="414" y="176" type="curve" smooth="yes"/>
      <point x="414" y="98"/>
      <point x="351" y="45"/>
      <point x="253" y="45" type="curve" smooth="yes"/>
      <point x="155" y="45"/>
      <point x="116" y="100"/>
    </contour>
  </outline>
</glyph>
<glyph name="nine" format="1">
  <advance width="561"/>
  <unicode hex="0039"/>
  <outline>
    <contour>
      <point x="476" y="251" type="curve" smooth="yes"/>
      <point x="502" y="395" type="line" smooth="yes"/>
      <point x="536" y="583"/>
      <point x="467" y="690"/>
      <point x="320" y="690" type="curve" smooth="yes"/>
      <point x="203" y="690"/>
      <point x="120" y="622"/>
      <point x="100" y="499" type="curve" smooth="yes"/>
      <point x="94" y="462" type="line" smooth="yes"/>
      <point x="75" y="346"/>
      <point x="140" y="262"/>
      <point x="264" y="262" type="curve" smooth="yes"/>
      <point x="324" y="262"/>
      <point x="380" y="285"/>
      <point x="430" y="335" type="curve"/>
      <point x="415" y="251" type="line" smooth="yes"/>
      <point x="388" y="101"/>
      <point x="313" y="47"/>
      <point x="212" y="47" type="curve" smooth="yes"/>
      <point x="171" y="47"/>
      <point x="122" y="56"/>
      <point x="69" y="82" type="curve"/>
      <point x="47" y="29" type="line"/>
      <point x="104" y="0"/>
      <point x="163" y="-10"/>
      <point x="213" y="-10" type="curve" smooth="yes"/>
      <point x="350" y="-10"/>
      <point x="444" y="71"/>
    </contour>
    <contour>
      <point x="155" y="462" type="curve" smooth="yes"/>
      <point x="161" y="499" type="line" smooth="yes"/>
      <point x="175" y="587"/>
      <point x="239" y="633"/>
      <point x="318" y="633" type="curve" smooth="yes"/>
      <point x="423" y="633"/>
      <point x="466" y="561"/>
      <point x="445" y="417" type="curve"/>
      <point x="390" y="346"/>
      <point x="329" y="319"/>
      <point x="270" y="319" type="curve" smooth="yes"/>
      <point x="178" y="319"/>
      <point x="142" y="379"/>
    </contour>
  </outline>
</glyph>
<glyph name="colon" format="1">
  <advance width="180"/>
  <unicode hex="003A"/>
  <outline>
    <contour>
      <point x="156" y="414" type="line"/>
      <point x="169" y="487" type="line"/>
      <point x="97" y="487" type="line"/>
      <point x="84" y="414" type="line"/>
    </contour>
    <contour>
      <point x="83" y="0" type="line"/>
      <point x="96" y="73" type="line"/>
      <point x="24" y="73" type="line"/>
      <point x="11" y="0" type="line"/>
    </contour>
  </outline>
</glyph>
<glyph name="less" format="1">
  <advance width="588"/>
  <unicode hex="003C"/>
  <outline>
    <contour>
      <point x="487" y="165" type="line"/>
      <point x="184" y="290" type="line"/>
      <point x="530" y="412" type="line"/>
      <point x="542" y="476" type="line"/>
      <point x="99" y="311" type="line"/>
      <point x="92" y="274" type="line"/>
      <point x="477" y="106" type="line"/>
    </contour>
  </outline>
</glyph>
<glyph name="equal" format="1">
  <advance width="588"/>
  <unicode hex="003D"/>
  <outline>
    <contour>
      <point x="109" y="368" type="line"/>
      <point x="523" y="368" type="line"/>
      <point x="532" y="421" type="line"/>
      <point x="118" y="421" type="line"/>
    </contour>
    <contour>
      <point x="74" y="168" type="line"/>
      <point x="488" y="168" type="line"/>
      <point x="497" y="221" type="line"/>
      <point x="83" y="221" type="line"/>
    </contour>
  </outline>
</glyph>
<glyph name="greater" format="1">
  <advance width="588"/>
  <unicode hex="003E"/>
  <outline>
    <contour>
      <point x="506" y="271" type="line"/>
      <point x="513" y="308" type="line"/>
      <point x="128" y="476" type="line"/>
      <point x="118" y="417" type="line"/>
      <point x="421" y="292" type="line"/>
      <point x="75" y="170" type="line"/>
      <point x="63" y="106" type="line"/>
    </contour>
  </outline>
</glyph>
<glyph name="question" format="1">
  <advance width="422"/>
  <unicode hex="003F"/>
  <outline>
    <contour>
      <point x="262" y="635" type="curve" smooth="yes"/>
      <point x="342" y="635"/>
      <point x="383" y="594"/>
      <point x="371" y="526" type="curve" smooth="yes"/>
      <point x="368" y="509" type="line" smooth="yes"/>
      <point x="357" y="448"/>
      <point x="328" y="415"/>
      <point x="294" y="387" type="curve" smooth="yes"/>
      <point x="256" y="355" type="line" smooth="yes"/>
      <point x="191" y="300"/>
      <point x="168" y="272"/>
      <point x="155" y="197" type="curve" smooth="yes"/>
      <point x="150" y="172" type="line"/>
      <point x="210" y="172" type="line"/>
      <point x="215" y="198" type="line" smooth="yes"/>
      <point x="223" y="244"/>
      <point x="237" y="267"/>
      <point x="281" y="305" type="curve" smooth="yes"/>
      <point x="318" y="337" type="line" smooth="yes"/>
      <point x="378" y="389"/>
      <point x="416" y="422"/>
      <point x="429" y="497" type="curve" smooth="yes"/>
      <point x="432" y="514" type="line" smooth="yes"/>
      <point x="449" y="610"/>
      <point x="394" y="690"/>
      <point x="261" y="690" type="curve" smooth="yes"/>
      <point x="208" y="690"/>
      <point x="145" y="677"/>
      <point x="81" y="649" type="curve"/>
      <point x="94" y="596" type="line"/>
      <point x="160" y="625"/>
      <point x="215" y="635"/>
    </contour>
    <contour>
      <point x="188" y="0" type="line"/>
      <point x="201" y="73" type="line"/>
      <point x="129" y="73" type="line"/>
      <point x="116" y="0" type="line"/>
    </contour>
  </outline>
</glyph>
<glyph name="at" format="1">
  <advance width="954"/>
  <unicode hex="0040"/>
  <outline>
    <contour>
      <point x="736" y="-167" type="curve"/>
      <point x="712" y="-115" type="line"/>
      <point x="642" y="-150"/>
      <point x="554" y="-170"/>
      <point x="474" y="-170" type="curve" smooth="yes"/>
      <point x="251" y="-170"/>
      <point x="118" y="-21"/>
      <point x="118" y="207" type="curve" smooth="yes"/>
      <point x="118" y="452"/>
      <point x="274" y="637"/>
      <point x="496" y="637" type="curve" smooth="yes"/>
      <point x="701" y="637"/>
      <point x="840" y="480"/>
      <point x="840" y="281" type="curve" smooth="yes"/>
      <point x="840" y="143"/>
      <point x="772" y="47"/>
      <point x="695" y="47" type="curve" smooth="yes"/>
      <point x="654" y="47"/>
      <point x="621" y="64"/>
      <point x="636" y="150" type="curve"/>
      <point x="681" y="407" type="line"/>
      <point x="622" y="445"/>
      <point x="564" y="467"/>
      <point x="502" y="467" type="curve" smooth="yes"/>
      <point x="385" y="467"/>
      <point x="309" y="390"/>
      <point x="290" y="260" type="curve" smooth="yes"/>
      <point x="281" y="199" type="line" smooth="yes"/>
      <point x="264" y="81"/>
      <point x="310" y="-10"/>
      <point x="407" y="-10" type="curve" smooth="yes"/>
      <point x="463" y="-10"/>
      <point x="522" y="19"/>
      <point x="575" y="82" type="curve"/>
      <point x="583" y="22"/>
      <point x="626" y="-5"/>
      <point x="691" y="-5" type="curve" smooth="yes"/>
      <point x="811" y="-5"/>
      <point x="901" y="119"/>
      <point x="901" y="281" type="curve" smooth="yes"/>
      <point x="901" y="510"/>
      <point x="736" y="690"/>
      <point x="496" y="690" type="curve" smooth="yes"/>
      <point x="238" y="690"/>
      <point x="57" y="482"/>
      <point x="57" y="207" type="curve" smooth="yes"/>
      <point x="57" y="-50"/>
      <point x="214" y="-223"/>
      <point x="474" y="-223" type="curve" smooth="yes"/>
      <point x="564" y="-223"/>
      <point x="658" y="-202"/>
    </contour>
    <contour>
      <point x="344" y="199" type="curve" smooth="yes"/>
      <point x="353" y="260" type="line" smooth="yes"/>
      <point x="367" y="355"/>
      <point x="413" y="412"/>
      <point x="504" y="412" type="curve" smooth="yes"/>
      <point x="541" y="412"/>
      <point x="577" y="401"/>
      <point x="616" y="380" type="curve"/>
      <point x="580" y="167" type="line"/>
      <point x="521" y="74"/>
      <point x="460" y="43"/>
      <point x="415" y="43" type="curve" smooth="yes"/>
      <point x="355" y="43"/>
      <point x="330" y="103"/>
    </contour>
  </outline>
</glyph>
<glyph name="A" format="1">
  <advance width="562"/>
  <unicode hex="0041"/>
  <outline>
    <contour>
      <point x="432" y="0" type="line"/>
      <point x="497" y="0" type="line"/>
      <point x="390" y="680" type="line"/>
      <point x="325" y="680" type="line"/>
      <point x="-21" y="0" type="line"/>
      <point x="46" y="0" type="line"/>
      <point x="134" y="175" type="line"/>
      <point x="405" y="175" type="line"/>
    </contour>
    <contour>
      <point x="229" y="363" type="line"/>
      <point x="343" y="593" type="line"/>
      <point x="377" y="363" type="line"/>
      <point x="397" y="233" type="line"/>
      <point x="163" y="233" type="line"/>
    </contour>
  </outline>
</glyph>
<glyph name="B" format="1">
  <advance width="586.2275324367162"/>
  <unicode hex="0042"/>
  <outline>
    <contour>
      <point x="72" y="0" type="line"/>
      <point x="302" y="0" type="line" smooth="yes"/>
      <point x="420" y="0"/>
      <point x="494" y="64"/>
      <point x="511" y="169" type="curve" smooth="yes"/>
      <point x="514" y="187" type="line" smooth="yes"/>
      <point x="526" y="259"/>
      <point x="498" y="320"/>
      <point x="432" y="347" type="curve"/>
      <point x="489" y="371"/>
      <point x="525" y="418"/>
      <point x="535" y="479" type="curve" smooth="yes"/>
      <point x="538" y="497" type="line" smooth="yes"/>
      <point x="556" y="606"/>
      <point x="496" y="680"/>
      <point x="377" y="680" type="curve" smooth="yes"/>
      <point x="192" y="680" type="line"/>
    </contour>
    <contour>
      <point x="376" y="621" type="line" smooth="yes"/>
      <point x="452" y="621"/>
      <point x="483" y="574"/>
      <point x="470" y="497" type="curve" smooth="yes"/>
      <point x="467" y="479" type="line" smooth="yes"/>
      <point x="456" y="414"/>
      <point x="409" y="375"/>
      <point x="333" y="375" type="curve" smooth="yes"/>
      <point x="203" y="375" type="line"/>
      <point x="247" y="621" type="line"/>
    </contour>
    <contour>
      <point x="348" y="316" type="line" smooth="yes"/>
      <point x="426" y="316"/>
      <point x="459" y="263"/>
      <point x="446" y="187" type="curve" smooth="yes"/>
      <point x="443" y="169" type="line" smooth="yes"/>
      <point x="431" y="100"/>
      <point x="381" y="59"/>
      <point x="302" y="59" type="curve" smooth="yes"/>
      <point x="147" y="59" type="line"/>
      <point x="193" y="316" type="line"/>
    </contour>
  </outline>
</glyph>
<glyph name="C" format="1">
  <advance width="530.8865175594544"/>
  <unicode hex="0043"/>
  <outline>
    <contour>
      <point x="159" y="283" type="curve" smooth="yes"/>
      <point x="183" y="417" type="line" smooth="yes"/>
      <point x="209" y="561"/>
      <point x="273" y="631"/>
      <point x="380" y="631" type="curve" smooth="yes"/>
      <point x="425" y="631"/>
      <point x="473" y="619"/>
      <point x="526" y="591" type="curve"/>
      <point x="548" y="649" type="line"/>
      <point x="494" y="677"/>
      <point x="435" y="690"/>
      <point x="381" y="690" type="curve" smooth="yes"/>
      <point x="225" y="690"/>
      <point x="147" y="596"/>
      <point x="115" y="417" type="curve" smooth="yes"/>
      <point x="91" y="283" type="line" smooth="yes"/>
      <point x="57" y="96"/>
      <point x="131" y="-10"/>
      <point x="278" y="-10" type="curve" smooth="yes"/>
      <point x="329" y="-10"/>
      <point x="394" y="-1"/>
      <point x="457" y="26" type="curve"/>
      <point x="439" y="81" type="line"/>
      <point x="377" y="54"/>
      <point x="324" y="49"/>
      <point x="285" y="49" type="curve" smooth="yes"/>
      <point x="176" y="49"/>
      <point x="131" y="127"/>
    </contour>
  </outline>
</glyph>
<glyph name="D" format="1">
  <advance width="637"/>
  <unicode hex="0044"/>
  <outline>
    <contour>
      <point x="72" y="0" type="line"/>
      <point x="279" y="0" type="line" smooth="yes"/>
      <point x="427" y="0"/>
      <point x="526" y="98"/>
      <point x="553" y="254" type="curve" smooth="yes"/>
      <point x="578" y="397" type="line" smooth="yes"/>
      <point x="608" y="567"/>
      <point x="529" y="680"/>
      <point x="374" y="680" type="curve" smooth="yes"/>
      <point x="192" y="680" type="line"/>
    </contour>
    <contour>
      <point x="373" y="621" type="line" smooth="yes"/>
      <point x="484" y="621"/>
      <point x="535" y="538"/>
      <point x="510" y="397" type="curve" smooth="yes"/>
      <point x="485" y="254" type="line" smooth="yes"/>
      <point x="464" y="132"/>
      <point x="387" y="59"/>
      <point x="280" y="59" type="curve" smooth="yes"/>
      <point x="147" y="59" type="line"/>
      <point x="247" y="621" type="line"/>
    </contour>
  </outline>
</glyph>
<glyph name="E" format="1">
  <advance width="528"/>
  <unicode hex="0045"/>
  <outline>
    <contour>
      <point x="452" y="59" type="line"/>
      <point x="147" y="59" type="line"/>
      <point x="193" y="315" type="line"/>
      <point x="458" y="315" type="line"/>
      <point x="468" y="374" type="line"/>
      <point x="203" y="374" type="line"/>
      <point x="246" y="621" type="line"/>
      <point x="541" y="621" type="line"/>
      <point x="552" y="680" type="line"/>
      <point x="192" y="680" type="line"/>
      <point x="72" y="0" type="line"/>
      <point x="442" y="0" type="line"/>
    </contour>
  </outline>
</glyph>
<glyph name="F" format="1">
  <advance width="507"/>
  <unicode hex="0046"/>
  <outline>
    <contour>
      <point x="450" y="304" type="line"/>
      <point x="460" y="363" type="line"/>
      <point x="201" y="363" type="line"/>
      <point x="246" y="621" type="line"/>
      <point x="535" y="621" type="line"/>
      <point x="546" y="680" type="line"/>
      <point x="192" y="680" type="line"/>
      <point x="72" y="0" type="line"/>
      <point x="137" y="0" type="line"/>
      <point x="191" y="304" type="line"/>
    </contour>
  </outline>
</glyph>
<glyph name="G" format="1">
  <advance width="605"/>
  <unicode hex="0047"/>
  <outline>
    <contour>
      <point x="495" y="40" type="curve"/>
      <point x="549" y="345" type="line"/>
      <point x="351" y="345" type="line"/>
      <point x="340" y="286" type="line"/>
      <point x="477" y="286" type="line"/>
      <point x="441" y="79" type="line"/>
      <point x="388" y="55"/>
      <point x="345" y="47"/>
      <point x="297" y="47" type="curve" smooth="yes"/>
      <point x="179" y="47"/>
      <point x="133" y="126"/>
      <point x="161" y="283" type="curve" smooth="yes"/>
      <point x="185" y="417" type="line" smooth="yes"/>
      <point x="211" y="561"/>
      <point x="280" y="631"/>
      <point x="393" y="631" type="curve" smooth="yes"/>
      <point x="443" y="631"/>
      <point x="499" y="622"/>
      <point x="559" y="590" type="curve"/>
      <point x="581" y="647" type="line"/>
      <point x="521" y="678"/>
      <point x="454" y="690"/>
      <point x="394" y="690" type="curve" smooth="yes"/>
      <point x="231" y="690"/>
      <point x="149" y="596"/>
      <point x="117" y="417" type="curve" smooth="yes"/>
      <point x="93" y="283" type="line" smooth="yes"/>
      <point x="59" y="96"/>
      <point x="135" y="-10"/>
      <point x="290" y="-10" type="curve" smooth="yes"/>
      <point x="358" y="-10"/>
      <point x="421" y="4"/>
    </contour>
  </outline>
</glyph>
<glyph name="H" format="1">
  <advance width="685"/>
  <unicode hex="0048"/>
  <outline>
    <contour>
      <point x="462" y="0" type="line"/>
      <point x="527" y="0" type="line"/>
      <point x="647" y="680" type="line"/>
      <point x="582" y="680" type="line"/>
      <point x="528" y="374" type="line"/>
      <point x="203" y="374" type="line"/>
      <point x="257" y="680" type="line"/>
      <point x="192" y="680" type="line"/>
      <point x="72" y="0" type="line"/>
      <point x="137" y="0" type="line"/>
      <point x="193" y="315" type="line"/>
      <point x="518" y="315" type="line"/>
    </contour>
  </outline>
</glyph>
<glyph name="J" format="1">
  <advance width="355"/>
  <unicode hex="004A"/>
  <outline>
    <contour>
      <point x="-16" y="-5" type="line"/>
      <point x="168" y="-5"/>
      <point x="220" y="73"/>
      <point x="245" y="212" type="curve" smooth="yes"/>
      <point x="328" y="680" type="line"/>
      <point x="263" y="680" type="line"/>
      <point x="180" y="212" type="line" smooth="yes"/>
      <point x="158" y="90"/>
      <point x="109" y="57"/>
      <point x="-5" y="57" type="curve"/>
    </contour>
  </outline>
</glyph>
<glyph name="K" format="1">
  <advance width="583.0"/>
  <unicode hex="004B"/>
  <outline>
    <contour>
      <point x="456" y="0" type="line"/>
      <point x="529" y="0" type="line"/>
      <point x="354" y="378" type="line"/>
      <point x="459" y="478"/>
      <point x="541" y="574"/>
      <point x="617" y="680" type="curve"/>
      <point x="542" y="680" type="line"/>
      <point x="456" y="555"/>
      <point x="341" y="438"/>
      <point x="193" y="316" type="curve"/>
      <point x="257" y="680" type="line"/>
      <point x="192" y="680" type="line"/>
      <point x="72" y="0" type="line"/>
      <point x="137" y="0" type="line"/>
      <point x="179" y="237" type="line"/>
      <point x="223" y="272"/>
      <point x="265" y="306"/>
      <point x="303" y="340" type="curve"/>
    </contour>
  </outline>
</glyph>
<glyph name="L" format="1">
  <advance width="506"/>
  <unicode hex="004C"/>
  <outline>
    <contour>
      <point x="441" y="59" type="line"/>
      <point x="147" y="59" type="line"/>
      <point x="257" y="680" type="line"/>
      <point x="192" y="680" type="line"/>
      <point x="72" y="0" type="line"/>
      <point x="431" y="0" type="line"/>
    </contour>
  </outline>
</glyph>
<glyph name="M" format="1">
  <advance width="829"/>
  <unicode hex="004D"/>
  <outline>
    <contour>
      <point x="271" y="680" type="line"/>
      <point x="192" y="680" type="line"/>
      <point x="72" y="0" type="line"/>
      <point x="133" y="0" type="line"/>
      <point x="188" y="312" type="line"/>
      <point x="233" y="591" type="line"/>
      <point x="351" y="80" type="line"/>
      <point x="416" y="80" type="line"/>
      <point x="716" y="580" type="line"/>
      <point x="665" y="312" type="line"/>
      <point x="610" y="0" type="line"/>
      <point x="671" y="0" type="line"/>
      <point x="791" y="680" type="line"/>
      <point x="712" y="680" type="line"/>
      <point x="395" y="151" type="line"/>
    </contour>
  </outline>
</glyph>
<glyph name="N" format="1">
  <advance width="695"/>
  <unicode hex="004E"/>
  <outline>
    <contour>
      <point x="72" y="0" type="line"/>
      <point x="133" y="0" type="line"/>
      <point x="184" y="291" type="line"/>
      <point x="239" y="603" type="line"/>
      <point x="324" y="405"/>
      <point x="392" y="216"/>
      <point x="459" y="0" type="curve"/>
      <point x="537" y="0" type="line"/>
      <point x="657" y="680" type="line"/>
      <point x="596" y="680" type="line"/>
      <point x="544" y="388" type="line"/>
      <point x="497" y="77" type="line"/>
      <point x="431" y="298"/>
      <point x="359" y="479"/>
      <point x="270" y="680" type="curve"/>
      <point x="192" y="680" type="line"/>
    </contour>
  </outline>
</glyph>
<glyph name="O" format="1">
  <advance width="653.215918386961"/>
  <unicode hex="004F"/>
  <outline>
    <contour>
      <point x="594" y="397" type="line" smooth="yes"/>
      <point x="625" y="573"/>
      <point x="544" y="690"/>
      <point x="387" y="690" type="curve" smooth="yes"/>
      <point x="242" y="690"/>
      <point x="146" y="588"/>
      <point x="118" y="427" type="curve" smooth="yes"/>
      <point x="93" y="284" type="line" smooth="yes"/>
      <point x="62" y="107"/>
      <point x="140" y="-10"/>
      <point x="299" y="-10" type="curve" smooth="yes"/>
      <point x="444" y="-10"/>
      <point x="541" y="92"/>
      <point x="569" y="254" type="curve" smooth="yes"/>
    </contour>
    <contour>
      <point x="526" y="397" type="curve" smooth="yes"/>
      <point x="501" y="254" type="line" smooth="yes"/>
      <point x="479" y="126"/>
      <point x="404" y="49"/>
      <point x="300" y="49" type="curve" smooth="yes"/>
      <point x="186" y="49"/>
      <point x="135" y="138"/>
      <point x="161" y="284" type="curve" smooth="yes"/>
      <point x="186" y="427" type="line" smooth="yes"/>
      <point x="209" y="556"/>
      <point x="282" y="631"/>
      <point x="386" y="631" type="curve" smooth="yes"/>
      <point x="499" y="631"/>
      <point x="552" y="544"/>
    </contour>
  </outline>
</glyph>
<glyph name="P" format="1">
  <advance width="559.1419015783099"/>
  <unicode hex="0050"/>
  <outline>
    <contour>
      <point x="72" y="0" type="line"/>
      <point x="137" y="0" type="line"/>
      <point x="183" y="260" type="line"/>
      <point x="331" y="260" type="line" smooth="yes"/>
      <point x="455" y="260"/>
      <point x="525" y="326"/>
      <point x="545" y="434" type="curve" smooth="yes"/>
      <point x="555" y="487" type="line" smooth="yes"/>
      <point x="575" y="594"/>
      <point x="518" y="680"/>
      <point x="385" y="680" type="curve" smooth="yes"/>
      <point x="192" y="680" type="line"/>
    </contour>
    <contour>
      <point x="384" y="621" type="line" smooth="yes"/>
      <point x="466" y="621"/>
      <point x="503" y="570"/>
      <point x="487" y="487" type="curve" smooth="yes"/>
      <point x="477" y="434" type="line" smooth="yes"/>
      <point x="463" y="362"/>
      <point x="413" y="319"/>
      <point x="331" y="319" type="curve" smooth="yes"/>
      <point x="193" y="319" type="line"/>
      <point x="247" y="621" type="line"/>
    </contour>
  </outline>
</glyph>
<glyph name="Q" format="1">
  <advance width="653.215918386961"/>
  <unicode hex="0051"/>
  <outline>
    <contour>
      <point x="502" y="-108" type="line"/>
      <point x="407" y="-106"/>
      <point x="380" y="-95"/>
      <point x="359" y="-9" type="curve" smooth="yes"/>
      <point x="358" y="-4" type="line"/>
      <point x="470" y="20"/>
      <point x="545" y="115"/>
      <point x="569" y="254" type="curve" smooth="yes"/>
      <point x="594" y="397" type="line" smooth="yes"/>
      <point x="625" y="573"/>
      <point x="544" y="690"/>
      <point x="387" y="690" type="curve" smooth="yes"/>
      <point x="242" y="690"/>
      <point x="146" y="588"/>
      <point x="118" y="427" type="curve" smooth="yes"/>
      <point x="93" y="284" type="line" smooth="yes"/>
      <point x="62" y="110"/>
      <point x="138" y="-7"/>
      <point x="292" y="-10" type="curve"/>
      <point x="298" y="-36" type="line" smooth="yes"/>
      <point x="321" y="-138"/>
      <point x="385" y="-173"/>
      <point x="490" y="-173" type="curve"/>
    </contour>
    <contour>
      <point x="526" y="397" type="curve" smooth="yes"/>
      <point x="501" y="254" type="line" smooth="yes"/>
      <point x="479" y="126"/>
      <point x="404" y="49"/>
      <point x="300" y="49" type="curve" smooth="yes"/>
      <point x="186" y="49"/>
      <point x="135" y="138"/>
      <point x="161" y="284" type="curve" smooth="yes"/>
      <point x="186" y="427" type="line" smooth="yes"/>
      <point x="209" y="556"/>
      <point x="282" y="631"/>
      <point x="386" y="631" type="curve" smooth="yes"/>
      <point x="499" y="631"/>
      <point x="552" y="544"/>
    </contour>
  </outline>
</glyph>
<glyph name="R" format="1">
  <advance width="597"/>
  <unicode hex="0052"/>
  <outline>
    <contour>
      <point x="186" y="278" type="line"/>
      <point x="343" y="278" type="line"/>
      <point x="382" y="189"/>
      <point x="416" y="96"/>
      <point x="439" y="0" type="curve"/>
      <point x="509" y="0" type="line"/>
      <point x="484" y="99"/>
      <point x="450" y="196"/>
      <point x="407" y="287" type="curve"/>
      <point x="486" y="309"/>
      <point x="535" y="368"/>
      <point x="548" y="448" type="curve" smooth="yes"/>
      <point x="555" y="491" type="line" smooth="yes"/>
      <point x="574" y="605"/>
      <point x="500" y="680"/>
      <point x="386" y="680" type="curve" smooth="yes"/>
      <point x="192" y="680" type="line"/>
      <point x="72" y="0" type="line"/>
      <point x="137" y="0" type="line"/>
    </contour>
    <contour>
      <point x="384" y="621" type="line" smooth="yes"/>
      <point x="459" y="621"/>
      <point x="500" y="573"/>
      <point x="487" y="491" type="curve" smooth="yes"/>
      <point x="480" y="448" type="line" smooth="yes"/>
      <point x="468" y="376"/>
      <point x="411" y="337"/>
      <point x="334" y="337" type="curve" smooth="yes"/>
      <point x="196" y="337" type="line"/>
      <point x="247" y="621" type="line"/>
    </contour>
  </outline>
</glyph>
<glyph name="S" format="1">
  <advance width="498.54969265321625"/>
  <unicode hex="0053"/>
  <outline>
    <contour>
      <point x="207" y="47" type="curve" smooth="yes"/>
      <point x="152" y="47"/>
      <point x="95" y="61"/>
      <point x="30" y="93" type="curve"/>
      <point x="8" y="36" type="line"/>
      <point x="73" y="4"/>
      <point x="143" y="-10"/>
      <point x="207" y="-10" type="curve" smooth="yes"/>
      <point x="377" y="-10"/>
      <point x="440" y="87"/>
      <point x="440" y="187" type="curve" smooth="yes"/>
      <point x="440" y="273"/>
      <point x="394" y="325"/>
      <point x="316" y="359" type="curve" smooth="yes"/>
      <point x="245" y="390" type="line" smooth="yes"/>
      <point x="181" y="418"/>
      <point x="157" y="452"/>
      <point x="157" y="503" type="curve" smooth="yes"/>
      <point x="157" y="580"/>
      <point x="208" y="633"/>
      <point x="307" y="633" type="curve" smooth="yes"/>
      <point x="360" y="633"/>
      <point x="411" y="620"/>
      <point x="469" y="590" type="curve"/>
      <point x="491" y="647" type="line"/>
      <point x="433" y="677"/>
      <point x="369" y="690"/>
      <point x="307" y="690" type="curve" smooth="yes"/>
      <point x="151" y="690"/>
      <point x="90" y="601"/>
      <point x="90" y="501" type="curve" smooth="yes"/>
      <point x="90" y="424"/>
      <point x="125" y="372"/>
      <point x="210" y="335" type="curve" smooth="yes"/>
      <point x="281" y="304" type="line" smooth="yes"/>
      <point x="343" y="277"/>
      <point x="372" y="239"/>
      <point x="372" y="182" type="curve" smooth="yes"/>
      <point x="372" y="98"/>
      <point x="312" y="47"/>
    </contour>
  </outline>
</glyph>
<glyph name="T" format="1">
  <advance width="499"/>
  <unicode hex="0054"/>
  <outline>
    <contour>
      <point x="79" y="621" type="line"/>
      <point x="283" y="621" type="line"/>
      <point x="174" y="0" type="line"/>
      <point x="239" y="0" type="line"/>
      <point x="348" y="621" type="line"/>
      <point x="552" y="621" type="line"/>
      <point x="563" y="680" type="line"/>
      <point x="90" y="680" type="line"/>
    </contour>
  </outline>
</glyph>
<glyph name="U" format="1">
  <advance width="650"/>
  <unicode hex="0055"/>
  <outline>
    <contour>
      <point x="179" y="680" type="line"/>
      <point x="102" y="244" type="line" smooth="yes"/>
      <point x="77" y="104"/>
      <point x="140" y="-10"/>
      <point x="295" y="-10" type="curve" smooth="yes"/>
      <point x="438" y="-10"/>
      <point x="520" y="86"/>
      <point x="548" y="244" type="curve" smooth="yes"/>
      <point x="625" y="680" type="line"/>
      <point x="557" y="680" type="line"/>
      <point x="480" y="244" type="line" smooth="yes"/>
      <point x="458" y="118"/>
      <point x="399" y="49"/>
      <point x="297" y="49" type="curve" smooth="yes"/>
      <point x="184" y="49"/>
      <point x="151" y="136"/>
      <point x="170" y="244" type="curve" smooth="yes"/>
      <point x="247" y="680" type="line"/>
    </contour>
  </outline>
</glyph>
<glyph name="V" format="1">
  <advance width="550"/>
  <unicode hex="0056"/>
  <outline>
    <contour>
      <point x="603" y="680" type="line"/>
      <point x="536" y="680" type="line"/>
      <point x="366" y="334" type="line"/>
      <point x="248" y="93" type="line"/>
      <point x="215" y="334" type="line"/>
      <point x="166" y="680" type="line"/>
      <point x="101" y="680" type="line"/>
      <point x="200" y="0" type="line"/>
      <point x="265" y="0" type="line"/>
    </contour>
  </outline>
</glyph>
<glyph name="W" format="1">
  <advance width="856"/>
  <unicode hex="0057"/>
  <outline>
    <contour>
      <point x="194" y="380" type="line"/>
      <point x="183" y="680" type="line"/>
      <point x="120" y="680" type="line"/>
      <point x="146" y="0" type="line"/>
      <point x="214" y="0" type="line"/>
      <point x="489" y="584" type="line"/>
      <point x="556" y="0" type="line"/>
      <point x="623" y="0" type="line"/>
      <point x="890" y="680" type="line"/>
      <point x="825" y="680" type="line"/>
      <point x="708" y="380" type="line"/>
      <point x="603" y="103" type="line"/>
      <point x="536" y="680" type="line"/>
      <point x="471" y="680" type="line"/>
      <point x="201" y="106" type="line"/>
    </contour>
  </outline>
</glyph>
<glyph name="X" format="1">
  <advance width="528.0"/>
  <unicode hex="0058"/>
  <outline>
    <contour>
      <point x="395" y="0" type="line"/>
      <point x="461" y="0" type="line"/>
      <point x="321" y="341" type="line"/>
      <point x="577" y="680" type="line"/>
      <point x="503" y="680" type="line"/>
      <point x="293" y="401" type="line"/>
      <point x="177" y="680" type="line"/>
      <point x="111" y="680" type="line"/>
      <point x="247" y="353" type="line"/>
      <point x="-19" y="0" type="line"/>
      <point x="55" y="0" type="line"/>
      <point x="275" y="292" type="line"/>
    </contour>
  </outline>
</glyph>
<glyph name="Y" format="1">
  <advance width="512"/>
  <unicode hex="0059"/>
  <outline>
    <contour>
      <point x="573" y="680" type="line"/>
      <point x="501" y="680" type="line"/>
      <point x="271" y="337" type="line"/>
      <point x="160" y="680" type="line"/>
      <point x="93" y="680" type="line"/>
      <point x="229" y="271" type="line"/>
      <point x="181" y="0" type="line"/>
      <point x="246" y="0" type="line"/>
      <point x="294" y="270" type="line"/>
    </contour>
  </outline>
</glyph>
<glyph name="Z" format="1">
  <advance width="508"/>
  <unicode hex="005A"/>
  <outline>
    <contour>
      <point x="435" y="59" type="line"/>
      <point x="92" y="59" type="line"/>
      <point x="527" y="633" type="line"/>
      <point x="535" y="680" type="line"/>
      <point x="130" y="680" type="line"/>
      <point x="119" y="621" type="line"/>
      <point x="443" y="621" type="line"/>
      <point x="8" y="47" type="line"/>
      <point x="0" y="0" type="line"/>
      <point x="425" y="0" type="line"/>
    </contour>
  </outline>
</glyph>
<glyph name="bracketleft" format="1">
  <advance width="344"/>
  <unicode hex="005B"/>
  <outline>
    <contour>
      <point x="281" y="-90" type="line"/>
      <point x="116" y="-90" type="line"/>
      <point x="253" y="687" type="line"/>
      <point x="418" y="687" type="line"/>
      <point x="427" y="740" type="line"/>
      <point x="202" y="740" type="line"/>
      <point x="47" y="-143" type="line"/>
      <point x="272" y="-143" type="line"/>
    </contour>
  </outline>
</glyph>
<glyph name="backslash" format="1">
  <advance width="344"/>
  <unicode hex="005C"/>
  <outline>
    <contour>
      <point x="136" y="740" type="line"/>
      <point x="78" y="740" type="line"/>
      <point x="257" y="-143" type="line"/>
      <point x="315" y="-143" type="line"/>
    </contour>
  </outline>
</glyph>
<glyph name="bracketright" format="1">
  <advance width="344.21476"/>
  <unicode hex="005D"/>
  <outline>
    <contour>
      <point x="316" y="740" type="line"/>
      <point x="91" y="740" type="line"/>
      <point x="82" y="687" type="line"/>
      <point x="247" y="687" type="line"/>
      <point x="110" y="-90" type="line"/>
      <point x="-55" y="-90" type="line"/>
      <point x="-64" y="-143" type="line"/>
      <point x="161" y="-143" type="line"/>
    </contour>
  </outline>
</glyph>
<glyph name="asciicircum" format="1">
  <advance width="588"/>
  <unicode hex="005E"/>
  <outline>
    <contour>
      <point x="423" y="266" type="line"/>
      <point x="483" y="266" type="line"/>
      <point x="388" y="680" type="line"/>
      <point x="351" y="680" type="line"/>
      <point x="113" y="266" type="line"/>
      <point x="177" y="266" type="line"/>
      <point x="356" y="589" type="line"/>
    </contour>
  </outline>
</glyph>
<glyph name="underscore" format="1">
  <advance width="374"/>
  <unicode hex="005F"/>
  <outline>
    <contour>
      <point x="-65" y="-153" type="line"/>
      <point x="299" y="-153" type="line"/>
      <point x="308" y="-100" type="line"/>
      <point x="-56" y="-100" type="line"/>
    </contour>
  </outline>
</glyph>
<glyph name="grave" format="1">
  <advance width="500"/>
  <unicode hex="0060"/>
  <outline>
    <contour>
      <point x="285" y="579" type="line"/>
      <point x="333" y="579" type="line"/>
      <point x="276" y="745" type="line"/>
      <point x="215" y="716" type="line"/>
    </contour>
  </outline>
</glyph>
<glyph name="a" format="1">
  <advance width="544.1836509645768"/>
  <unicode hex="0061"/>
  <outline>
    <contour>
      <point x="451" y="-5" type="curve" smooth="yes"/>
      <point x="467" y="-5" type="line"/>
      <point x="477" y="50" type="line"/>
      <point x="461" y="50" type="line" smooth="yes"/>
      <point x="426" y="50"/>
      <point x="418" y="77"/>
      <point x="428" y="131" type="curve" smooth="yes"/>
      <point x="482" y="436" type="line"/>
      <point x="421" y="475"/>
      <point x="361" y="497"/>
      <point x="300" y="497" type="curve" smooth="yes"/>
      <point x="179" y="497"/>
      <point x="94" y="410"/>
      <point x="76" y="275" type="curve" smooth="yes"/>
      <point x="69" y="224" type="line" smooth="yes"/>
      <point x="51" y="92"/>
      <point x="97" y="-10"/>
      <point x="195" y="-10" type="curve" smooth="yes"/>
      <point x="252" y="-10"/>
      <point x="310" y="19"/>
      <point x="365" y="89" type="curve"/>
      <point x="362" y="33"/>
      <point x="390" y="-5"/>
    </contour>
    <contour>
      <point x="132" y="224" type="curve" smooth="yes"/>
      <point x="139" y="275" type="line" smooth="yes"/>
      <point x="152" y="373"/>
      <point x="208" y="442"/>
      <point x="302" y="442" type="curve" smooth="yes"/>
      <point x="338" y="442"/>
      <point x="376" y="431"/>
      <point x="418" y="409" type="curve"/>
      <point x="377" y="180" type="line"/>
      <point x="312" y="78"/>
      <point x="251" y="43"/>
      <point x="205" y="43" type="curve" smooth="yes"/>
      <point x="143" y="43"/>
      <point x="117" y="113"/>
    </contour>
  </outline>
</glyph>
<glyph name="b" format="1">
  <advance width="548.955155234092"/>
  <unicode hex="0062"/>
  <outline>
    <contour>
      <point x="472" y="212" type="curve" smooth="yes"/>
      <point x="479" y="263" type="line" smooth="yes"/>
      <point x="497" y="395"/>
      <point x="450" y="497"/>
      <point x="349" y="497" type="curve" smooth="yes"/>
      <point x="292" y="497"/>
      <point x="234" y="468"/>
      <point x="179" y="399" type="curve"/>
      <point x="240" y="740" type="line"/>
      <point x="180" y="740" type="line"/>
      <point x="58" y="51" type="line"/>
      <point x="119" y="12"/>
      <point x="181" y="-10"/>
      <point x="246" y="-10" type="curve" smooth="yes"/>
      <point x="372" y="-10"/>
      <point x="453" y="72"/>
    </contour>
    <contour>
      <point x="339" y="444" type="curve" smooth="yes"/>
      <point x="404" y="444"/>
      <point x="431" y="374"/>
      <point x="416" y="263" type="curve" smooth="yes"/>
      <point x="409" y="212" type="line" smooth="yes"/>
      <point x="395" y="109"/>
      <point x="343" y="45"/>
      <point x="244" y="45" type="curve" smooth="yes"/>
      <point x="204" y="45"/>
      <point x="165" y="56"/>
      <point x="122" y="78" type="curve"/>
      <point x="163" y="307" type="line"/>
      <point x="228" y="409"/>
      <point x="291" y="444"/>
    </contour>
  </outline>
</glyph>
<glyph name="c" format="1">
  <advance width="451.82611434724765"/>
  <unicode hex="0063"/>
  <outline>
    <contour>
      <point x="290" y="442" type="curve" smooth="yes"/>
      <point x="328" y="442"/>
      <point x="369" y="427"/>
      <point x="411" y="407" type="curve"/>
      <point x="434" y="457" type="line"/>
      <point x="388" y="482"/>
      <point x="336" y="497"/>
      <point x="287" y="497" type="curve" smooth="yes"/>
      <point x="172" y="497"/>
      <point x="97" y="410"/>
      <point x="77" y="284" type="curve" smooth="yes"/>
      <point x="69" y="234" type="line" smooth="yes"/>
      <point x="48" y="101"/>
      <point x="87" y="-10"/>
      <point x="239" y="-10" type="curve" smooth="yes"/>
      <point x="284" y="-10"/>
      <point x="333" y="1"/>
      <point x="378" y="18" type="curve"/>
      <point x="367" y="70" type="line"/>
      <point x="324" y="55"/>
      <point x="279" y="45"/>
      <point x="242" y="45" type="curve" smooth="yes"/>
      <point x="133" y="45"/>
      <point x="114" y="131"/>
      <point x="130" y="234" type="curve" smooth="yes"/>
      <point x="138" y="284" type="line" smooth="yes"/>
      <point x="154" y="383"/>
      <point x="208" y="442"/>
    </contour>
  </outline>
</glyph>
<glyph name="d" format="1">
  <advance width="552.5180342757359"/>
  <unicode hex="0064"/>
  <outline>
    <contour>
      <point x="357" y="0" type="line"/>
      <point x="414" y="0" type="line"/>
      <point x="545" y="740" type="line"/>
      <point x="485" y="740" type="line"/>
      <point x="436" y="464" type="line"/>
      <point x="393" y="485"/>
      <point x="349" y="497"/>
      <point x="303" y="497" type="curve" smooth="yes"/>
      <point x="177" y="497"/>
      <point x="96" y="415"/>
      <point x="77" y="275" type="curve" smooth="yes"/>
      <point x="70" y="224" type="line" smooth="yes"/>
      <point x="52" y="92"/>
      <point x="99" y="-10"/>
      <point x="200" y="-10" type="curve" smooth="yes"/>
      <point x="258" y="-10"/>
      <point x="318" y="21"/>
      <point x="373" y="93" type="curve"/>
    </contour>
    <contour>
      <point x="133" y="224" type="curve" smooth="yes"/>
      <point x="140" y="275" type="line" smooth="yes"/>
      <point x="154" y="378"/>
      <point x="206" y="442"/>
      <point x="305" y="442" type="curve" smooth="yes"/>
      <point x="345" y="442"/>
      <point x="384" y="431"/>
      <point x="427" y="409" type="curve"/>
      <point x="386" y="180" type="line"/>
      <point x="321" y="78"/>
      <point x="258" y="43"/>
      <point x="210" y="43" type="curve" smooth="yes"/>
      <point x="145" y="43"/>
      <point x="118" y="113"/>
    </contour>
  </outline>
</glyph>
<glyph name="e" format="1">
  <advance width="494.52539892666016"/>
  <unicode hex="0065"/>
  <outline>
    <contour>
      <point x="400" y="18" type="curve"/>
      <point x="389" y="70" type="line"/>
      <point x="344" y="54"/>
      <point x="294" y="45"/>
      <point x="253" y="45" type="curve" smooth="yes"/>
      <point x="136" y="45"/>
      <point x="115" y="127"/>
      <point x="129" y="226" type="curve"/>
      <point x="419" y="226" type="line"/>
      <point x="449" y="279"/>
      <point x="457" y="322"/>
      <point x="457" y="357" type="curve" smooth="yes"/>
      <point x="457" y="452"/>
      <point x="382" y="497"/>
      <point x="296" y="497" type="curve" smooth="yes"/>
      <point x="175" y="497"/>
      <point x="97" y="410"/>
      <point x="77" y="284" type="curve" smooth="yes"/>
      <point x="69" y="234" type="line" smooth="yes"/>
      <point x="48" y="101"/>
      <point x="88" y="-10"/>
      <point x="250" y="-10" type="curve" smooth="yes"/>
      <point x="299" y="-10"/>
      <point x="353" y="0"/>
    </contour>
    <contour>
      <point x="138" y="284" type="line" smooth="yes"/>
      <point x="154" y="383"/>
      <point x="211" y="442"/>
      <point x="294" y="442" type="curve" smooth="yes"/>
      <point x="351" y="442"/>
      <point x="398" y="415"/>
      <point x="398" y="354" type="curve" smooth="yes"/>
      <point x="398" y="333"/>
      <point x="394" y="306"/>
      <point x="378" y="279" type="curve"/>
      <point x="137" y="279" type="line"/>
    </contour>
  </outline>
</glyph>
<glyph name="f" format="1">
  <advance width="330.0445738899052"/>
  <unicode hex="0066"/>
  <outline>
    <contour>
      <point x="367" y="434" type="line"/>
      <point x="376" y="487" type="line"/>
      <point x="211" y="487" type="line"/>
      <point x="229" y="590" type="line" smooth="yes"/>
      <point x="242" y="663"/>
      <point x="281" y="697"/>
      <point x="340" y="697" type="curve" smooth="yes"/>
      <point x="366" y="697"/>
      <point x="393" y="690"/>
      <point x="425" y="675" type="curve"/>
      <point x="451" y="720" type="line"/>
      <point x="414" y="741"/>
      <point x="372" y="750"/>
      <point x="336" y="750" type="curve" smooth="yes"/>
      <point x="228" y="750"/>
      <point x="184" y="676"/>
      <point x="169" y="589" type="curve" smooth="yes"/>
      <point x="151" y="487" type="line"/>
      <point x="62" y="487" type="line"/>
      <point x="53" y="434" type="line"/>
      <point x="142" y="434" type="line"/>
      <point x="65" y="0" type="line"/>
      <point x="125" y="0" type="line"/>
      <point x="202" y="434" type="line"/>
    </contour>
  </outline>
</glyph>
<glyph name="g" format="1">
  <advance width="550.1214364111092"/>
  <unicode hex="0067"/>
  <outline>
    <contour>
      <point x="414" y="0" type="curve" smooth="yes"/>
      <point x="491" y="436" type="line"/>
      <point x="430" y="475"/>
      <point x="368" y="497"/>
      <point x="303" y="497" type="curve" smooth="yes"/>
      <point x="177" y="497"/>
      <point x="96" y="415"/>
      <point x="77" y="275" type="curve" smooth="yes"/>
      <point x="70" y="224" type="line" smooth="yes"/>
      <point x="52" y="92"/>
      <point x="99" y="-10"/>
      <point x="200" y="-10" type="curve" smooth="yes"/>
      <point x="257" y="-10"/>
      <point x="315" y="19"/>
      <point x="370" y="88" type="curve"/>
      <point x="354" y="0" type="line" smooth="yes"/>
      <point x="335" y="-107"/>
      <point x="307" y="-168"/>
      <point x="183" y="-168" type="curve" smooth="yes"/>
      <point x="135" y="-168"/>
      <point x="95" y="-159"/>
      <point x="51" y="-139" type="curve"/>
      <point x="33" y="-190" type="line"/>
      <point x="81" y="-212"/>
      <point x="129" y="-223"/>
      <point x="185" y="-223" type="curve" smooth="yes"/>
      <point x="355" y="-223"/>
      <point x="393" y="-118"/>
    </contour>
    <contour>
      <point x="133" y="224" type="curve" smooth="yes"/>
      <point x="140" y="275" type="line" smooth="yes"/>
      <point x="154" y="378"/>
      <point x="206" y="442"/>
      <point x="305" y="442" type="curve" smooth="yes"/>
      <point x="345" y="442"/>
      <point x="384" y="431"/>
      <point x="427" y="409" type="curve"/>
      <point x="386" y="180" type="line"/>
      <point x="321" y="78"/>
      <point x="258" y="43"/>
      <point x="210" y="43" type="curve" smooth="yes"/>
      <point x="145" y="43"/>
      <point x="118" y="113"/>
    </contour>
  </outline>
</glyph>
<glyph name="h" format="1">
  <advance width="563.3410773083319"/>
  <unicode hex="0068"/>
  <outline>
    <contour>
      <point x="362" y="440" type="curve" smooth="yes"/>
      <point x="417" y="440"/>
      <point x="441" y="399"/>
      <point x="426" y="316" type="curve" smooth="yes"/>
      <point x="370" y="0" type="line"/>
      <point x="430" y="0" type="line"/>
      <point x="488" y="327" type="line" smooth="yes"/>
      <point x="506" y="431"/>
      <point x="458" y="497"/>
      <point x="372" y="497" type="curve" smooth="yes"/>
      <point x="323" y="497"/>
      <point x="260" y="479"/>
      <point x="182" y="397" type="curve"/>
      <point x="242" y="740" type="line"/>
      <point x="182" y="740" type="line"/>
      <point x="52" y="0" type="line"/>
      <point x="112" y="0" type="line"/>
      <point x="168" y="319" type="line"/>
      <point x="256" y="420"/>
      <point x="318" y="440"/>
    </contour>
  </outline>
</glyph>
<glyph name="i" format="1">
  <advance width="251.61931007650094"/>
  <unicode hex="0069"/>
  <outline>
    <contour>
      <point x="230" y="626" type="line"/>
      <point x="242" y="699" type="line"/>
      <point x="169" y="699" type="line"/>
      <point x="157" y="626" type="line"/>
    </contour>
    <contour>
      <point x="112" y="0" type="line"/>
      <point x="198" y="487" type="line"/>
      <point x="138" y="487" type="line"/>
      <point x="52" y="0" type="line"/>
    </contour>
  </outline>
</glyph>
<glyph name="j" format="1">
  <advance width="250.61931007650094"/>
  <unicode hex="006A"/>
  <outline>
    <contour>
      <point x="229" y="626" type="line"/>
      <point x="241" y="699" type="line"/>
      <point x="168" y="699" type="line"/>
      <point x="156" y="626" type="line"/>
    </contour>
    <contour>
      <point x="-100" y="-223" type="line"/>
      <point x="38" y="-223"/>
      <point x="85" y="-154"/>
      <point x="106" y="-37" type="curve" smooth="yes"/>
      <point x="198" y="487" type="line"/>
      <point x="138" y="487" type="line"/>
      <point x="45" y="-37" type="line" smooth="yes"/>
      <point x="27" y="-141"/>
      <point x="-16" y="-166"/>
      <point x="-90" y="-166" type="curve"/>
    </contour>
  </outline>
</glyph>
<glyph name="k" format="1">
  <advance width="493.0"/>
  <unicode hex="006B"/>
  <outline>
    <contour>
      <point x="358" y="0" type="line"/>
      <point x="427" y="0" type="line"/>
      <point x="299" y="276" type="line"/>
      <point x="370" y="341"/>
      <point x="432" y="405"/>
      <point x="496" y="487" type="curve"/>
      <point x="424" y="487" type="line"/>
      <point x="348" y="387"/>
      <point x="258" y="306"/>
      <point x="151" y="220" type="curve"/>
      <point x="242" y="740" type="line"/>
      <point x="182" y="740" type="line"/>
      <point x="52" y="0" type="line"/>
      <point x="112" y="0" type="line"/>
      <point x="139" y="153" type="line"/>
      <point x="179" y="183"/>
      <point x="217" y="210"/>
      <point x="252" y="240" type="curve"/>
    </contour>
  </outline>
</glyph>
<glyph name="l" format="1">
  <advance width="256"/>
  <unicode hex="006C"/>
  <outline>
    <contour>
      <point x="71" y="110" type="line" smooth="yes"/>
      <point x="58" y="34"/>
      <point x="82" y="-5"/>
      <point x="158" y="-5" type="curve" smooth="yes"/>
      <point x="174" y="-5" type="line"/>
      <point x="184" y="50" type="line"/>
      <point x="168" y="50" type="line" smooth="yes"/>
      <point x="127" y="50"/>
      <point x="123" y="64"/>
      <point x="132" y="112" type="curve" smooth="yes"/>
      <point x="242" y="740" type="line"/>
      <point x="182" y="740" type="line"/>
    </contour>
  </outline>
</glyph>
<glyph name="m" format="1">
  <advance width="862.3410773083319"/>
  <unicode hex="006D"/>
  <outline>
    <contour>
      <point x="357" y="440" type="curve" smooth="yes"/>
      <point x="407" y="440"/>
      <point x="431" y="399"/>
      <point x="416" y="316" type="curve" smooth="yes"/>
      <point x="360" y="0" type="line"/>
      <point x="420" y="0" type="line"/>
      <point x="476" y="318" type="line"/>
      <point x="564" y="419"/>
      <point x="623" y="440"/>
      <point x="666" y="440" type="curve" smooth="yes"/>
      <point x="716" y="440"/>
      <point x="740" y="399"/>
      <point x="725" y="316" type="curve" smooth="yes"/>
      <point x="669" y="0" type="line"/>
      <point x="729" y="0" type="line"/>
      <point x="787" y="327" type="line" smooth="yes"/>
      <point x="805" y="431"/>
      <point x="759" y="497"/>
      <point x="676" y="497" type="curve" smooth="yes"/>
      <point x="625" y="497"/>
      <point x="561" y="478"/>
      <point x="481" y="391" type="curve"/>
      <point x="473" y="457"/>
      <point x="431" y="497"/>
      <point x="367" y="497" type="curve" smooth="yes"/>
      <point x="318" y="497"/>
      <point x="257" y="478"/>
      <point x="179" y="394" type="curve"/>
      <point x="195" y="487" type="line"/>
      <point x="138" y="487" type="line"/>
      <point x="52" y="0" type="line"/>
      <point x="112" y="0" type="line"/>
      <point x="168" y="318" type="line"/>
      <point x="255" y="419"/>
      <point x="314" y="440"/>
    </contour>
  </outline>
</glyph>
<glyph name="n" format="1">
  <advance width="563.341222453983"/>
  <unicode hex="006E"/>
  <outline>
    <contour>
      <point x="362" y="440" type="curve" smooth="yes"/>
      <point x="417" y="440"/>
      <point x="441" y="399"/>
      <point x="426" y="316" type="curve" smooth="yes"/>
      <point x="370" y="0" type="line"/>
      <point x="430" y="0" type="line"/>
      <point x="488" y="327" type="line" smooth="yes"/>
      <point x="506" y="431"/>
      <point x="458" y="497"/>
      <point x="372" y="497" type="curve" smooth="yes"/>
      <point x="322" y="497"/>
      <point x="258" y="479"/>
      <point x="178" y="393" type="curve"/>
      <point x="195" y="487" type="line"/>
      <point x="138" y="487" type="line"/>
      <point x="52" y="0" type="line"/>
      <point x="112" y="0" type="line"/>
      <point x="168" y="319" type="line"/>
      <point x="256" y="420"/>
      <point x="318" y="440"/>
    </contour>
  </outline>
</glyph>
<glyph name="o" format="1">
  <advance width="542"/>
  <unicode hex="006F"/>
  <outline>
    <contour>
      <point x="475" y="254" type="line" smooth="yes"/>
      <point x="497" y="388"/>
      <point x="439" y="497"/>
      <point x="297" y="497" type="curve" smooth="yes"/>
      <point x="172" y="497"/>
      <point x="96" y="416"/>
      <point x="75" y="284" type="curve" smooth="yes"/>
      <point x="67" y="234" type="line" smooth="yes"/>
      <point x="45" y="94"/>
      <point x="104" y="-10"/>
      <point x="244" y="-10" type="curve" smooth="yes"/>
      <point x="368" y="-10"/>
      <point x="445" y="65"/>
      <point x="467" y="204" type="curve" smooth="yes"/>
    </contour>
    <contour>
      <point x="412" y="254" type="curve" smooth="yes"/>
      <point x="404" y="204" type="line" smooth="yes"/>
      <point x="387" y="100"/>
      <point x="333" y="45"/>
      <point x="243" y="45" type="curve" smooth="yes"/>
      <point x="151" y="45"/>
      <point x="112" y="121"/>
      <point x="130" y="234" type="curve" smooth="yes"/>
      <point x="138" y="284" type="line" smooth="yes"/>
      <point x="154" y="383"/>
      <point x="209" y="442"/>
      <point x="298" y="442" type="curve" smooth="yes"/>
      <point x="391" y="442"/>
      <point x="429" y="362"/>
    </contour>
  </outline>
</glyph>
<glyph name="p" format="1">
  <advance width="551.955155234092"/>
  <unicode hex="0070"/>
  <outline>
    <contour>
      <point x="249" y="-10" type="curve" smooth="yes"/>
      <point x="375" y="-10"/>
      <point x="456" y="72"/>
      <point x="475" y="212" type="curve" smooth="yes"/>
      <point x="482" y="263" type="line" smooth="yes"/>
      <point x="500" y="395"/>
      <point x="453" y="497"/>
      <point x="352" y="497" type="curve" smooth="yes"/>
      <point x="294" y="497"/>
      <point x="234" y="466"/>
      <point x="179" y="394" type="curve"/>
      <point x="195" y="487" type="line"/>
      <point x="138" y="487" type="line"/>
      <point x="14" y="-213" type="line"/>
      <point x="74" y="-213" type="line"/>
      <point x="116" y="23" type="line"/>
      <point x="159" y="2"/>
      <point x="203" y="-10"/>
    </contour>
    <contour>
      <point x="342" y="444" type="curve" smooth="yes"/>
      <point x="407" y="444"/>
      <point x="434" y="374"/>
      <point x="419" y="263" type="curve" smooth="yes"/>
      <point x="412" y="212" type="line" smooth="yes"/>
      <point x="398" y="109"/>
      <point x="346" y="45"/>
      <point x="247" y="45" type="curve" smooth="yes"/>
      <point x="207" y="45"/>
      <point x="168" y="56"/>
      <point x="125" y="78" type="curve"/>
      <point x="166" y="307" type="line"/>
      <point x="231" y="409"/>
      <point x="294" y="444"/>
    </contour>
  </outline>
</glyph>
<glyph name="q" format="1">
  <advance width="550"/>
  <unicode hex="0071"/>
  <outline>
    <contour>
      <point x="491" y="436" type="line"/>
      <point x="430" y="475"/>
      <point x="368" y="497"/>
      <point x="303" y="497" type="curve" smooth="yes"/>
      <point x="177" y="497"/>
      <point x="96" y="415"/>
      <point x="77" y="275" type="curve" smooth="yes"/>
      <point x="70" y="224" type="line" smooth="yes"/>
      <point x="52" y="92"/>
      <point x="99" y="-10"/>
      <point x="200" y="-10" type="curve" smooth="yes"/>
      <point x="257" y="-10"/>
      <point x="315" y="19"/>
      <point x="370" y="88" type="curve"/>
      <point x="316" y="-213" type="line"/>
      <point x="376" y="-213" type="line"/>
    </contour>
    <contour>
      <point x="133" y="224" type="curve" smooth="yes"/>
      <point x="140" y="275" type="line" smooth="yes"/>
      <point x="154" y="378"/>
      <point x="206" y="442"/>
      <point x="305" y="442" type="curve" smooth="yes"/>
      <point x="345" y="442"/>
      <point x="384" y="431"/>
      <point x="427" y="409" type="curve"/>
      <point x="386" y="180" type="line"/>
      <point x="321" y="78"/>
      <point x="258" y="43"/>
      <point x="210" y="43" type="curve" smooth="yes"/>
      <point x="145" y="43"/>
      <point x="118" y="113"/>
    </contour>
  </outline>
</glyph>
<glyph name="r" format="1">
  <advance width="354.3654905878929"/>
  <unicode hex="0072"/>
  <outline>
    <contour>
      <point x="371" y="436" type="curve"/>
      <point x="382" y="497" type="line"/>
      <point x="329" y="497"/>
      <point x="251" y="478"/>
      <point x="178" y="389" type="curve"/>
      <point x="195" y="487" type="line"/>
      <point x="138" y="487" type="line"/>
      <point x="52" y="0" type="line"/>
      <point x="112" y="0" type="line"/>
      <point x="166" y="309" type="line"/>
      <point x="237" y="417"/>
      <point x="322" y="436"/>
    </contour>
  </outline>
</glyph>
<glyph name="s" format="1">
  <advance width="415.03554304542"/>
  <unicode hex="0073"/>
  <outline>
    <contour>
      <point x="162" y="45" type="curve" smooth="yes"/>
      <point x="116" y="45"/>
      <point x="72" y="55"/>
      <point x="24" y="76" type="curve"/>
      <point x="5" y="25" type="line"/>
      <point x="57" y="2"/>
      <point x="109" y="-10"/>
      <point x="163" y="-10" type="curve" smooth="yes"/>
      <point x="301" y="-10"/>
      <point x="347" y="69"/>
      <point x="347" y="138" type="curve" smooth="yes"/>
      <point x="347" y="204"/>
      <point x="307" y="239"/>
      <point x="239" y="266" type="curve" smooth="yes"/>
      <point x="194" y="284" type="line" smooth="yes"/>
      <point x="143" y="304"/>
      <point x="127" y="328"/>
      <point x="127" y="362" type="curve" smooth="yes"/>
      <point x="127" y="414"/>
      <point x="162" y="442"/>
      <point x="232" y="442" type="curve" smooth="yes"/>
      <point x="276" y="442"/>
      <point x="317" y="433"/>
      <point x="364" y="410" type="curve"/>
      <point x="383" y="461" type="line"/>
      <point x="332" y="486"/>
      <point x="283" y="497"/>
      <point x="232" y="497" type="curve" smooth="yes"/>
      <point x="110" y="497"/>
      <point x="67" y="429"/>
      <point x="67" y="357" type="curve" smooth="yes"/>
      <point x="67" y="295"/>
      <point x="102" y="259"/>
      <point x="165" y="233" type="curve" smooth="yes"/>
      <point x="209" y="215" type="line" smooth="yes"/>
      <point x="265" y="192"/>
      <point x="286" y="171"/>
      <point x="286" y="131" type="curve" smooth="yes"/>
      <point x="286" y="83"/>
      <point x="253" y="45"/>
    </contour>
  </outline>
</glyph>
<glyph name="t" format="1">
  <advance width="370.2971334051222"/>
  <unicode hex="0074"/>
  <outline>
    <contour>
      <point x="306" y="21" type="curve"/>
      <point x="287" y="69" type="line"/>
      <point x="250" y="50"/>
      <point x="218" y="43"/>
      <point x="195" y="43" type="curve" smooth="yes"/>
      <point x="158" y="43"/>
      <point x="134" y="66"/>
      <point x="146" y="134" type="curve" smooth="yes"/>
      <point x="199" y="434" type="line"/>
      <point x="364" y="434" type="line"/>
      <point x="373" y="487" type="line"/>
      <point x="208" y="487" type="line"/>
      <point x="233" y="629" type="line"/>
      <point x="173" y="629" type="line"/>
      <point x="148" y="487" type="line"/>
      <point x="59" y="487" type="line"/>
      <point x="50" y="434" type="line"/>
      <point x="139" y="434" type="line"/>
      <point x="86" y="135" type="line" smooth="yes"/>
      <point x="73" y="61"/>
      <point x="98" y="-10"/>
      <point x="186" y="-10" type="curve" smooth="yes"/>
      <point x="224" y="-10"/>
      <point x="265" y="2"/>
    </contour>
  </outline>
</glyph>
<glyph name="u" format="1">
  <advance width="553.1287603949776"/>
  <unicode hex="0075"/>
  <outline>
    <contour>
      <point x="358" y="0" type="line"/>
      <point x="415" y="0" type="line"/>
      <point x="501" y="487" type="line"/>
      <point x="441" y="487" type="line"/>
      <point x="385" y="169" type="line"/>
      <point x="298" y="68"/>
      <point x="239" y="47"/>
      <point x="196" y="47" type="curve" smooth="yes"/>
      <point x="146" y="47"/>
      <point x="122" y="88"/>
      <point x="137" y="171" type="curve" smooth="yes"/>
      <point x="193" y="487" type="line"/>
      <point x="133" y="487" type="line"/>
      <point x="75" y="160" type="line" smooth="yes"/>
      <point x="57" y="56"/>
      <point x="103" y="-10"/>
      <point x="186" y="-10" type="curve" smooth="yes"/>
      <point x="235" y="-10"/>
      <point x="296" y="9"/>
      <point x="374" y="93" type="curve"/>
    </contour>
  </outline>
</glyph>
<glyph name="v" format="1">
  <advance width="454"/>
  <unicode hex="0076"/>
  <outline>
    <contour>
      <point x="472" y="487" type="line"/>
      <point x="409" y="487" type="line"/>
      <point x="288" y="254" type="line"/>
      <point x="196" y="75" type="line"/>
      <point x="168" y="254" type="line"/>
      <point x="128" y="487" type="line"/>
      <point x="68" y="487" type="line"/>
      <point x="157" y="0" type="line"/>
      <point x="214" y="0" type="line"/>
    </contour>
  </outline>
</glyph>
<glyph name="w" format="1">
  <advance width="703"/>
  <unicode hex="0077"/>
  <outline>
    <contour>
      <point x="712" y="487" type="line"/>
      <point x="648" y="487" type="line"/>
      <point x="561" y="276" type="line"/>
      <point x="472" y="62" type="line"/>
      <point x="428" y="487" type="line"/>
      <point x="359" y="487" type="line"/>
      <point x="164" y="64" type="line"/>
      <point x="150" y="276" type="line"/>
      <point x="136" y="487" type="line"/>
      <point x="77" y="487" type="line"/>
      <point x="115" y="0" type="line"/>
      <point x="190" y="0" type="line"/>
      <point x="383" y="421" type="line"/>
      <point x="426" y="0" type="line"/>
      <point x="501" y="0" type="line"/>
    </contour>
  </outline>
</glyph>
<glyph name="x" format="1">
  <advance width="443.0"/>
  <unicode hex="0078"/>
  <outline>
    <contour>
      <point x="310" y="0" type="line"/>
      <point x="373" y="0" type="line"/>
      <point x="256" y="251" type="line"/>
      <point x="449" y="487" type="line"/>
      <point x="383" y="487" type="line"/>
      <point x="231" y="300" type="line"/>
      <point x="144" y="487" type="line"/>
      <point x="81" y="487" type="line"/>
      <point x="190" y="254" type="line"/>
      <point x="-18" y="0" type="line"/>
      <point x="48" y="0" type="line"/>
      <point x="214" y="205" type="line"/>
    </contour>
  </outline>
</glyph>
<glyph name="y" format="1">
  <advance width="455"/>
  <unicode hex="0079"/>
  <outline>
    <contour>
      <point x="188" y="-50" type="curve" smooth="yes"/>
      <point x="215" y="0" type="line"/>
      <point x="473" y="487" type="line"/>
      <point x="409" y="487" type="line"/>
      <point x="288" y="254" type="line"/>
      <point x="197" y="73" type="line"/>
      <point x="168" y="254" type="line"/>
      <point x="128" y="487" type="line"/>
      <point x="68" y="487" type="line"/>
      <point x="156" y="3" type="line"/>
      <point x="138" y="-30" type="line" smooth="yes"/>
      <point x="69" y="-153"/>
      <point x="35" y="-166"/>
      <point x="-29" y="-166" type="curve"/>
      <point x="-39" y="-223" type="line"/>
      <point x="65" y="-223"/>
      <point x="118" y="-180"/>
    </contour>
  </outline>
</glyph>
<glyph name="z" format="1">
  <advance width="399"/>
  <unicode hex="007A"/>
  <outline>
    <contour>
      <point x="333" y="53" type="line"/>
      <point x="74" y="53" type="line"/>
      <point x="391" y="439" type="line"/>
      <point x="400" y="487" type="line"/>
      <point x="88" y="487" type="line"/>
      <point x="79" y="434" type="line"/>
      <point x="318" y="434" type="line"/>
      <point x="0" y="48" type="line"/>
      <point x="-8" y="0" type="line"/>
      <point x="324" y="0" type="line"/>
    </contour>
  </outline>
</glyph>
<glyph name="braceleft" format="1">
  <advance width="375"/>
  <unicode hex="007B"/>
  <outline>
    <contour>
      <point x="312" y="-91" type="line"/>
      <point x="227" y="-91" type="line" smooth="yes"/>
      <point x="150" y="-91"/>
      <point x="140" y="-41"/>
      <point x="163" y="22" type="curve" smooth="yes"/>
      <point x="202" y="128" type="line" smooth="yes"/>
      <point x="234" y="218"/>
      <point x="228" y="274"/>
      <point x="182" y="295" type="curve"/>
      <point x="239" y="315"/>
      <point x="263" y="374"/>
      <point x="262" y="468" type="curve" smooth="yes"/>
      <point x="260" y="574" type="line" smooth="yes"/>
      <point x="259" y="637"/>
      <point x="287" y="687"/>
      <point x="364" y="687" type="curve" smooth="yes"/>
      <point x="449" y="687" type="line"/>
      <point x="458" y="740" type="line"/>
      <point x="361" y="740" type="line" smooth="yes"/>
      <point x="246" y="740"/>
      <point x="197" y="681"/>
      <point x="199" y="555" type="curve" smooth="yes"/>
      <point x="200" y="449" type="line" smooth="yes"/>
      <point x="201" y="376"/>
      <point x="183" y="325"/>
      <point x="108" y="325" type="curve" smooth="yes"/>
      <point x="35" y="325" type="line"/>
      <point x="26" y="272" type="line"/>
      <point x="99" y="272" type="line" smooth="yes"/>
      <point x="174" y="272"/>
      <point x="174" y="221"/>
      <point x="147" y="147" type="curve" smooth="yes"/>
      <point x="108" y="41" type="line" smooth="yes"/>
      <point x="69" y="-66"/>
      <point x="99" y="-144"/>
      <point x="225" y="-144" type="curve" smooth="yes"/>
      <point x="303" y="-144" type="line"/>
    </contour>
  </outline>
</glyph>
<glyph name="bar" format="1">
  <advance width="290"/>
  <unicode hex="007C"/>
  <outline>
    <contour>
      <point x="202" y="740" type="line"/>
      <point x="34" y="-213" type="line"/>
      <point x="94" y="-213" type="line"/>
      <point x="262" y="740" type="line"/>
    </contour>
  </outline>
</glyph>
<glyph name="braceright" format="1">
  <advance width="375.21538822800596"/>
  <unicode hex="007D"/>
  <outline>
    <contour>
      <point x="195" y="41" type="curve" smooth="yes"/>
      <point x="194" y="147" type="line" smooth="yes"/>
      <point x="193" y="220"/>
      <point x="211" y="271"/>
      <point x="286" y="271" type="curve" smooth="yes"/>
      <point x="359" y="271" type="line"/>
      <point x="368" y="324" type="line"/>
      <point x="295" y="324" type="line" smooth="yes"/>
      <point x="220" y="324"/>
      <point x="220" y="375"/>
      <point x="247" y="449" type="curve" smooth="yes"/>
      <point x="286" y="555" type="line" smooth="yes"/>
      <point x="325" y="662"/>
      <point x="295" y="740"/>
      <point x="169" y="740" type="curve" smooth="yes"/>
      <point x="91" y="740" type="line"/>
      <point x="82" y="687" type="line"/>
      <point x="167" y="687" type="line" smooth="yes"/>
      <point x="244" y="687"/>
      <point x="254" y="637"/>
      <point x="231" y="574" type="curve" smooth="yes"/>
      <point x="192" y="468" type="line" smooth="yes"/>
      <point x="160" y="378"/>
      <point x="166" y="322"/>
      <point x="212" y="301" type="curve"/>
      <point x="155" y="281"/>
      <point x="131" y="222"/>
      <point x="132" y="128" type="curve" smooth="yes"/>
      <point x="134" y="22" type="line" smooth="yes"/>
      <point x="135" y="-41"/>
      <point x="107" y="-91"/>
      <point x="30" y="-91" type="curve" smooth="yes"/>
      <point x="-55" y="-91" type="line"/>
      <point x="-64" y="-144" type="line"/>
      <point x="33" y="-144" type="line" smooth="yes"/>
      <point x="148" y="-144"/>
      <point x="197" y="-85"/>
    </contour>
  </outline>
</glyph>
<glyph name="asciitilde" format="1">
  <advance width="588"/>
  <unicode hex="007E"/>
  <outline>
    <contour>
      <point x="388" y="208" type="curve" smooth="yes"/>
      <point x="439" y="208"/>
      <point x="491" y="235"/>
      <point x="530" y="350" type="curve"/>
      <point x="482" y="363" type="line"/>
      <point x="451" y="289"/>
      <point x="424" y="261"/>
      <point x="389" y="261" type="curve" smooth="yes"/>
      <point x="319" y="261"/>
      <point x="325" y="377"/>
      <point x="216" y="377" type="curve" smooth="yes"/>
      <point x="165" y="377"/>
      <point x="113" y="351"/>
      <point x="76" y="236" type="curve"/>
      <point x="123" y="223" type="line"/>
      <point x="153" y="297"/>
      <point x="181" y="324"/>
      <point x="215" y="324" type="curve" smooth="yes"/>
      <point x="285" y="324"/>
      <point x="279" y="208"/>
    </contour>
  </outline>
</glyph>
<glyph name="exclamdown" format="1">
  <advance width="280.12876"/>
  <unicode hex="00A1"/>
  <outline>
    <contour>
      <point x="147" y="487" type="line"/>
      <point x="134" y="414" type="line"/>
      <point x="206" y="414" type="line"/>
      <point x="219" y="487" type="line"/>
    </contour>
    <contour>
      <point x="128" y="315" type="line"/>
      <point x="81" y="77" type="line"/>
      <point x="33" y="-193" type="line"/>
      <point x="93" y="-193" type="line"/>
      <point x="141" y="77" type="line"/>
      <point x="178" y="315" type="line"/>
    </contour>
  </outline>
</glyph>
<glyph name="cent" format="1">
  <advance width="442.82611434724765"/>
  <unicode hex="00A2"/>
  <outline>
    <contour>
      <point x="378" y="18" type="curve"/>
      <point x="367" y="70" type="line"/>
      <point x="324" y="55"/>
      <point x="279" y="45"/>
      <point x="242" y="45" type="curve" smooth="yes"/>
      <point x="133" y="45"/>
      <point x="114" y="131"/>
      <point x="130" y="234" type="curve" smooth="yes"/>
      <point x="138" y="284" type="line" smooth="yes"/>
      <point x="154" y="383"/>
      <point x="208" y="442"/>
      <point x="290" y="442" type="curve" smooth="yes"/>
      <point x="328" y="442"/>
      <point x="369" y="427"/>
      <point x="411" y="407" type="curve"/>
      <point x="434" y="457" type="line"/>
      <point x="403" y="474"/>
      <point x="368" y="487"/>
      <point x="334" y="493" type="curve"/>
      <point x="355" y="612" type="line"/>
      <point x="295" y="612" type="line"/>
      <point x="275" y="497" type="line"/>
      <point x="167" y="491"/>
      <point x="96" y="405"/>
      <point x="77" y="284" type="curve" smooth="yes"/>
      <point x="69" y="234" type="line" smooth="yes"/>
      <point x="51" y="118"/>
      <point x="78" y="19"/>
      <point x="186" y="-5" type="curve"/>
      <point x="165" y="-125" type="line"/>
      <point x="225" y="-125" type="line"/>
      <point x="246" y="-10" type="line"/>
      <point x="289" y="-9"/>
      <point x="335" y="2"/>
    </contour>
  </outline>
</glyph>
<glyph name="sterling" format="1">
  <advance width="486"/>
  <unicode hex="00A3"/>
  <outline>
    <contour>
      <point x="427" y="59" type="line"/>
      <point x="134" y="59" type="line"/>
      <point x="208" y="139"/>
      <point x="236" y="202"/>
      <point x="236" y="264" type="curve" smooth="yes"/>
      <point x="236" y="271"/>
      <point x="236" y="278"/>
      <point x="235" y="285" type="curve"/>
      <point x="398" y="285" type="line"/>
      <point x="409" y="344" type="line"/>
      <point x="224" y="344" type="line"/>
      <point x="212" y="389"/>
      <point x="195" y="433"/>
      <point x="195" y="487" type="curve" smooth="yes"/>
      <point x="195" y="577"/>
      <point x="241" y="631"/>
      <point x="340" y="631" type="curve" smooth="yes"/>
      <point x="386" y="631"/>
      <point x="433" y="620"/>
      <point x="487" y="592" type="curve"/>
      <point x="512" y="649" type="line"/>
      <point x="457" y="677"/>
      <point x="398" y="690"/>
      <point x="338" y="690" type="curve" smooth="yes"/>
      <point x="180" y="690"/>
      <point x="127" y="595"/>
      <point x="127" y="490" type="curve" smooth="yes"/>
      <point x="127" y="433"/>
      <point x="142" y="387"/>
      <point x="154" y="344" type="curve"/>
      <point x="85" y="344" type="line"/>
      <point x="74" y="285" type="line"/>
      <point x="166" y="285" type="line"/>
      <point x="167" y="276"/>
      <point x="168" y="268"/>
      <point x="168" y="259" type="curve" smooth="yes"/>
      <point x="168" y="206"/>
      <point x="147" y="158"/>
      <point x="40" y="46" type="curve"/>
      <point x="32" y="0" type="line"/>
      <point x="417" y="0" type="line"/>
    </contour>
  </outline>
</glyph>
<glyph name="currency" format="1">
  <advance width="588"/>
  <unicode hex="00A4"/>
  <outline>
    <contour>
      <point x="521" y="72" type="line"/>
      <point x="444" y="169" type="line"/>
      <point x="480" y="207"/>
      <point x="501" y="260"/>
      <point x="501" y="318" type="curve" smooth="yes"/>
      <point x="501" y="357"/>
      <point x="492" y="390"/>
      <point x="475" y="418" type="curve"/>
      <point x="598" y="525" type="line"/>
      <point x="562" y="565" type="line"/>
      <point x="440" y="459" type="line"/>
      <point x="409" y="483"/>
      <point x="368" y="497"/>
      <point x="321" y="497" type="curve" smooth="yes"/>
      <point x="279" y="497"/>
      <point x="240" y="486"/>
      <point x="208" y="466" type="curve"/>
      <point x="129" y="565" type="line"/>
      <point x="87" y="528" type="line"/>
      <point x="165" y="429" type="line"/>
      <point x="130" y="391"/>
      <point x="110" y="339"/>
      <point x="110" y="282" type="curve" smooth="yes"/>
      <point x="110" y="244"/>
      <point x="119" y="211"/>
      <point x="135" y="184" type="curve"/>
      <point x="10" y="75" type="line"/>
      <point x="46" y="35" type="line"/>
      <point x="170" y="143" type="line"/>
      <point x="201" y="117"/>
      <point x="242" y="103"/>
      <point x="290" y="103" type="curve" smooth="yes"/>
      <point x="331" y="103"/>
      <point x="369" y="114"/>
      <point x="401" y="133" type="curve"/>
      <point x="479" y="35" type="line"/>
    </contour>
    <contour>
      <point x="321" y="447" type="curve" smooth="yes"/>
      <point x="400" y="447"/>
      <point x="446" y="398"/>
      <point x="446" y="317" type="curve" smooth="yes"/>
      <point x="446" y="223"/>
      <point x="382" y="153"/>
      <point x="290" y="153" type="curve" smooth="yes"/>
      <point x="211" y="153"/>
      <point x="165" y="202"/>
      <point x="165" y="283" type="curve" smooth="yes"/>
      <point x="165" y="377"/>
      <point x="229" y="447"/>
    </contour>
  </outline>
</glyph>
<glyph name="yen" format="1">
  <advance width="546"/>
  <unicode hex="00A5"/>
  <outline>
    <contour>
      <point x="294" y="174" type="line"/>
      <point x="487" y="174" type="line"/>
      <point x="497" y="230" type="line"/>
      <point x="304" y="230" type="line"/>
      <point x="311" y="270" type="line"/>
      <point x="363" y="346" type="line"/>
      <point x="517" y="346" type="line"/>
      <point x="527" y="402" type="line"/>
      <point x="401" y="402" type="line"/>
      <point x="590" y="680" type="line"/>
      <point x="518" y="680" type="line"/>
      <point x="288" y="337" type="line"/>
      <point x="177" y="680" type="line"/>
      <point x="110" y="680" type="line"/>
      <point x="202" y="402" type="line"/>
      <point x="76" y="402" type="line"/>
      <point x="66" y="346" type="line"/>
      <point x="221" y="346" type="line"/>
      <point x="246" y="271" type="line"/>
      <point x="239" y="230" type="line"/>
      <point x="46" y="230" type="line"/>
      <point x="36" y="174" type="line"/>
      <point x="229" y="174" type="line"/>
      <point x="198" y="0" type="line"/>
      <point x="263" y="0" type="line"/>
    </contour>
  </outline>
</glyph>
<glyph name="section" format="1">
  <advance width="502"/>
  <unicode hex="00A7"/>
  <outline>
    <contour>
      <point x="388" y="-41" type="curve" smooth="yes"/>
      <point x="388" y="8"/>
      <point x="371" y="45"/>
      <point x="341" y="73" type="curve"/>
      <point x="412" y="104"/>
      <point x="460" y="166"/>
      <point x="460" y="236" type="curve" smooth="yes"/>
      <point x="460" y="314"/>
      <point x="414" y="365"/>
      <point x="340" y="395" type="curve" smooth="yes"/>
      <point x="280" y="419" type="line" smooth="yes"/>
      <point x="213" y="446"/>
      <point x="189" y="473"/>
      <point x="189" y="518" type="curve" smooth="yes"/>
      <point x="189" y="586"/>
      <point x="236" y="633"/>
      <point x="327" y="633" type="curve" smooth="yes"/>
      <point x="377" y="633"/>
      <point x="425" y="621"/>
      <point x="479" y="593" type="curve"/>
      <point x="501" y="650" type="line"/>
      <point x="446" y="678"/>
      <point x="386" y="690"/>
      <point x="327" y="690" type="curve" smooth="yes"/>
      <point x="182" y="690"/>
      <point x="125" y="608"/>
      <point x="125" y="516" type="curve" smooth="yes"/>
      <point x="125" y="470"/>
      <point x="141" y="434"/>
      <point x="176" y="405" type="curve"/>
      <point x="106" y="380"/>
      <point x="45" y="326"/>
      <point x="45" y="239" type="curve" smooth="yes"/>
      <point x="45" y="173"/>
      <point x="81" y="124"/>
      <point x="165" y="91" type="curve" smooth="yes"/>
      <point x="236" y="63" type="line" smooth="yes"/>
      <point x="297" y="39"/>
      <point x="323" y="6"/>
      <point x="323" y="-46" type="curve" smooth="yes"/>
      <point x="323" y="-121"/>
      <point x="265" y="-166"/>
      <point x="162" y="-166" type="curve" smooth="yes"/>
      <point x="110" y="-166"/>
      <point x="56" y="-153"/>
      <point x="-5" y="-123" type="curve"/>
      <point x="-27" y="-180" type="line"/>
      <point x="35" y="-210"/>
      <point x="101" y="-223"/>
      <point x="162" y="-223" type="curve" smooth="yes"/>
      <point x="327" y="-223"/>
      <point x="388" y="-133"/>
    </contour>
    <contour>
      <point x="271" y="115" type="curve" smooth="yes"/>
      <point x="200" y="143" type="line" smooth="yes"/>
      <point x="133" y="169"/>
      <point x="109" y="199"/>
      <point x="109" y="245" type="curve" smooth="yes"/>
      <point x="109" y="308"/>
      <point x="148" y="348"/>
      <point x="229" y="374" type="curve"/>
      <point x="234" y="371"/>
      <point x="239" y="369"/>
      <point x="245" y="367" type="curve" smooth="yes"/>
      <point x="305" y="343" type="line" smooth="yes"/>
      <point x="368" y="318"/>
      <point x="395" y="282"/>
      <point x="395" y="227" type="curve" smooth="yes"/>
      <point x="395" y="169"/>
      <point x="355" y="131"/>
      <point x="293" y="105" type="curve"/>
      <point x="286" y="109"/>
      <point x="279" y="112"/>
    </contour>
  </outline>
</glyph>
<glyph name="dieresis" format="1">
  <advance width="500"/>
  <unicode hex="00A8"/>
  <outline>
    <contour>
      <point x="259" y="627" type="line"/>
      <point x="271" y="698" type="line"/>
      <point x="200" y="698" type="line"/>
      <point x="188" y="627" type="line"/>
    </contour>
    <contour>
      <point x="448" y="627" type="line"/>
      <point x="460" y="698" type="line"/>
      <point x="389" y="698" type="line"/>
      <point x="377" y="627" type="line"/>
    </contour>
  </outline>
</glyph>
<glyph name="copyright" format="1">
  <advance width="844"/>
  <unicode hex="00A9"/>
  <outline>
    <contour>
      <point x="439" y="-37" type="curve" smooth="yes"/>
      <point x="653" y="-37"/>
      <point x="811" y="122"/>
      <point x="811" y="340" type="curve" smooth="yes"/>
      <point x="811" y="558"/>
      <point x="653" y="717"/>
      <point x="439" y="717" type="curve" smooth="yes"/>
      <point x="224" y="717"/>
      <point x="67" y="558"/>
      <point x="67" y="340" type="curve" smooth="yes"/>
      <point x="67" y="122"/>
      <point x="224" y="-37"/>
    </contour>
    <contour>
      <point x="439" y="13" type="curve" smooth="yes"/>
      <point x="256" y="13"/>
      <point x="123" y="149"/>
      <point x="123" y="340" type="curve" smooth="yes"/>
      <point x="123" y="530"/>
      <point x="256" y="667"/>
      <point x="439" y="667" type="curve" smooth="yes"/>
      <point x="622" y="667"/>
      <point x="755" y="530"/>
      <point x="755" y="340" type="curve" smooth="yes"/>
      <point x="755" y="149"/>
      <point x="622" y="13"/>
    </contour>
    <contour>
      <point x="328" y="361" type="line" smooth="yes"/>
      <point x="328" y="453"/>
      <point x="363" y="502"/>
      <point x="443" y="502" type="curve" smooth="yes"/>
      <point x="478" y="502"/>
      <point x="514" y="493"/>
      <point x="551" y="476" type="curve"/>
      <point x="571" y="525" type="line"/>
      <point x="529" y="547"/>
      <point x="481" y="557"/>
      <point x="438" y="557" type="curve" smooth="yes"/>
      <point x="324" y="557"/>
      <point x="265" y="484"/>
      <point x="265" y="361" type="curve" smooth="yes"/>
      <point x="265" y="320" type="line" smooth="yes"/>
      <point x="265" y="196"/>
      <point x="324" y="123"/>
      <point x="438" y="123" type="curve" smooth="yes"/>
      <point x="485" y="123"/>
      <point x="535" y="135"/>
      <point x="580" y="158" type="curve"/>
      <point x="560" y="207" type="line"/>
      <point x="520" y="188"/>
      <point x="481" y="178"/>
      <point x="443" y="178" type="curve" smooth="yes"/>
      <point x="363" y="178"/>
      <point x="328" y="227"/>
      <point x="328" y="320" type="curve" smooth="yes"/>
    </contour>
  </outline>
</glyph>
<glyph name="ordfeminine" format="1">
  <advance width="368.5851314851156"/>
  <unicode hex="00AA"/>
  <outline>
    <contour>
      <point x="346" y="338" type="curve" smooth="yes"/>
      <point x="357" y="338" type="line"/>
      <point x="366" y="388" type="line"/>
      <point x="355" y="388" type="line" smooth="yes"/>
      <point x="333" y="388"/>
      <point x="329" y="403"/>
      <point x="334" y="432" type="curve" smooth="yes"/>
      <point x="371" y="642" type="line"/>
      <point x="328" y="670"/>
      <point x="285" y="685"/>
      <point x="242" y="685" type="curve" smooth="yes"/>
      <point x="156" y="685"/>
      <point x="96" y="625"/>
      <point x="83" y="531" type="curve" smooth="yes"/>
      <point x="78" y="496" type="line" smooth="yes"/>
      <point x="65" y="405"/>
      <point x="99" y="335"/>
      <point x="169" y="335" type="curve" smooth="yes"/>
      <point x="206" y="335"/>
      <point x="243" y="353"/>
      <point x="279" y="397" type="curve"/>
      <point x="281" y="361"/>
      <point x="302" y="338"/>
    </contour>
    <contour>
      <point x="133" y="496" type="curve" smooth="yes"/>
      <point x="138" y="531" type="line" smooth="yes"/>
      <point x="146" y="592"/>
      <point x="182" y="635"/>
      <point x="243" y="635" type="curve" smooth="yes"/>
      <point x="266" y="635"/>
      <point x="289" y="629"/>
      <point x="315" y="617" type="curve"/>
      <point x="288" y="468" type="line"/>
      <point x="245" y="404"/>
      <point x="206" y="383"/>
      <point x="176" y="383" type="curve" smooth="yes"/>
      <point x="139" y="383"/>
      <point x="123" y="427"/>
    </contour>
  </outline>
</glyph>
<glyph name="guillemotleft" format="1">
  <advance width="638"/>
  <unicode hex="00AB"/>
  <outline>
    <contour>
      <point x="283" y="80" type="line"/>
      <point x="101" y="242" type="line"/>
      <point x="340" y="402" type="line"/>
      <point x="353" y="478" type="line"/>
      <point x="40" y="266" type="line"/>
      <point x="33" y="229" type="line"/>
      <point x="271" y="14" type="line"/>
    </contour>
    <contour>
      <point x="553" y="80" type="line"/>
      <point x="371" y="242" type="line"/>
      <point x="610" y="402" type="line"/>
      <point x="623" y="478" type="line"/>
      <point x="310" y="266" type="line"/>
      <point x="303" y="229" type="line"/>
      <point x="541" y="14" type="line"/>
    </contour>
  </outline>
</glyph>
<glyph name="logicalnot" format="1">
  <advance width="588"/>
  <unicode hex="00AC"/>
  <outline>
    <contour>
      <point x="111" y="378" type="line"/>
      <point x="469" y="378" type="line"/>
      <point x="437" y="197" type="line"/>
      <point x="493" y="197" type="line"/>
      <point x="534" y="431" type="line"/>
      <point x="120" y="431" type="line"/>
    </contour>
  </outline>
</glyph>
<glyph name="registered" format="1">
  <advance width="554"/>
  <unicode hex="00AE"/>
  <outline>
    <contour>
      <point x="318" y="241" type="curve" smooth="yes"/>
      <point x="452" y="241"/>
      <point x="552" y="343"/>
      <point x="552" y="479" type="curve" smooth="yes"/>
      <point x="552" y="616"/>
      <point x="452" y="717"/>
      <point x="318" y="717" type="curve" smooth="yes"/>
      <point x="184" y="717"/>
      <point x="84" y="616"/>
      <point x="84" y="479" type="curve" smooth="yes"/>
      <point x="84" y="343"/>
      <point x="184" y="241"/>
    </contour>
    <contour>
      <point x="318" y="284" type="curve" smooth="yes"/>
      <point x="210" y="284"/>
      <point x="131" y="367"/>
      <point x="131" y="479" type="curve" smooth="yes"/>
      <point x="131" y="592"/>
      <point x="210" y="674"/>
      <point x="318" y="674" type="curve" smooth="yes"/>
      <point x="426" y="674"/>
      <point x="505" y="592"/>
      <point x="505" y="479" type="curve" smooth="yes"/>
      <point x="505" y="367"/>
      <point x="426" y="284"/>
    </contour>
    <contour>
      <point x="241" y="353" type="line"/>
      <point x="286" y="353" type="line"/>
      <point x="286" y="443" type="line"/>
      <point x="322" y="443" type="line"/>
      <point x="339" y="414"/>
      <point x="354" y="384"/>
      <point x="367" y="353" type="curve"/>
      <point x="418" y="353" type="line"/>
      <point x="403" y="388"/>
      <point x="386" y="421"/>
      <point x="366" y="452" type="curve"/>
      <point x="390" y="465"/>
      <point x="403" y="488"/>
      <point x="403" y="518" type="curve" smooth="yes"/>
      <point x="403" y="535" type="line" smooth="yes"/>
      <point x="403" y="579"/>
      <point x="374" y="608"/>
      <point x="323" y="608" type="curve" smooth="yes"/>
      <point x="241" y="608" type="line"/>
    </contour>
    <contour>
      <point x="323" y="566" type="line" smooth="yes"/>
      <point x="343" y="566"/>
      <point x="356" y="554"/>
      <point x="356" y="535" type="curve" smooth="yes"/>
      <point x="356" y="518" type="line" smooth="yes"/>
      <point x="356" y="498"/>
      <point x="343" y="486"/>
      <point x="323" y="486" type="curve" smooth="yes"/>
      <point x="286" y="486" type="line"/>
      <point x="286" y="566" type="line"/>
    </contour>
  </outline>
</glyph>
<glyph name="macron" format="1">
  <advance width="500"/>
  <unicode hex="00AF"/>
  <outline>
    <contour>
      <point x="460" y="659" type="line"/>
      <point x="186" y="659" type="line"/>
      <point x="177" y="609" type="line"/>
      <point x="451" y="609" type="line"/>
    </contour>
  </outline>
</glyph>
<glyph name="degree" format="1">
  <advance width="374"/>
  <unicode hex="00B0"/>
  <outline>
    <contour>
      <point x="225" y="366" type="curve" smooth="yes"/>
      <point x="325" y="366"/>
      <point x="397" y="445"/>
      <point x="397" y="544" type="curve" smooth="yes"/>
      <point x="397" y="633"/>
      <point x="338" y="690"/>
      <point x="248" y="690" type="curve" smooth="yes"/>
      <point x="148" y="690"/>
      <point x="76" y="611"/>
      <point x="76" y="512" type="curve" smooth="yes"/>
      <point x="76" y="423"/>
      <point x="135" y="366"/>
    </contour>
    <contour>
      <point x="248" y="638" type="curve" smooth="yes"/>
      <point x="306" y="638"/>
      <point x="340" y="602"/>
      <point x="340" y="543" type="curve" smooth="yes"/>
      <point x="340" y="471"/>
      <point x="293" y="418"/>
      <point x="225" y="418" type="curve" smooth="yes"/>
      <point x="168" y="418"/>
      <point x="133" y="454"/>
      <point x="133" y="513" type="curve" smooth="yes"/>
      <point x="133" y="585"/>
      <point x="180" y="638"/>
    </contour>
  </outline>
</glyph>
<glyph name="plusminus" format="1">
  <advance width="588"/>
  <unicode hex="00B1"/>
  <outline>
    <contour>
      <point x="512" y="308" type="line"/>
      <point x="522" y="361" type="line"/>
      <point x="343" y="361" type="line"/>
      <point x="375" y="546" type="line"/>
      <point x="319" y="546" type="line"/>
      <point x="287" y="361" type="line"/>
      <point x="108" y="361" type="line"/>
      <point x="98" y="308" type="line"/>
      <point x="277" y="308" type="line"/>
      <point x="245" y="123" type="line"/>
      <point x="301" y="123" type="line"/>
      <point x="333" y="308" type="line"/>
    </contour>
    <contour>
      <point x="44" y="0" type="line"/>
      <point x="458" y="0" type="line"/>
      <point x="467" y="53" type="line"/>
      <point x="53" y="53" type="line"/>
    </contour>
  </outline>
</glyph>
<glyph name="mu" format="1">
  <advance width="562"/>
  <unicode hex="00B5"/>
  <outline>
    <contour>
      <point x="90" y="-125" type="line"/>
      <point x="107" y="30" type="line"/>
      <point x="125" y="4"/>
      <point x="154" y="-10"/>
      <point x="191" y="-10" type="curve" smooth="yes"/>
      <point x="240" y="-10"/>
      <point x="301" y="9"/>
      <point x="380" y="94" type="curve"/>
      <point x="376" y="35"/>
      <point x="403" y="-5"/>
      <point x="466" y="-5" type="curve" smooth="yes"/>
      <point x="482" y="-5" type="line"/>
      <point x="492" y="50" type="line"/>
      <point x="476" y="50" type="line" smooth="yes"/>
      <point x="441" y="50"/>
      <point x="433" y="77"/>
      <point x="443" y="131" type="curve" smooth="yes"/>
      <point x="506" y="487" type="line"/>
      <point x="446" y="487" type="line"/>
      <point x="390" y="168" type="line"/>
      <point x="303" y="68"/>
      <point x="244" y="47"/>
      <point x="201" y="47" type="curve" smooth="yes"/>
      <point x="151" y="47"/>
      <point x="127" y="88"/>
      <point x="142" y="171" type="curve" smooth="yes"/>
      <point x="198" y="487" type="line"/>
      <point x="138" y="487" type="line"/>
      <point x="14" y="-213" type="line"/>
      <point x="74" y="-213" type="line"/>
    </contour>
  </outline>
</glyph>
<glyph name="paragraph" format="1">
  <advance width="558"/>
  <unicode hex="00B6"/>
  <outline>
    <contour>
      <point x="93" y="506" type="curve" smooth="yes"/>
      <point x="83" y="453" type="line" smooth="yes"/>
      <point x="63" y="346"/>
      <point x="120" y="260"/>
      <point x="253" y="260" type="curve" smooth="yes"/>
      <point x="309" y="260" type="line"/>
      <point x="373" y="621" type="line"/>
      <point x="444" y="621" type="line"/>
      <point x="310" y="-143" type="line"/>
      <point x="375" y="-143" type="line"/>
      <point x="509" y="621" type="line"/>
      <point x="600" y="621" type="line"/>
      <point x="610" y="680" type="line"/>
      <point x="307" y="680" type="line" smooth="yes"/>
      <point x="183" y="680"/>
      <point x="113" y="614"/>
    </contour>
  </outline>
</glyph>
<glyph name="periodcentered" format="1">
  <advance width="500"/>
  <unicode hex="00B7"/>
  <outline>
    <contour>
      <point x="305" y="348" type="line"/>
      <point x="317" y="421" type="line"/>
      <point x="244" y="421" type="line"/>
      <point x="232" y="348" type="line"/>
    </contour>
  </outline>
</glyph>
<glyph name="cedilla" format="1">
  <advance width="500"/>
  <unicode hex="00B8"/>
  <outline>
    <contour>
      <point x="274" y="-132" type="curve" smooth="yes"/>
      <point x="274" y="-83"/>
      <point x="241" y="-58"/>
      <point x="188" y="-58" type="curve" smooth="yes"/>
      <point x="184" y="-58" type="line"/>
      <point x="206" y="0" type="line"/>
      <point x="158" y="0" type="line"/>
      <point x="135" y="-64" type="line"/>
      <point x="150" y="-106" type="line"/>
      <point x="158" y="-105"/>
      <point x="166" y="-104"/>
      <point x="173" y="-104" type="curve" smooth="yes"/>
      <point x="208" y="-104"/>
      <point x="220" y="-116"/>
      <point x="220" y="-135" type="curve" smooth="yes"/>
      <point x="220" y="-156"/>
      <point x="203" y="-174"/>
      <point x="159" y="-174" type="curve" smooth="yes"/>
      <point x="140" y="-174"/>
      <point x="118" y="-170"/>
      <point x="98" y="-162" type="curve"/>
      <point x="86" y="-208" type="line"/>
      <point x="111" y="-218"/>
      <point x="136" y="-223"/>
      <point x="163" y="-223" type="curve" smooth="yes"/>
      <point x="242" y="-223"/>
      <point x="274" y="-179"/>
    </contour>
  </outline>
</glyph>
<glyph name="ordmasculine" format="1">
  <advance width="352"/>
  <unicode hex="00BA"/>
  <outline>
    <contour>
      <point x="368" y="517" type="line" smooth="yes"/>
      <point x="384" y="609"/>
      <point x="341" y="685"/>
      <point x="241" y="685" type="curve" smooth="yes"/>
      <point x="153" y="685"/>
      <point x="100" y="629"/>
      <point x="84" y="538" type="curve" smooth="yes"/>
      <point x="78" y="503" type="line" smooth="yes"/>
      <point x="62" y="407"/>
      <point x="105" y="335"/>
      <point x="204" y="335" type="curve" smooth="yes"/>
      <point x="292" y="335"/>
      <point x="346" y="386"/>
      <point x="362" y="482" type="curve" smooth="yes"/>
    </contour>
    <contour>
      <point x="313" y="517" type="curve" smooth="yes"/>
      <point x="308" y="482" type="line" smooth="yes"/>
      <point x="299" y="419"/>
      <point x="262" y="385"/>
      <point x="204" y="385" type="curve" smooth="yes"/>
      <point x="146" y="385"/>
      <point x="123" y="432"/>
      <point x="133" y="503" type="curve" smooth="yes"/>
      <point x="138" y="538" type="line" smooth="yes"/>
      <point x="147" y="599"/>
      <point x="184" y="635"/>
      <point x="242" y="635" type="curve" smooth="yes"/>
      <point x="300" y="635"/>
      <point x="323" y="584"/>
    </contour>
  </outline>
</glyph>
<glyph name="guillemotright" format="1">
  <advance width="638"/>
  <unicode hex="00BB"/>
  <outline>
    <contour>
      <point x="329" y="226" type="line"/>
      <point x="336" y="263" type="line"/>
      <point x="98" y="478" type="line"/>
      <point x="86" y="412" type="line"/>
      <point x="268" y="250" type="line"/>
      <point x="29" y="90" type="line"/>
      <point x="16" y="14" type="line"/>
    </contour>
    <contour>
      <point x="599" y="226" type="line"/>
      <point x="606" y="263" type="line"/>
      <point x="368" y="478" type="line"/>
      <point x="356" y="412" type="line"/>
      <point x="538" y="250" type="line"/>
      <point x="299" y="90" type="line"/>
      <point x="286" y="14" type="line"/>
    </contour>
  </outline>
</glyph>
<glyph name="questiondown" format="1">
  <advance width="422.56497087477135"/>
  <unicode hex="00BF"/>
  <outline>
    <contour>
      <point x="247" y="487" type="line"/>
      <point x="234" y="414" type="line"/>
      <point x="306" y="414" type="line"/>
      <point x="319" y="487" type="line"/>
    </contour>
    <contour>
      <point x="173" y="-148" type="curve" smooth="yes"/>
      <point x="93" y="-148"/>
      <point x="52" y="-107"/>
      <point x="64" y="-39" type="curve" smooth="yes"/>
      <point x="67" y="-22" type="line" smooth="yes"/>
      <point x="78" y="39"/>
      <point x="107" y="72"/>
      <point x="141" y="100" type="curve" smooth="yes"/>
      <point x="179" y="132" type="line" smooth="yes"/>
      <point x="244" y="187"/>
      <point x="267" y="215"/>
      <point x="280" y="290" type="curve" smooth="yes"/>
      <point x="285" y="315" type="line"/>
      <point x="225" y="315" type="line"/>
      <point x="220" y="289" type="line" smooth="yes"/>
      <point x="212" y="243"/>
      <point x="198" y="220"/>
      <point x="154" y="182" type="curve" smooth="yes"/>
      <point x="117" y="150" type="line" smooth="yes"/>
      <point x="57" y="98"/>
      <point x="19" y="65"/>
      <point x="6" y="-10" type="curve" smooth="yes"/>
      <point x="3" y="-27" type="line" smooth="yes"/>
      <point x="-14" y="-123"/>
      <point x="41" y="-203"/>
      <point x="174" y="-203" type="curve" smooth="yes"/>
      <point x="227" y="-203"/>
      <point x="290" y="-190"/>
      <point x="354" y="-162" type="curve"/>
      <point x="341" y="-109" type="line"/>
      <point x="275" y="-138"/>
      <point x="220" y="-148"/>
    </contour>
  </outline>
</glyph>
<glyph name="Aring" format="1">
  <advance width="562.0"/>
  <unicode hex="00C5"/>
  <outline>
    <contour>
      <point x="134" y="175" type="line"/>
      <point x="405" y="175" type="line"/>
      <point x="432" y="0" type="line"/>
      <point x="497" y="0" type="line"/>
      <point x="397" y="637" type="line"/>
      <point x="441" y="650"/>
      <point x="471" y="685"/>
      <point x="477" y="732" type="curve" smooth="yes"/>
      <point x="479" y="746" type="line" smooth="yes"/>
      <point x="488" y="807"/>
      <point x="448" y="852"/>
      <point x="379" y="852" type="curve" smooth="yes"/>
      <point x="314" y="852"/>
      <point x="269" y="812"/>
      <point x="261" y="754" type="curve" smooth="yes"/>
      <point x="259" y="740" type="line" smooth="yes"/>
      <point x="253" y="697"/>
      <point x="271" y="661"/>
      <point x="306" y="643" type="curve"/>
      <point x="-21" y="0" type="line"/>
      <point x="46" y="0" type="line"/>
    </contour>
    <contour>
      <point x="428" y="750" type="curve" smooth="yes"/>
      <point x="426" y="736" type="line" smooth="yes"/>
      <point x="421" y="699"/>
      <point x="394" y="680"/>
      <point x="361" y="680" type="curve" smooth="yes"/>
      <point x="325" y="680"/>
      <point x="305" y="702"/>
      <point x="310" y="735" type="curve" smooth="yes"/>
      <point x="312" y="749" type="line" smooth="yes"/>
      <point x="317" y="785"/>
      <point x="344" y="805"/>
      <point x="377" y="805" type="curve" smooth="yes"/>
      <point x="413" y="805"/>
      <point x="432" y="781"/>
    </contour>
    <contour>
      <point x="229" y="363" type="line"/>
      <point x="343" y="593" type="line"/>
      <point x="377" y="363" type="line"/>
      <point x="397" y="233" type="line"/>
      <point x="163" y="233" type="line"/>
    </contour>
  </outline>
</glyph>
<glyph name="AE" format="1">
  <advance width="828.0"/>
  <unicode hex="00C6"/>
  <outline>
    <contour>
      <point x="-38" y="0" type="line"/>
      <point x="37" y="0" type="line"/>
      <point x="164" y="175" type="line"/>
      <point x="403" y="175" type="line"/>
      <point x="372" y="0" type="line"/>
      <point x="742" y="0" type="line"/>
      <point x="752" y="59" type="line"/>
      <point x="447" y="59" type="line"/>
      <point x="493" y="315" type="line"/>
      <point x="758" y="315" type="line"/>
      <point x="768" y="374" type="line"/>
      <point x="503" y="374" type="line"/>
      <point x="546" y="621" type="line"/>
      <point x="841" y="621" type="line"/>
      <point x="852" y="680" type="line"/>
      <point x="459" y="680" type="line"/>
    </contour>
    <contour>
      <point x="206" y="233" type="line"/>
      <point x="480" y="611" type="line"/>
      <point x="413" y="233" type="line"/>
    </contour>
  </outline>
</glyph>
<glyph name="Ccedilla" format="1">
  <advance width="530.8865175594544"/>
  <unicode hex="00C7"/>
  <outline>
    <contour>
      <point x="349" y="-132" type="curve" smooth="yes"/>
      <point x="349" y="-83"/>
      <point x="316" y="-58"/>
      <point x="263" y="-58" type="curve" smooth="yes"/>
      <point x="259" y="-58" type="line"/>
      <point x="277" y="-10" type="line"/>
      <point x="329.0" y="-10.0"/>
      <point x="394" y="-1"/>
      <point x="457" y="26" type="curve"/>
      <point x="439" y="81" type="line"/>
      <point x="377" y="54"/>
      <point x="324" y="49"/>
      <point x="285" y="49" type="curve" smooth="yes"/>
      <point x="176" y="49"/>
      <point x="131" y="127"/>
      <point x="159" y="283" type="curve" smooth="yes"/>
      <point x="183" y="417" type="line" smooth="yes"/>
      <point x="209" y="561"/>
      <point x="273" y="631"/>
      <point x="380" y="631" type="curve" smooth="yes"/>
      <point x="425" y="631"/>
      <point x="473" y="619"/>
      <point x="526" y="591" type="curve"/>
      <point x="548" y="649" type="line"/>
      <point x="494" y="677"/>
      <point x="435" y="690"/>
      <point x="381" y="690" type="curve" smooth="yes"/>
      <point x="225" y="690"/>
      <point x="147" y="596"/>
      <point x="115" y="417" type="curve" smooth="yes"/>
      <point x="91" y="283" type="line" smooth="yes"/>
      <point x="61" y="117"/>
      <point x="116" y="15"/>
      <point x="231" y="-6" type="curve"/>
      <point x="210" y="-64" type="line"/>
      <point x="225" y="-106" type="line"/>
      <point x="233" y="-105"/>
      <point x="241" y="-104"/>
      <point x="248" y="-104" type="curve" smooth="yes"/>
      <point x="283" y="-104"/>
      <point x="295" y="-116"/>
      <point x="295" y="-135" type="curve" smooth="yes"/>
      <point x="295" y="-156"/>
      <point x="278" y="-174"/>
      <point x="234" y="-174" type="curve" smooth="yes"/>
      <point x="215" y="-174"/>
      <point x="193" y="-170"/>
      <point x="173" y="-162" type="curve"/>
      <point x="161" y="-208" type="line"/>
      <point x="186" y="-218"/>
      <point x="211" y="-223"/>
      <point x="238" y="-223" type="curve" smooth="yes"/>
      <point x="317" y="-223"/>
      <point x="349" y="-179"/>
    </contour>
  </outline>
</glyph>
<glyph name="Eth" format="1">
  <advance width="647"/>
  <unicode hex="00D0"/>
  <outline>
    <contour>
      <point x="58" y="374" type="line"/>
      <point x="48" y="315" type="line"/>
      <point x="138" y="315" type="line"/>
      <point x="82" y="0" type="line"/>
      <point x="289" y="0" type="line" smooth="yes"/>
      <point x="437" y="0"/>
      <point x="536" y="98"/>
      <point x="563" y="254" type="curve" smooth="yes"/>
      <point x="588" y="397" type="line" smooth="yes"/>
      <point x="618" y="567"/>
      <point x="539" y="680"/>
      <point x="384" y="680" type="curve" smooth="yes"/>
      <point x="202" y="680" type="line"/>
      <point x="148" y="374" type="line"/>
    </contour>
    <contour>
      <point x="352" y="315" type="line"/>
      <point x="362" y="374" type="line"/>
      <point x="213" y="374" type="line"/>
      <point x="257" y="621" type="line"/>
      <point x="383" y="621" type="line" smooth="yes"/>
      <point x="494" y="621"/>
      <point x="545" y="538"/>
      <point x="520" y="397" type="curve" smooth="yes"/>
      <point x="495" y="254" type="line" smooth="yes"/>
      <point x="474" y="132"/>
      <point x="397" y="59"/>
      <point x="290" y="59" type="curve" smooth="yes"/>
      <point x="157" y="59" type="line"/>
      <point x="203" y="315" type="line"/>
    </contour>
  </outline>
</glyph>
<glyph name="multiply" format="1">
  <advance width="588"/>
  <unicode hex="00D7"/>
  <outline>
    <contour>
      <point x="429" y="104" type="line"/>
      <point x="469" y="139" type="line"/>
      <point x="340" y="293" type="line"/>
      <point x="522" y="449" type="line"/>
      <point x="489" y="489" type="line"/>
      <point x="307" y="332" type="line"/>
      <point x="178" y="487" type="line"/>
      <point x="138" y="451" type="line"/>
      <point x="267" y="297" type="line"/>
      <point x="85" y="141" type="line"/>
      <point x="118" y="102" type="line"/>
      <point x="300" y="258" type="line"/>
    </contour>
  </outline>
</glyph>
<glyph name="Oslash" format="1">
  <advance width="653.215918386961"/>
  <unicode hex="00D8"/>
  <outline>
    <contour>
      <point x="296" y="-10" type="curve" smooth="yes"/>
      <point x="443" y="-10"/>
      <point x="541" y="92"/>
      <point x="569" y="254" type="curve" smooth="yes"/>
      <point x="594" y="397" type="line" smooth="yes"/>
      <point x="609" y="480"/>
      <point x="599" y="550"/>
      <point x="568" y="600" type="curve"/>
      <point x="648" y="710" type="line"/>
      <point x="582" y="710" type="line"/>
      <point x="532" y="642" type="line"/>
      <point x="497" y="673"/>
      <point x="449" y="690"/>
      <point x="390" y="690" type="curve" smooth="yes"/>
      <point x="243" y="690"/>
      <point x="146" y="588"/>
      <point x="118" y="427" type="curve" smooth="yes"/>
      <point x="93" y="284" type="line" smooth="yes"/>
      <point x="78" y="200"/>
      <point x="88" y="130"/>
      <point x="118" y="80" type="curve"/>
      <point x="38" y="-30" type="line"/>
      <point x="104" y="-30" type="line"/>
      <point x="153" y="37" type="line"/>
      <point x="188" y="7"/>
      <point x="237" y="-10"/>
    </contour>
    <contour>
      <point x="161" y="284" type="curve" smooth="yes"/>
      <point x="186" y="427" type="line" smooth="yes"/>
      <point x="209" y="556"/>
      <point x="283" y="631"/>
      <point x="389" y="631" type="curve" smooth="yes"/>
      <point x="434" y="631"/>
      <point x="469" y="617"/>
      <point x="494" y="590" type="curve"/>
      <point x="164" y="142" type="line"/>
      <point x="152" y="179"/>
      <point x="151" y="227"/>
    </contour>
    <contour>
      <point x="526" y="397" type="curve" smooth="yes"/>
      <point x="501" y="254" type="line" smooth="yes"/>
      <point x="479" y="126"/>
      <point x="403" y="49"/>
      <point x="297" y="49" type="curve" smooth="yes"/>
      <point x="252" y="49"/>
      <point x="217" y="64"/>
      <point x="193" y="90" type="curve"/>
      <point x="522" y="539" type="line"/>
      <point x="534" y="502"/>
      <point x="536" y="454"/>
    </contour>
  </outline>
</glyph>
<glyph name="Thorn" format="1">
  <advance width="558"/>
  <unicode hex="00DE"/>
  <outline>
    <contour>
      <point x="308" y="135" type="line" smooth="yes"/>
      <point x="432" y="135"/>
      <point x="502" y="201"/>
      <point x="522" y="309" type="curve" smooth="yes"/>
      <point x="532" y="362" type="line" smooth="yes"/>
      <point x="552" y="469"/>
      <point x="495" y="555"/>
      <point x="362" y="555" type="curve" smooth="yes"/>
      <point x="235" y="555" type="line"/>
      <point x="257" y="680" type="line"/>
      <point x="192" y="680" type="line"/>
      <point x="72" y="0" type="line"/>
      <point x="137" y="0" type="line"/>
      <point x="161" y="135" type="line"/>
    </contour>
    <contour>
      <point x="361" y="496" type="line" smooth="yes"/>
      <point x="443" y="496"/>
      <point x="480" y="445"/>
      <point x="464" y="362" type="curve" smooth="yes"/>
      <point x="454" y="309" type="line" smooth="yes"/>
      <point x="440" y="237"/>
      <point x="390" y="194"/>
      <point x="308" y="194" type="curve" smooth="yes"/>
      <point x="171" y="194" type="line"/>
      <point x="225" y="496" type="line"/>
    </contour>
  </outline>
</glyph>
<glyph name="germandbls" format="1">
  <advance width="596.9914784493777"/>
  <unicode hex="00DF"/>
  <outline>
    <contour>
      <point x="545" y="148" type="curve" smooth="yes"/>
      <point x="545" y="198"/>
      <point x="528" y="235"/>
      <point x="483" y="269" type="curve" smooth="yes"/>
      <point x="433" y="307" type="line" smooth="yes"/>
      <point x="407" y="327"/>
      <point x="399" y="348"/>
      <point x="399" y="372" type="curve" smooth="yes"/>
      <point x="399" y="463"/>
      <point x="516" y="516"/>
      <point x="516" y="625" type="curve" smooth="yes"/>
      <point x="516" y="711"/>
      <point x="444" y="750"/>
      <point x="359" y="750" type="curve" smooth="yes"/>
      <point x="231" y="750"/>
      <point x="183" y="673"/>
      <point x="166" y="575" type="curve" smooth="yes"/>
      <point x="151" y="487" type="line"/>
      <point x="62" y="487" type="line"/>
      <point x="53" y="434" type="line"/>
      <point x="141" y="434" type="line"/>
      <point x="65" y="0" type="line"/>
      <point x="125" y="0" type="line"/>
      <point x="227" y="576" type="line" smooth="yes"/>
      <point x="241" y="659"/>
      <point x="282" y="697"/>
      <point x="359" y="697" type="curve" smooth="yes"/>
      <point x="416" y="697"/>
      <point x="454" y="670"/>
      <point x="454" y="624" type="curve" smooth="yes"/>
      <point x="454" y="538"/>
      <point x="337" y="476"/>
      <point x="337" y="369" type="curve" smooth="yes"/>
      <point x="337" y="326"/>
      <point x="354" y="288"/>
      <point x="393" y="258" type="curve" smooth="yes"/>
      <point x="443" y="220" type="line" smooth="yes"/>
      <point x="472" y="198"/>
      <point x="483" y="174"/>
      <point x="483" y="143" type="curve" smooth="yes"/>
      <point x="483" y="89"/>
      <point x="451" y="45"/>
      <point x="369" y="45" type="curve" smooth="yes"/>
      <point x="329" y="45"/>
      <point x="293" y="55"/>
      <point x="251" y="77" type="curve"/>
      <point x="229" y="25" type="line"/>
      <point x="275" y="2"/>
      <point x="320" y="-10"/>
      <point x="371" y="-10" type="curve" smooth="yes"/>
      <point x="494" y="-10"/>
      <point x="545" y="63"/>
    </contour>
  </outline>
</glyph>
<glyph name="ae" format="1">
  <advance width="762.5253989266602"/>
  <unicode hex="00E6"/>
  <outline>
    <contour>
      <point x="668" y="18" type="curve"/>
      <point x="657" y="70" type="line"/>
      <point x="611" y="54"/>
      <point x="562" y="45"/>
      <point x="521" y="45" type="curve" smooth="yes"/>
      <point x="404" y="45"/>
      <point x="382" y="127"/>
      <point x="397" y="226" type="curve"/>
      <point x="687" y="226" type="line"/>
      <point x="717" y="279"/>
      <point x="725" y="322"/>
      <point x="725" y="357" type="curve" smooth="yes"/>
      <point x="725" y="452"/>
      <point x="650" y="497"/>
      <point x="564" y="497" type="curve" smooth="yes"/>
      <point x="496" y="497"/>
      <point x="441" y="469"/>
      <point x="402" y="421" type="curve"/>
      <point x="381" y="464"/>
      <point x="333" y="497"/>
      <point x="253" y="497" type="curve" smooth="yes"/>
      <point x="210" y="497"/>
      <point x="163" y="489"/>
      <point x="105" y="472" type="curve"/>
      <point x="117" y="423" type="line"/>
      <point x="172" y="437"/>
      <point x="213" y="442"/>
      <point x="249" y="442" type="curve" smooth="yes"/>
      <point x="316" y="442"/>
      <point x="368" y="414"/>
      <point x="353" y="328" type="curve" smooth="yes"/>
      <point x="348" y="301" type="line"/>
      <point x="347" y="295"/>
      <point x="346" y="290"/>
      <point x="345" y="284" type="curve" smooth="yes"/>
      <point x="345" y="282" type="line"/>
      <point x="340" y="255" type="line"/>
      <point x="291" y="263"/>
      <point x="238" y="269"/>
      <point x="200" y="269" type="curve" smooth="yes"/>
      <point x="61" y="269"/>
      <point x="26" y="190"/>
      <point x="26" y="116" type="curve" smooth="yes"/>
      <point x="26" y="42"/>
      <point x="60" y="-10"/>
      <point x="145" y="-10" type="curve" smooth="yes"/>
      <point x="190" y="-10"/>
      <point x="269" y="2"/>
      <point x="345" y="92" type="curve"/>
      <point x="367" y="30"/>
      <point x="420" y="-10"/>
      <point x="518" y="-10" type="curve" smooth="yes"/>
      <point x="567" y="-10"/>
      <point x="620" y="0"/>
    </contour>
    <contour>
      <point x="406" y="284" type="line" smooth="yes"/>
      <point x="422" y="383"/>
      <point x="479" y="442"/>
      <point x="562" y="442" type="curve" smooth="yes"/>
      <point x="619" y="442"/>
      <point x="666" y="415"/>
      <point x="666" y="354" type="curve" smooth="yes"/>
      <point x="666" y="333"/>
      <point x="662" y="306"/>
      <point x="646" y="279" type="curve"/>
      <point x="405" y="279" type="line"/>
    </contour>
    <contour>
      <point x="90" y="119" type="curve" smooth="yes"/>
      <point x="90" y="176"/>
      <point x="116" y="216"/>
      <point x="202" y="216" type="curve" smooth="yes"/>
      <point x="234" y="216"/>
      <point x="287" y="211"/>
      <point x="333" y="203" type="curve"/>
      <point x="332" y="185"/>
      <point x="331" y="168"/>
      <point x="333" y="152" type="curve"/>
      <point x="262" y="53"/>
      <point x="185" y="43"/>
      <point x="156" y="43" type="curve" smooth="yes"/>
      <point x="109" y="43"/>
      <point x="90" y="71"/>
    </contour>
  </outline>
</glyph>
<glyph name="ccedilla" format="1">
  <advance width="451.82611434724765"/>
  <unicode hex="00E7"/>
  <outline>
    <contour>
      <point x="287" y="-132" type="curve" smooth="yes"/>
      <point x="287" y="-83"/>
      <point x="254" y="-58"/>
      <point x="201" y="-58" type="curve" smooth="yes"/>
      <point x="197" y="-58" type="line"/>
      <point x="216" y="-9" type="line"/>
      <point x="223" y="-10"/>
      <point x="231" y="-10"/>
      <point x="239" y="-10" type="curve" smooth="yes"/>
      <point x="284" y="-10"/>
      <point x="333" y="1"/>
      <point x="378" y="18" type="curve"/>
      <point x="367" y="70" type="line"/>
      <point x="324" y="55"/>
      <point x="279" y="45"/>
      <point x="242" y="45" type="curve" smooth="yes"/>
      <point x="133" y="45"/>
      <point x="114" y="131"/>
      <point x="130" y="234" type="curve" smooth="yes"/>
      <point x="138" y="284" type="line" smooth="yes"/>
      <point x="154" y="383"/>
      <point x="208" y="442"/>
      <point x="290" y="442" type="curve" smooth="yes"/>
      <point x="328" y="442"/>
      <point x="369" y="427"/>
      <point x="411" y="407" type="curve"/>
      <point x="434" y="457" type="line"/>
      <point x="388" y="482"/>
      <point x="336" y="497"/>
      <point x="287" y="497" type="curve" smooth="yes"/>
      <point x="172" y="497"/>
      <point x="97" y="410"/>
      <point x="77" y="284" type="curve" smooth="yes"/>
      <point x="69" y="234" type="line" smooth="yes"/>
      <point x="52" y="124"/>
      <point x="75" y="29"/>
      <point x="171" y="-1" type="curve"/>
      <point x="148" y="-64" type="line"/>
      <point x="163" y="-106" type="line"/>
      <point x="171" y="-105"/>
      <point x="179" y="-104"/>
      <point x="186" y="-104" type="curve" smooth="yes"/>
      <point x="221" y="-104"/>
      <point x="233" y="-116"/>
      <point x="233" y="-135" type="curve" smooth="yes"/>
      <point x="233" y="-156"/>
      <point x="216" y="-174"/>
      <point x="172" y="-174" type="curve" smooth="yes"/>
      <point x="153" y="-174"/>
      <point x="131" y="-170"/>
      <point x="111" y="-162" type="curve"/>
      <point x="99" y="-208" type="line"/>
      <point x="124" y="-218"/>
      <point x="149" y="-223"/>
      <point x="176" y="-223" type="curve" smooth="yes"/>
      <point x="255" y="-223"/>
      <point x="287" y="-179"/>
    </contour>
  </outline>
</glyph>
<glyph name="eth" format="1">
  <advance width="540.9762167071345"/>
  <unicode hex="00F0"/>
  <outline>
    <contour>
      <point x="475" y="244" type="curve" smooth="yes"/>
      <point x="482" y="284" type="line" smooth="yes"/>
      <point x="502" y="402"/>
      <point x="483" y="515"/>
      <point x="408" y="615" type="curve"/>
      <point x="510" y="682" type="line"/>
      <point x="522" y="750" type="line"/>
      <point x="375" y="654" type="line"/>
      <point x="344" y="688"/>
      <point x="306" y="720"/>
      <point x="260" y="750" type="curve"/>
      <point x="227" y="704" type="line"/>
      <point x="266" y="678"/>
      <point x="298" y="650"/>
      <point x="325" y="622" type="curve"/>
      <point x="228" y="559" type="line"/>
      <point x="216" y="491" type="line"/>
      <point x="358" y="583" type="line"/>
      <point x="412" y="511"/>
      <point x="433" y="433"/>
      <point x="427" y="346" type="curve"/>
      <point x="391" y="423"/>
      <point x="331" y="447"/>
      <point x="271" y="447" type="curve" smooth="yes"/>
      <point x="165" y="447"/>
      <point x="85" y="373"/>
      <point x="65" y="257" type="curve" smooth="yes"/>
      <point x="58" y="217" type="line" smooth="yes"/>
      <point x="34" y="82"/>
      <point x="97" y="-10"/>
      <point x="232" y="-10" type="curve" smooth="yes"/>
      <point x="357" y="-10"/>
      <point x="443" y="64"/>
    </contour>
    <contour>
      <point x="120" y="206" type="curve" smooth="yes"/>
      <point x="127" y="246" type="line" smooth="yes"/>
      <point x="143" y="339"/>
      <point x="199" y="392"/>
      <point x="271" y="392" type="curve" smooth="yes"/>
      <point x="314" y="392"/>
      <point x="375" y="373"/>
      <point x="417" y="273" type="curve"/>
      <point x="413" y="251" type="line" smooth="yes"/>
      <point x="388" y="108"/>
      <point x="326" y="45"/>
      <point x="232" y="45" type="curve" smooth="yes"/>
      <point x="144" y="45"/>
      <point x="103" y="109"/>
    </contour>
  </outline>
</glyph>
<glyph name="divide" format="1">
  <advance width="588"/>
  <unicode hex="00F7"/>
  <outline>
    <contour>
      <point x="369" y="462" type="line"/>
      <point x="382" y="535" type="line"/>
      <point x="309" y="535" type="line"/>
      <point x="296" y="462" type="line"/>
    </contour>
    <contour>
      <point x="91" y="268" type="line"/>
      <point x="505" y="268" type="line"/>
      <point x="515" y="321" type="line"/>
      <point x="101" y="321" type="line"/>
    </contour>
    <contour>
      <point x="297" y="50" type="line"/>
      <point x="310" y="123" type="line"/>
      <point x="237" y="123" type="line"/>
      <point x="224" y="50" type="line"/>
    </contour>
  </outline>
</glyph>
<glyph name="oslash" format="1">
  <advance width="542"/>
  <unicode hex="00F8"/>
  <outline>
    <contour>
      <point x="244" y="-10" type="curve" smooth="yes"/>
      <point x="368" y="-10"/>
      <point x="445" y="65"/>
      <point x="467" y="204" type="curve" smooth="yes"/>
      <point x="475" y="254" type="line" smooth="yes"/>
      <point x="486" y="321"/>
      <point x="477" y="381"/>
      <point x="448" y="425" type="curve"/>
      <point x="521" y="517" type="line"/>
      <point x="457" y="517" type="line"/>
      <point x="413" y="462" type="line"/>
      <point x="384" y="484"/>
      <point x="345" y="497"/>
      <point x="297" y="497" type="curve" smooth="yes"/>
      <point x="172" y="497"/>
      <point x="96" y="416"/>
      <point x="75" y="284" type="curve" smooth="yes"/>
      <point x="67" y="234" type="line" smooth="yes"/>
      <point x="56" y="165"/>
      <point x="65" y="105"/>
      <point x="94" y="61" type="curve"/>
      <point x="21" y="-30" type="line"/>
      <point x="85" y="-30" type="line"/>
      <point x="128" y="24" type="line"/>
      <point x="157" y="2"/>
      <point x="196" y="-10"/>
    </contour>
    <contour>
      <point x="130" y="234" type="curve" smooth="yes"/>
      <point x="138" y="284" type="line" smooth="yes"/>
      <point x="154" y="383"/>
      <point x="209" y="442"/>
      <point x="298" y="442" type="curve" smooth="yes"/>
      <point x="331" y="442"/>
      <point x="356" y="432"/>
      <point x="376" y="415" type="curve"/>
      <point x="137" y="115" type="line"/>
      <point x="125" y="147"/>
      <point x="123" y="187"/>
    </contour>
    <contour>
      <point x="412" y="254" type="curve" smooth="yes"/>
      <point x="404" y="204" type="line" smooth="yes"/>
      <point x="387" y="100"/>
      <point x="333" y="45"/>
      <point x="243" y="45" type="curve" smooth="yes"/>
      <point x="211" y="45"/>
      <point x="185" y="54"/>
      <point x="166" y="71" type="curve"/>
      <point x="405" y="371" type="line"/>
      <point x="417" y="339"/>
      <point x="419" y="299"/>
    </contour>
  </outline>
</glyph>
<glyph name="Aogonek" format="1">
  <advance width="562.0"/>
  <unicode hex="0104"/>
  <outline>
    <contour>
      <point x="466" y="-206" type="curve"/>
      <point x="455" y="-157" type="line"/>
      <point x="434" y="-165"/>
      <point x="413" y="-170"/>
      <point x="396" y="-170" type="curve" smooth="yes"/>
      <point x="370" y="-170"/>
      <point x="359" y="-158"/>
      <point x="359" y="-138" type="curve" smooth="yes"/>
      <point x="359" y="-108"/>
      <point x="383" y="-76"/>
      <point x="497" y="0" type="curve"/>
      <point x="390" y="680" type="line"/>
      <point x="325" y="680" type="line"/>
      <point x="-21" y="0" type="line"/>
      <point x="46" y="0" type="line"/>
      <point x="134" y="175" type="line"/>
      <point x="405" y="175" type="line"/>
      <point x="430" y="11" type="line"/>
      <point x="330" y="-58"/>
      <point x="299" y="-103"/>
      <point x="299" y="-150" type="curve" smooth="yes"/>
      <point x="299" y="-197"/>
      <point x="330" y="-223"/>
      <point x="386" y="-223" type="curve" smooth="yes"/>
      <point x="412" y="-223"/>
      <point x="438" y="-217"/>
    </contour>
    <contour>
      <point x="229" y="363" type="line"/>
      <point x="343" y="593" type="line"/>
      <point x="377" y="363" type="line"/>
      <point x="397" y="233" type="line"/>
      <point x="163" y="233" type="line"/>
    </contour>
  </outline>
</glyph>
<glyph name="aogonek" format="1">
  <advance width="544"/>
  <unicode hex="0105"/>
  <outline>
    <contour>
      <point x="436" y="-206" type="curve"/>
      <point x="425" y="-157" type="line"/>
      <point x="404" y="-165"/>
      <point x="383" y="-170"/>
      <point x="366" y="-170" type="curve" smooth="yes"/>
      <point x="340" y="-170"/>
      <point x="329" y="-158"/>
      <point x="329" y="-138" type="curve" smooth="yes"/>
      <point x="329" y="-109"/>
      <point x="354" y="-80"/>
      <point x="467" y="-5" type="curve"/>
      <point x="477" y="50" type="line"/>
      <point x="461" y="50" type="line" smooth="yes"/>
      <point x="426" y="50"/>
      <point x="418" y="77"/>
      <point x="428" y="131" type="curve" smooth="yes"/>
      <point x="482" y="436" type="line"/>
      <point x="421" y="475"/>
      <point x="361" y="497"/>
      <point x="300" y="497" type="curve" smooth="yes"/>
      <point x="179" y="497"/>
      <point x="94" y="410"/>
      <point x="76" y="275" type="curve" smooth="yes"/>
      <point x="69" y="224" type="line" smooth="yes"/>
      <point x="51" y="92"/>
      <point x="97" y="-10"/>
      <point x="195" y="-10" type="curve" smooth="yes"/>
      <point x="252" y="-10"/>
      <point x="310" y="19"/>
      <point x="365" y="89" type="curve"/>
      <point x="363" y="51"/>
      <point x="375" y="22"/>
      <point x="402" y="7" type="curve"/>
      <point x="301" y="-62"/>
      <point x="269" y="-104"/>
      <point x="269" y="-150" type="curve" smooth="yes"/>
      <point x="269" y="-197"/>
      <point x="300" y="-223"/>
      <point x="356" y="-223" type="curve" smooth="yes"/>
      <point x="382" y="-223"/>
      <point x="408" y="-217"/>
    </contour>
    <contour>
      <point x="132" y="224" type="curve" smooth="yes"/>
      <point x="139" y="275" type="line" smooth="yes"/>
      <point x="152" y="373"/>
      <point x="208" y="442"/>
      <point x="302" y="442" type="curve" smooth="yes"/>
      <point x="338" y="442"/>
      <point x="376" y="431"/>
      <point x="418" y="409" type="curve"/>
      <point x="377" y="180" type="line"/>
      <point x="312" y="78"/>
      <point x="251" y="43"/>
      <point x="205" y="43" type="curve" smooth="yes"/>
      <point x="143" y="43"/>
      <point x="117" y="113"/>
    </contour>
  </outline>
</glyph>
<glyph name="dcroat" format="1">
  <advance width="551"/>
  <unicode hex="0111"/>
  <outline>
    <contour>
      <point x="357" y="0" type="line"/>
      <point x="414" y="0" type="line"/>
      <point x="517" y="584" type="line"/>
      <point x="606" y="584" type="line"/>
      <point x="615" y="637" type="line"/>
      <point x="527" y="637" type="line"/>
      <point x="545" y="740" type="line"/>
      <point x="485" y="740" type="line"/>
      <point x="467" y="637" type="line"/>
      <point x="307" y="637" type="line"/>
      <point x="298" y="584" type="line"/>
      <point x="457" y="584" type="line"/>
      <point x="436" y="464" type="line"/>
      <point x="393" y="485"/>
      <point x="349" y="497"/>
      <point x="303" y="497" type="curve" smooth="yes"/>
      <point x="177" y="497"/>
      <point x="96" y="415"/>
      <point x="77" y="275" type="curve" smooth="yes"/>
      <point x="70" y="224" type="line" smooth="yes"/>
      <point x="52" y="92"/>
      <point x="99" y="-10"/>
      <point x="200" y="-10" type="curve" smooth="yes"/>
      <point x="258" y="-10"/>
      <point x="318" y="21"/>
      <point x="373" y="93" type="curve"/>
    </contour>
    <contour>
      <point x="133" y="224" type="curve" smooth="yes"/>
      <point x="140" y="275" type="line" smooth="yes"/>
      <point x="154" y="378"/>
      <point x="206" y="442"/>
      <point x="305" y="442" type="curve" smooth="yes"/>
      <point x="345" y="442"/>
      <point x="384" y="431"/>
      <point x="427" y="409" type="curve"/>
      <point x="386" y="180" type="line"/>
      <point x="321" y="78"/>
      <point x="258" y="43"/>
      <point x="210" y="43" type="curve" smooth="yes"/>
      <point x="145" y="43"/>
      <point x="118" y="113"/>
    </contour>
  </outline>
</glyph>
<glyph name="Eogonek" format="1">
  <advance width="528"/>
  <unicode hex="0118"/>
  <outline>
    <contour>
      <point x="411" y="-206" type="curve"/>
      <point x="400" y="-157" type="line"/>
      <point x="379" y="-165"/>
      <point x="358" y="-170"/>
      <point x="341" y="-170" type="curve" smooth="yes"/>
      <point x="315" y="-170"/>
      <point x="304" y="-158"/>
      <point x="304" y="-138" type="curve" smooth="yes"/>
      <point x="304" y="-108"/>
      <point x="328" y="-76"/>
      <point x="442" y="0" type="curve"/>
      <point x="452" y="59" type="line"/>
      <point x="147" y="59" type="line"/>
      <point x="193" y="315" type="line"/>
      <point x="458" y="315" type="line"/>
      <point x="468" y="374" type="line"/>
      <point x="203" y="374" type="line"/>
      <point x="246" y="621" type="line"/>
      <point x="541" y="621" type="line"/>
      <point x="552" y="680" type="line"/>
      <point x="192" y="680" type="line"/>
      <point x="72" y="0" type="line"/>
      <point x="362" y="0" type="line"/>
      <point x="272" y="-63"/>
      <point x="244" y="-106"/>
      <point x="244" y="-150" type="curve" smooth="yes"/>
      <point x="244" y="-197"/>
      <point x="275" y="-223"/>
      <point x="331" y="-223" type="curve" smooth="yes"/>
      <point x="357" y="-223"/>
      <point x="383" y="-217"/>
    </contour>
  </outline>
</glyph>
<glyph name="eogonek" format="1">
  <advance width="494.52539892666016"/>
  <unicode hex="0119"/>
  <outline>
    <contour>
      <point x="360" y="-206" type="curve"/>
      <point x="349" y="-157" type="line"/>
      <point x="328" y="-165"/>
      <point x="307" y="-170"/>
      <point x="290" y="-170" type="curve" smooth="yes"/>
      <point x="264" y="-170"/>
      <point x="253" y="-158"/>
      <point x="253" y="-138" type="curve" smooth="yes"/>
      <point x="253" y="-104"/>
      <point x="283" y="-65"/>
      <point x="400" y="18" type="curve"/>
      <point x="389" y="70" type="line"/>
      <point x="344" y="54"/>
      <point x="294" y="45"/>
      <point x="253" y="45" type="curve" smooth="yes"/>
      <point x="136" y="45"/>
      <point x="115" y="127"/>
      <point x="129" y="226" type="curve"/>
      <point x="419" y="226" type="line"/>
      <point x="449" y="279"/>
      <point x="457" y="322"/>
      <point x="457" y="357" type="curve" smooth="yes"/>
      <point x="457" y="452"/>
      <point x="382" y="497"/>
      <point x="296" y="497" type="curve" smooth="yes"/>
      <point x="175" y="497"/>
      <point x="97" y="410"/>
      <point x="77" y="284" type="curve" smooth="yes"/>
      <point x="69" y="234" type="line" smooth="yes"/>
      <point x="48" y="101"/>
      <point x="88" y="-10"/>
      <point x="250" y="-10" type="curve" smooth="yes"/>
      <point x="262" y="-10"/>
      <point x="275" y="-9"/>
      <point x="287" y="-8" type="curve"/>
      <point x="219" y="-64"/>
      <point x="193" y="-107"/>
      <point x="193" y="-150" type="curve" smooth="yes"/>
      <point x="193" y="-197"/>
      <point x="224" y="-223"/>
      <point x="280" y="-223" type="curve" smooth="yes"/>
      <point x="306" y="-223"/>
      <point x="332" y="-217"/>
    </contour>
    <contour>
      <point x="138" y="284" type="line" smooth="yes"/>
      <point x="154" y="383"/>
      <point x="211" y="442"/>
      <point x="294" y="442" type="curve" smooth="yes"/>
      <point x="351" y="442"/>
      <point x="398" y="415"/>
      <point x="398" y="354" type="curve" smooth="yes"/>
      <point x="398" y="333"/>
      <point x="394" y="306"/>
      <point x="378" y="279" type="curve"/>
      <point x="137" y="279" type="line"/>
    </contour>
  </outline>
</glyph>
<glyph name="Hbar" format="1">
  <advance width="705"/>
  <unicode hex="0126"/>
  <outline>
    <contour>
      <point x="203" y="315" type="line"/>
      <point x="528" y="315" type="line"/>
      <point x="472" y="0" type="line"/>
      <point x="537" y="0" type="line"/>
      <point x="626" y="507" type="line"/>
      <point x="716" y="507" type="line"/>
      <point x="726" y="560" type="line"/>
      <point x="636" y="560" type="line"/>
      <point x="657" y="680" type="line"/>
      <point x="592" y="680" type="line"/>
      <point x="571" y="560" type="line"/>
      <point x="246" y="560" type="line"/>
      <point x="267" y="680" type="line"/>
      <point x="202" y="680" type="line"/>
      <point x="181" y="560" type="line"/>
      <point x="91" y="560" type="line"/>
      <point x="81" y="507" type="line"/>
      <point x="171" y="507" type="line"/>
      <point x="82" y="0" type="line"/>
      <point x="147" y="0" type="line"/>
    </contour>
    <contour>
      <point x="213" y="374" type="line"/>
      <point x="236" y="507" type="line"/>
      <point x="561" y="507" type="line"/>
      <point x="538" y="374" type="line"/>
    </contour>
  </outline>
</glyph>
<glyph name="hbar" format="1">
  <advance width="563"/>
  <unicode hex="0127"/>
  <outline>
    <contour>
      <point x="168" y="319" type="line"/>
      <point x="256" y="420"/>
      <point x="318" y="440"/>
      <point x="362" y="440" type="curve" smooth="yes"/>
      <point x="417" y="440"/>
      <point x="441" y="399"/>
      <point x="426" y="316" type="curve" smooth="yes"/>
      <point x="370" y="0" type="line"/>
      <point x="430" y="0" type="line"/>
      <point x="488" y="327" type="line" smooth="yes"/>
      <point x="506" y="431"/>
      <point x="458" y="497"/>
      <point x="372" y="497" type="curve" smooth="yes"/>
      <point x="323" y="497"/>
      <point x="260" y="479"/>
      <point x="182" y="397" type="curve"/>
      <point x="215" y="587" type="line"/>
      <point x="374" y="587" type="line"/>
      <point x="382" y="637" type="line"/>
      <point x="224" y="637" type="line"/>
      <point x="242" y="740" type="line"/>
      <point x="182" y="740" type="line"/>
      <point x="164" y="637" type="line"/>
      <point x="74" y="637" type="line"/>
      <point x="66" y="587" type="line"/>
      <point x="155" y="587" type="line"/>
      <point x="52" y="0" type="line"/>
      <point x="112" y="0" type="line"/>
    </contour>
  </outline>
</glyph>
<glyph name="Iogonek" format="1">
  <advance width="295"/>
  <unicode hex="012E"/>
  <outline>
    <contour>
      <point x="135" y="-206" type="curve"/>
      <point x="124" y="-157" type="line"/>
      <point x="103" y="-165"/>
      <point x="82" y="-170"/>
      <point x="65" y="-170" type="curve" smooth="yes"/>
      <point x="39" y="-170"/>
      <point x="28" y="-158"/>
      <point x="28" y="-141" type="curve" smooth="yes"/>
      <point x="28" y="-108"/>
      <point x="63" y="-65"/>
      <point x="137" y="0" type="curve"/>
      <point x="257" y="680" type="line"/>
      <point x="192" y="680" type="line"/>
      <point x="73" y="4" type="line"/>
      <point x="4" y="-56"/>
      <point x="-32" y="-106"/>
      <point x="-32" y="-153" type="curve" smooth="yes"/>
      <point x="-32" y="-197"/>
      <point x="-1" y="-223"/>
      <point x="55" y="-223" type="curve" smooth="yes"/>
      <point x="81" y="-223"/>
      <point x="107" y="-217"/>
    </contour>
  </outline>
</glyph>
<glyph name="iogonek" format="1">
  <advance width="252"/>
  <unicode hex="012F"/>
  <outline>
    <contour>
      <point x="226" y="629" type="line"/>
      <point x="238" y="696" type="line"/>
      <point x="172" y="696" type="line"/>
      <point x="160" y="629" type="line"/>
    </contour>
    <contour>
      <point x="110" y="-206" type="curve"/>
      <point x="99" y="-157" type="line"/>
      <point x="78" y="-165"/>
      <point x="57" y="-170"/>
      <point x="40" y="-170" type="curve" smooth="yes"/>
      <point x="14" y="-170"/>
      <point x="3" y="-158"/>
      <point x="3" y="-141" type="curve" smooth="yes"/>
      <point x="3" y="-108"/>
      <point x="38" y="-65"/>
      <point x="112" y="0" type="curve"/>
      <point x="198" y="487" type="line"/>
      <point x="138" y="487" type="line"/>
      <point x="54" y="9" type="line"/>
      <point x="-19" y="-53"/>
      <point x="-57" y="-104"/>
      <point x="-57" y="-153" type="curve" smooth="yes"/>
      <point x="-57" y="-197"/>
      <point x="-26" y="-223"/>
      <point x="30" y="-223" type="curve" smooth="yes"/>
      <point x="56" y="-223"/>
      <point x="82" y="-217"/>
    </contour>
  </outline>
</glyph>
<glyph name="dotlessi" format="1">
  <advance width="250.0"/>
  <unicode hex="0131"/>
  <outline>
    <contour>
      <point x="112" y="0" type="line"/>
      <point x="198" y="487" type="line"/>
      <point x="138" y="487" type="line"/>
      <point x="52" y="0" type="line"/>
    </contour>
  </outline>
</glyph>
<glyph name="Lslash" format="1">
  <advance width="516"/>
  <unicode hex="0141"/>
  <outline>
    <contour>
      <point x="451" y="59" type="line"/>
      <point x="157" y="59" type="line"/>
      <point x="202" y="314" type="line"/>
      <point x="362" y="385" type="line"/>
      <point x="374" y="452" type="line"/>
      <point x="214" y="381" type="line"/>
      <point x="267" y="680" type="line"/>
      <point x="202" y="680" type="line"/>
      <point x="144" y="349" type="line"/>
      <point x="46" y="306" type="line"/>
      <point x="34" y="239" type="line"/>
      <point x="132" y="283" type="line"/>
      <point x="82" y="0" type="line"/>
      <point x="441" y="0" type="line"/>
    </contour>
  </outline>
</glyph>
<glyph name="lslash" format="1">
  <advance width="285"/>
  <unicode hex="0142"/>
  <outline>
    <contour>
      <point x="199" y="50" type="line"/>
      <point x="183" y="50" type="line" smooth="yes"/>
      <point x="142" y="50"/>
      <point x="138" y="64"/>
      <point x="147" y="112" type="curve" smooth="yes"/>
      <point x="189" y="354" type="line"/>
      <point x="288" y="409" type="line"/>
      <point x="299" y="472" type="line"/>
      <point x="200" y="417" type="line"/>
      <point x="257" y="740" type="line"/>
      <point x="197" y="740" type="line"/>
      <point x="134" y="380" type="line"/>
      <point x="35" y="326" type="line"/>
      <point x="24" y="263" type="line"/>
      <point x="123" y="317" type="line"/>
      <point x="86" y="110" type="line" smooth="yes"/>
      <point x="73" y="34"/>
      <point x="97" y="-5"/>
      <point x="173" y="-5" type="curve" smooth="yes"/>
      <point x="189" y="-5" type="line"/>
    </contour>
  </outline>
</glyph>
<glyph name="Eng" format="1">
  <advance width="695"/>
  <unicode hex="014A"/>
  <outline>
    <contour>
      <point x="72" y="0" type="line"/>
      <point x="133" y="0" type="line"/>
      <point x="184" y="291" type="line"/>
      <point x="239" y="601" type="line"/>
      <point x="329" y="395"/>
      <point x="393" y="236"/>
      <point x="470" y="-13" type="curve"/>
      <point x="449" y="-128"/>
      <point x="400" y="-161"/>
      <point x="286" y="-161" type="curve"/>
      <point x="275" y="-223" type="line"/>
      <point x="459" y="-223"/>
      <point x="511" y="-145"/>
      <point x="536" y="-6" type="curve"/>
      <point x="657" y="680" type="line"/>
      <point x="596" y="680" type="line"/>
      <point x="544" y="388" type="line"/>
      <point x="499" y="94" type="line"/>
      <point x="434" y="307"/>
      <point x="357" y="483"/>
      <point x="270" y="680" type="curve"/>
      <point x="192" y="680" type="line"/>
    </contour>
  </outline>
</glyph>
<glyph name="eng" format="1">
  <advance width="563"/>
  <unicode hex="014B"/>
  <outline>
    <contour>
      <point x="424" y="-37" type="curve" smooth="yes"/>
      <point x="488" y="327" type="line" smooth="yes"/>
      <point x="510" y="429"/>
      <point x="458" y="497"/>
      <point x="372" y="497" type="curve" smooth="yes"/>
      <point x="322" y="497"/>
      <point x="258" y="479"/>
      <point x="179" y="394" type="curve"/>
      <point x="195" y="487" type="line"/>
      <point x="138" y="487" type="line"/>
      <point x="52" y="0" type="line"/>
      <point x="112" y="0" type="line"/>
      <point x="168" y="318" type="line"/>
      <point x="256" y="420"/>
      <point x="318" y="440"/>
      <point x="362" y="440" type="curve" smooth="yes"/>
      <point x="417" y="440"/>
      <point x="441" y="399"/>
      <point x="426" y="316" type="curve" smooth="yes"/>
      <point x="363" y="-37" type="line" smooth="yes"/>
      <point x="344" y="-141"/>
      <point x="302" y="-166"/>
      <point x="228" y="-166" type="curve"/>
      <point x="218" y="-223" type="line"/>
      <point x="356" y="-223"/>
      <point x="403" y="-154"/>
    </contour>
  </outline>
</glyph>
<glyph name="OE" format="1">
  <advance width="870"/>
  <unicode hex="0152"/>
  <outline>
    <contour>
      <point x="118" y="426" type="curve" smooth="yes"/>
      <point x="93" y="283" type="line" smooth="yes"/>
      <point x="63" y="113"/>
      <point x="142" y="0"/>
      <point x="297" y="0" type="curve" smooth="yes"/>
      <point x="784" y="0" type="line"/>
      <point x="794" y="59" type="line"/>
      <point x="489" y="59" type="line"/>
      <point x="535" y="315" type="line"/>
      <point x="800" y="315" type="line"/>
      <point x="810" y="374" type="line"/>
      <point x="545" y="374" type="line"/>
      <point x="589" y="621" type="line"/>
      <point x="883" y="621" type="line"/>
      <point x="894" y="680" type="line"/>
      <point x="392" y="680" type="line" smooth="yes"/>
      <point x="244" y="680"/>
      <point x="145" y="582"/>
    </contour>
    <contour>
      <point x="298" y="59" type="line" smooth="yes"/>
      <point x="187" y="59"/>
      <point x="136" y="142"/>
      <point x="161" y="283" type="curve" smooth="yes"/>
      <point x="186" y="426" type="line" smooth="yes"/>
      <point x="207" y="548"/>
      <point x="284" y="621"/>
      <point x="391" y="621" type="curve" smooth="yes"/>
      <point x="524" y="621" type="line"/>
      <point x="424" y="59" type="line"/>
    </contour>
  </outline>
</glyph>
<glyph name="oe" format="1">
  <advance width="836.5253989266602"/>
  <unicode hex="0153"/>
  <outline>
    <contour>
      <point x="742" y="18" type="curve"/>
      <point x="731" y="70" type="line"/>
      <point x="685" y="54"/>
      <point x="636" y="45"/>
      <point x="595" y="45" type="curve" smooth="yes"/>
      <point x="478" y="45"/>
      <point x="456" y="127"/>
      <point x="471" y="226" type="curve"/>
      <point x="761" y="226" type="line"/>
      <point x="791" y="279"/>
      <point x="799" y="322"/>
      <point x="799" y="357" type="curve" smooth="yes"/>
      <point x="799" y="452"/>
      <point x="724" y="497"/>
      <point x="638" y="497" type="curve" smooth="yes"/>
      <point x="558" y="497"/>
      <point x="496" y="454"/>
      <point x="460" y="386" type="curve"/>
      <point x="437" y="453"/>
      <point x="383" y="497"/>
      <point x="297" y="497" type="curve" smooth="yes"/>
      <point x="172" y="497"/>
      <point x="96" y="416"/>
      <point x="75" y="284" type="curve" smooth="yes"/>
      <point x="67" y="234" type="line" smooth="yes"/>
      <point x="45" y="94"/>
      <point x="104" y="-10"/>
      <point x="244" y="-10" type="curve" smooth="yes"/>
      <point x="327" y="-10"/>
      <point x="388" y="26"/>
      <point x="425" y="95" type="curve"/>
      <point x="445" y="32"/>
      <point x="497" y="-10"/>
      <point x="592" y="-10" type="curve" smooth="yes"/>
      <point x="641" y="-10"/>
      <point x="694" y="0"/>
    </contour>
    <contour>
      <point x="412" y="254" type="curve" smooth="yes"/>
      <point x="404" y="204" type="line" smooth="yes"/>
      <point x="387" y="100"/>
      <point x="333" y="45"/>
      <point x="243" y="45" type="curve" smooth="yes"/>
      <point x="151" y="45"/>
      <point x="112" y="121"/>
      <point x="130" y="234" type="curve" smooth="yes"/>
      <point x="138" y="284" type="line" smooth="yes"/>
      <point x="154" y="383"/>
      <point x="209" y="442"/>
      <point x="298" y="442" type="curve" smooth="yes"/>
      <point x="391" y="442"/>
      <point x="429" y="362"/>
    </contour>
    <contour>
      <point x="480" y="284" type="line" smooth="yes"/>
      <point x="496" y="383"/>
      <point x="553" y="442"/>
      <point x="636" y="442" type="curve" smooth="yes"/>
      <point x="693" y="442"/>
      <point x="740" y="415"/>
      <point x="740" y="354" type="curve" smooth="yes"/>
      <point x="740" y="333"/>
      <point x="736" y="306"/>
      <point x="720" y="279" type="curve"/>
      <point x="479" y="279" type="line"/>
    </contour>
  </outline>
</glyph>
<glyph name="Scedilla" format="1">
  <advance width="499"/>
  <unicode hex="015E"/>
  <outline>
    <contour>
      <point x="282" y="-132" type="curve" smooth="yes"/>
      <point x="282" y="-83"/>
      <point x="249" y="-58"/>
      <point x="196" y="-58" type="curve" smooth="yes"/>
      <point x="192" y="-58" type="line"/>
      <point x="210" y="-10" type="line"/>
      <point x="377" y="-10"/>
      <point x="440" y="87"/>
      <point x="440" y="187" type="curve" smooth="yes"/>
      <point x="440" y="273"/>
      <point x="394" y="325"/>
      <point x="316" y="359" type="curve" smooth="yes"/>
      <point x="245" y="390" type="line" smooth="yes"/>
      <point x="181" y="418"/>
      <point x="157" y="452"/>
      <point x="157" y="503" type="curve" smooth="yes"/>
      <point x="157" y="580"/>
      <point x="208" y="633"/>
      <point x="307" y="633" type="curve" smooth="yes"/>
      <point x="360" y="633"/>
      <point x="411" y="620"/>
      <point x="469" y="590" type="curve"/>
      <point x="491" y="647" type="line"/>
      <point x="433" y="677"/>
      <point x="369" y="690"/>
      <point x="307" y="690" type="curve" smooth="yes"/>
      <point x="151" y="690"/>
      <point x="90" y="601"/>
      <point x="90" y="501" type="curve" smooth="yes"/>
      <point x="90" y="424"/>
      <point x="125" y="372"/>
      <point x="210" y="335" type="curve" smooth="yes"/>
      <point x="281" y="304" type="line" smooth="yes"/>
      <point x="343" y="277"/>
      <point x="372" y="239"/>
      <point x="372" y="182" type="curve" smooth="yes"/>
      <point x="372" y="98"/>
      <point x="312" y="47"/>
      <point x="207" y="47" type="curve" smooth="yes"/>
      <point x="152" y="47"/>
      <point x="95" y="61"/>
      <point x="30" y="93" type="curve"/>
      <point x="8" y="36" type="line"/>
      <point x="58" y="11"/>
      <point x="112" y="-3"/>
      <point x="163" y="-8" type="curve"/>
      <point x="143" y="-64" type="line"/>
      <point x="158" y="-106" type="line"/>
      <point x="166" y="-105"/>
      <point x="174" y="-104"/>
      <point x="181" y="-104" type="curve" smooth="yes"/>
      <point x="216" y="-104"/>
      <point x="228" y="-116"/>
      <point x="228" y="-135" type="curve" smooth="yes"/>
      <point x="228" y="-156"/>
      <point x="211" y="-174"/>
      <point x="167" y="-174" type="curve" smooth="yes"/>
      <point x="148" y="-174"/>
      <point x="126" y="-170"/>
      <point x="106" y="-162" type="curve"/>
      <point x="94" y="-208" type="line"/>
      <point x="119" y="-218"/>
      <point x="144" y="-223"/>
      <point x="171" y="-223" type="curve" smooth="yes"/>
      <point x="250" y="-223"/>
      <point x="282" y="-179"/>
    </contour>
  </outline>
</glyph>
<glyph name="scedilla" format="1">
  <advance width="415"/>
  <unicode hex="015F"/>
  <outline>
    <contour>
      <point x="235" y="-132" type="curve" smooth="yes"/>
      <point x="235" y="-83"/>
      <point x="202" y="-58"/>
      <point x="149" y="-58" type="curve" smooth="yes"/>
      <point x="145" y="-58" type="line"/>
      <point x="163" y="-10" type="line"/>
      <point x="301" y="-10"/>
      <point x="347" y="69"/>
      <point x="347" y="138" type="curve" smooth="yes"/>
      <point x="347" y="204"/>
      <point x="307" y="239"/>
      <point x="239" y="266" type="curve" smooth="yes"/>
      <point x="194" y="284" type="line" smooth="yes"/>
      <point x="143" y="304"/>
      <point x="127" y="328"/>
      <point x="127" y="362" type="curve" smooth="yes"/>
      <point x="127" y="414"/>
      <point x="162" y="442"/>
      <point x="232" y="442" type="curve" smooth="yes"/>
      <point x="276" y="442"/>
      <point x="317" y="433"/>
      <point x="364" y="410" type="curve"/>
      <point x="383" y="461" type="line"/>
      <point x="332" y="486"/>
      <point x="283" y="497"/>
      <point x="232" y="497" type="curve" smooth="yes"/>
      <point x="110" y="497"/>
      <point x="67" y="429"/>
      <point x="67" y="357" type="curve" smooth="yes"/>
      <point x="67" y="295"/>
      <point x="102" y="259"/>
      <point x="165" y="233" type="curve" smooth="yes"/>
      <point x="209" y="215" type="line" smooth="yes"/>
      <point x="265" y="192"/>
      <point x="286" y="171"/>
      <point x="286" y="131" type="curve" smooth="yes"/>
      <point x="286" y="83"/>
      <point x="253" y="45"/>
      <point x="162" y="45" type="curve" smooth="yes"/>
      <point x="116" y="45"/>
      <point x="72" y="55"/>
      <point x="24" y="76" type="curve"/>
      <point x="5" y="25" type="line"/>
      <point x="42" y="9"/>
      <point x="79" y="-2"/>
      <point x="116" y="-7" type="curve"/>
      <point x="96" y="-64" type="line"/>
      <point x="111" y="-106" type="line"/>
      <point x="119" y="-105"/>
      <point x="127" y="-104"/>
      <point x="134" y="-104" type="curve" smooth="yes"/>
      <point x="169" y="-104"/>
      <point x="181" y="-116"/>
      <point x="181" y="-135" type="curve" smooth="yes"/>
      <point x="181" y="-156"/>
      <point x="164" y="-174"/>
      <point x="120" y="-174" type="curve" smooth="yes"/>
      <point x="101" y="-174"/>
      <point x="79" y="-170"/>
      <point x="59" y="-162" type="curve"/>
      <point x="47" y="-208" type="line"/>
      <point x="72" y="-218"/>
      <point x="97" y="-223"/>
      <point x="124" y="-223" type="curve" smooth="yes"/>
      <point x="203" y="-223"/>
      <point x="235" y="-179"/>
    </contour>
  </outline>
</glyph>
<glyph name="Tbar" format="1">
  <advance width="499"/>
  <unicode hex="0166"/>
  <outline>
    <contour>
      <point x="435" y="312" type="line"/>
      <point x="444" y="365" type="line"/>
      <point x="303" y="365" type="line"/>
      <point x="348" y="621" type="line"/>
      <point x="552" y="621" type="line"/>
      <point x="563" y="680" type="line"/>
      <point x="90" y="680" type="line"/>
      <point x="79" y="621" type="line"/>
      <point x="283" y="621" type="line"/>
      <point x="238" y="365" type="line"/>
      <point x="97" y="365" type="line"/>
      <point x="88" y="312" type="line"/>
      <point x="229" y="312" type="line"/>
      <point x="174" y="0" type="line"/>
      <point x="239" y="0" type="line"/>
      <point x="294" y="312" type="line"/>
    </contour>
  </outline>
</glyph>
<glyph name="tbar" format="1">
  <advance width="387.2971334051222"/>
  <unicode hex="0167"/>
  <outline>
    <contour>
      <point x="323" y="21" type="curve"/>
      <point x="304" y="69" type="line"/>
      <point x="267" y="50"/>
      <point x="235" y="43"/>
      <point x="212" y="43" type="curve" smooth="yes"/>
      <point x="175" y="43"/>
      <point x="151" y="66"/>
      <point x="163" y="134" type="curve" smooth="yes"/>
      <point x="181" y="236" type="line"/>
      <point x="319" y="236" type="line"/>
      <point x="327" y="286" type="line"/>
      <point x="190" y="286" type="line"/>
      <point x="216" y="434" type="line"/>
      <point x="381" y="434" type="line"/>
      <point x="390" y="487" type="line"/>
      <point x="225" y="487" type="line"/>
      <point x="250" y="629" type="line"/>
      <point x="190" y="629" type="line"/>
      <point x="165" y="487" type="line"/>
      <point x="76" y="487" type="line"/>
      <point x="67" y="434" type="line"/>
      <point x="156" y="434" type="line"/>
      <point x="130" y="286" type="line"/>
      <point x="40" y="286" type="line"/>
      <point x="32" y="236" type="line"/>
      <point x="121" y="236" type="line"/>
      <point x="103" y="135" type="line" smooth="yes"/>
      <point x="90" y="61"/>
      <point x="115" y="-10"/>
      <point x="203" y="-10" type="curve" smooth="yes"/>
      <point x="241" y="-10"/>
      <point x="282" y="2"/>
    </contour>
  </outline>
</glyph>
<glyph name="Uogonek" format="1">
  <advance width="650"/>
  <unicode hex="0172"/>
  <outline>
    <contour>
      <point x="389" y="-206" type="curve"/>
      <point x="378" y="-157" type="line"/>
      <point x="357" y="-165"/>
      <point x="336" y="-170"/>
      <point x="319" y="-170" type="curve" smooth="yes"/>
      <point x="293" y="-170"/>
      <point x="282" y="-158"/>
      <point x="282" y="-138" type="curve" smooth="yes"/>
      <point x="282" y="-100"/>
      <point x="323" y="-55"/>
      <point x="444" y="39" type="curve" smooth="yes"/>
      <point x="499" y="81"/>
      <point x="532" y="153"/>
      <point x="548" y="244" type="curve" smooth="yes"/>
      <point x="625" y="680" type="line"/>
      <point x="557" y="680" type="line"/>
      <point x="480" y="244" type="line" smooth="yes"/>
      <point x="458" y="118"/>
      <point x="399" y="49"/>
      <point x="297" y="49" type="curve" smooth="yes"/>
      <point x="184" y="49"/>
      <point x="151" y="136"/>
      <point x="170" y="244" type="curve" smooth="yes"/>
      <point x="247" y="680" type="line"/>
      <point x="179" y="680" type="line"/>
      <point x="102" y="244" type="line" smooth="yes"/>
      <point x="77" y="104"/>
      <point x="140" y="-10"/>
      <point x="295" y="-10" type="curve" smooth="yes"/>
      <point x="309" y="-10" type="line"/>
      <point x="248" y="-64"/>
      <point x="222" y="-107"/>
      <point x="222" y="-150" type="curve" smooth="yes"/>
      <point x="222" y="-197"/>
      <point x="253" y="-223"/>
      <point x="309" y="-223" type="curve" smooth="yes"/>
      <point x="335" y="-223"/>
      <point x="361" y="-217"/>
    </contour>
  </outline>
</glyph>
<glyph name="uogonek" format="1">
  <advance width="553"/>
  <unicode hex="0173"/>
  <outline>
    <contour>
      <point x="384" y="-206" type="curve"/>
      <point x="373" y="-157" type="line"/>
      <point x="352" y="-165"/>
      <point x="331" y="-170"/>
      <point x="314" y="-170" type="curve" smooth="yes"/>
      <point x="288" y="-170"/>
      <point x="277" y="-158"/>
      <point x="277" y="-138" type="curve" smooth="yes"/>
      <point x="277" y="-108"/>
      <point x="301" y="-76"/>
      <point x="415" y="0" type="curve"/>
      <point x="501" y="487" type="line"/>
      <point x="441" y="487" type="line"/>
      <point x="385" y="169" type="line"/>
      <point x="298" y="68"/>
      <point x="239" y="47"/>
      <point x="196" y="47" type="curve" smooth="yes"/>
      <point x="146" y="47"/>
      <point x="122" y="88"/>
      <point x="137" y="171" type="curve" smooth="yes"/>
      <point x="193" y="487" type="line"/>
      <point x="133" y="487" type="line"/>
      <point x="75" y="160" type="line" smooth="yes"/>
      <point x="57" y="56"/>
      <point x="103" y="-10"/>
      <point x="186" y="-10" type="curve" smooth="yes"/>
      <point x="235" y="-10"/>
      <point x="296" y="9"/>
      <point x="374" y="93" type="curve"/>
      <point x="361" y="19" type="line"/>
      <point x="251" y="-55"/>
      <point x="217" y="-101"/>
      <point x="217" y="-150" type="curve" smooth="yes"/>
      <point x="217" y="-197"/>
      <point x="248" y="-223"/>
      <point x="304" y="-223" type="curve" smooth="yes"/>
      <point x="330" y="-223"/>
      <point x="356" y="-217"/>
    </contour>
  </outline>
</glyph>
<glyph name="florin" format="1">
  <advance width="342"/>
  <unicode hex="0192"/>
  <outline>
    <contour>
      <point x="109" y="-68" type="curve" smooth="yes"/>
      <point x="215" y="331" type="line"/>
      <point x="343" y="331" type="line"/>
      <point x="353" y="384" type="line"/>
      <point x="229" y="384" type="line"/>
      <point x="285" y="596" type="line" smooth="yes"/>
      <point x="303" y="665"/>
      <point x="330" y="697"/>
      <point x="379" y="697" type="curve" smooth="yes"/>
      <point x="401" y="697"/>
      <point x="421" y="692"/>
      <point x="446" y="680" type="curve"/>
      <point x="469" y="729" type="line"/>
      <point x="439" y="744"/>
      <point x="406" y="750"/>
      <point x="378" y="750" type="curve" smooth="yes"/>
      <point x="280" y="750"/>
      <point x="246" y="682"/>
      <point x="223" y="595" type="curve" smooth="yes"/>
      <point x="167" y="384" type="line"/>
      <point x="39" y="384" type="line"/>
      <point x="29" y="331" type="line"/>
      <point x="153" y="331" type="line"/>
      <point x="47" y="-69" type="line" smooth="yes"/>
      <point x="29" y="-138"/>
      <point x="2" y="-170"/>
      <point x="-47" y="-170" type="curve" smooth="yes"/>
      <point x="-69" y="-170"/>
      <point x="-89" y="-165"/>
      <point x="-114" y="-153" type="curve"/>
      <point x="-137" y="-202" type="line"/>
      <point x="-107" y="-217"/>
      <point x="-74" y="-223"/>
      <point x="-46" y="-223" type="curve" smooth="yes"/>
      <point x="52" y="-223"/>
      <point x="86" y="-155"/>
    </contour>
  </outline>
</glyph>
<glyph name="dotlessj" format="1">
  <advance width="250.5240982862132"/>
  <unicode hex="0237"/>
  <outline>
    <contour>
      <point x="-100" y="-223" type="line"/>
      <point x="38" y="-223"/>
      <point x="85" y="-154"/>
      <point x="106" y="-37" type="curve" smooth="yes"/>
      <point x="198" y="487" type="line"/>
      <point x="138" y="487" type="line"/>
      <point x="45" y="-37" type="line" smooth="yes"/>
      <point x="27" y="-141"/>
      <point x="-16" y="-166"/>
      <point x="-90" y="-166" type="curve"/>
    </contour>
  </outline>
</glyph>
<glyph name="circumflex" format="1">
  <advance width="500"/>
  <unicode hex="02C6"/>
  <outline>
    <contour>
      <point x="383" y="579" type="line"/>
      <point x="432" y="579" type="line"/>
      <point x="369" y="740" type="line"/>
      <point x="306" y="740" type="line"/>
      <point x="187" y="579" type="line"/>
      <point x="240" y="579" type="line"/>
      <point x="330" y="685" type="line"/>
    </contour>
  </outline>
</glyph>
<glyph name="caron" format="1">
  <advance width="500"/>
  <unicode hex="02C7"/>
  <outline>
    <contour>
      <point x="460" y="740" type="line"/>
      <point x="407" y="740" type="line"/>
      <point x="317" y="634" type="line"/>
      <point x="264" y="740" type="line"/>
      <point x="215" y="740" type="line"/>
      <point x="278" y="579" type="line"/>
      <point x="341" y="579" type="line"/>
    </contour>
  </outline>
</glyph>
<glyph name="breve" format="1">
  <advance width="500"/>
  <unicode hex="02D8"/>
  <outline>
    <contour>
      <point x="317" y="636" type="curve" smooth="yes"/>
      <point x="272" y="636"/>
      <point x="250" y="661"/>
      <point x="256" y="731" type="curve"/>
      <point x="207" y="731" type="line"/>
      <point x="196" y="627"/>
      <point x="241" y="585"/>
      <point x="315" y="585" type="curve" smooth="yes"/>
      <point x="386" y="585"/>
      <point x="442" y="624"/>
      <point x="465" y="731" type="curve"/>
      <point x="412" y="731" type="line"/>
      <point x="394" y="661"/>
      <point x="363" y="636"/>
    </contour>
  </outline>
</glyph>
<glyph name="dotaccent" format="1">
  <advance width="500"/>
  <unicode hex="02D9"/>
  <outline>
    <contour>
      <point x="354" y="626" type="line"/>
      <point x="366" y="699" type="line"/>
      <point x="293" y="699" type="line"/>
      <point x="281" y="626" type="line"/>
    </contour>
  </outline>
</glyph>
<glyph name="ring" format="1">
  <advance width="500"/>
  <unicode hex="02DA"/>
  <outline>
    <contour>
      <point x="436" y="677" type="line" smooth="yes"/>
      <point x="445" y="738"/>
      <point x="405" y="783"/>
      <point x="336" y="783" type="curve" smooth="yes"/>
      <point x="271" y="783"/>
      <point x="226" y="743"/>
      <point x="218" y="685" type="curve" smooth="yes"/>
      <point x="216" y="671" type="line" smooth="yes"/>
      <point x="207" y="610"/>
      <point x="247" y="563"/>
      <point x="316" y="563" type="curve" smooth="yes"/>
      <point x="381" y="563"/>
      <point x="426" y="604"/>
      <point x="434" y="663" type="curve" smooth="yes"/>
    </contour>
    <contour>
      <point x="385" y="681" type="curve" smooth="yes"/>
      <point x="383" y="667" type="line" smooth="yes"/>
      <point x="378" y="630"/>
      <point x="351" y="611"/>
      <point x="318" y="611" type="curve" smooth="yes"/>
      <point x="282" y="611"/>
      <point x="262" y="633"/>
      <point x="267" y="666" type="curve" smooth="yes"/>
      <point x="269" y="680" type="line" smooth="yes"/>
      <point x="274" y="716"/>
      <point x="301" y="736"/>
      <point x="334" y="736" type="curve" smooth="yes"/>
      <point x="370" y="736"/>
      <point x="389" y="712"/>
    </contour>
  </outline>
</glyph>
<glyph name="ogonek" format="1">
  <advance width="500"/>
  <unicode hex="02DB"/>
  <outline>
    <contour>
      <point x="195" y="-170" type="curve" smooth="yes"/>
      <point x="169" y="-170"/>
      <point x="158" y="-158"/>
      <point x="158" y="-138" type="curve" smooth="yes"/>
      <point x="158" y="-108"/>
      <point x="182" y="-76"/>
      <point x="296" y="0" type="curve"/>
      <point x="279" y="43" type="line"/>
      <point x="139" y="-45"/>
      <point x="98" y="-96"/>
      <point x="98" y="-150" type="curve" smooth="yes"/>
      <point x="98" y="-197"/>
      <point x="129" y="-223"/>
      <point x="185" y="-223" type="curve" smooth="yes"/>
      <point x="211" y="-223"/>
      <point x="237" y="-217"/>
      <point x="265" y="-206" type="curve"/>
      <point x="254" y="-157" type="line"/>
      <point x="233" y="-165"/>
      <point x="212" y="-170"/>
    </contour>
  </outline>
</glyph>
<glyph name="tilde" format="1">
  <advance width="500"/>
  <unicode hex="02DC"/>
  <outline>
    <contour>
      <point x="380" y="588" type="curve" smooth="yes"/>
      <point x="422" y="588"/>
      <point x="457" y="615"/>
      <point x="475" y="715" type="curve"/>
      <point x="424" y="715" type="line"/>
      <point x="413" y="655"/>
      <point x="397" y="640"/>
      <point x="381" y="640" type="curve" smooth="yes"/>
      <point x="341" y="640"/>
      <point x="343" y="730"/>
      <point x="266" y="730" type="curve" smooth="yes"/>
      <point x="225" y="730"/>
      <point x="190" y="703"/>
      <point x="171" y="603" type="curve"/>
      <point x="222" y="603" type="line"/>
      <point x="233" y="663"/>
      <point x="250" y="678"/>
      <point x="266" y="678" type="curve" smooth="yes"/>
      <point x="305" y="678"/>
      <point x="304" y="588"/>
    </contour>
  </outline>
</glyph>
<glyph name="hungarumlaut" format="1">
  <advance width="500"/>
  <unicode hex="02DD"/>
  <outline>
    <contour>
      <point x="272" y="579" type="line"/>
      <point x="385" y="716" type="line"/>
      <point x="332" y="745" type="line"/>
      <point x="217" y="579" type="line"/>
    </contour>
    <contour>
      <point x="402" y="579" type="line"/>
      <point x="515" y="716" type="line"/>
      <point x="462" y="745" type="line"/>
      <point x="347" y="579" type="line"/>
    </contour>
  </outline>
</glyph>
<glyph name="pi" format="1">
  <advance width="547"/>
  <unicode hex="03C0"/>
  <outline>
    <contour>
      <point x="478" y="50" type="line"/>
      <point x="457" y="50" type="line" smooth="yes"/>
      <point x="416" y="50"/>
      <point x="404" y="64"/>
      <point x="412" y="112" type="curve" smooth="yes"/>
      <point x="468" y="434" type="line"/>
      <point x="546" y="434" type="line"/>
      <point x="555" y="487" type="line"/>
      <point x="76" y="487" type="line"/>
      <point x="67" y="434" type="line"/>
      <point x="144" y="434" type="line"/>
      <point x="67" y="0" type="line"/>
      <point x="127" y="0" type="line"/>
      <point x="204" y="434" type="line"/>
      <point x="408" y="434" type="line"/>
      <point x="351" y="110" type="line" smooth="yes"/>
      <point x="338" y="34"/>
      <point x="371" y="-5"/>
      <point x="447" y="-5" type="curve" smooth="yes"/>
      <point x="468" y="-5" type="line"/>
    </contour>
  </outline>
</glyph>
<glyph name="uni1E9E" format="1">
  <advance width="598"/>
  <unicode hex="1E9E"/>
  <outline>
    <contour>
      <point x="536" y="151" type="curve" smooth="yes"/>
      <point x="539" y="169" type="line" smooth="yes"/>
      <point x="555" y="263"/>
      <point x="511" y="327"/>
      <point x="431" y="359" type="curve" smooth="yes"/>
      <point x="391" y="375" type="line"/>
      <point x="536" y="584" type="line"/>
      <point x="544" y="627" type="line"/>
      <point x="509" y="663"/>
      <point x="441" y="690"/>
      <point x="368" y="690" type="curve" smooth="yes"/>
      <point x="246" y="690"/>
      <point x="166" y="619"/>
      <point x="141" y="477" type="curve" smooth="yes"/>
      <point x="57" y="0" type="line"/>
      <point x="122" y="0" type="line"/>
      <point x="206" y="477" type="line" smooth="yes"/>
      <point x="225" y="582"/>
      <point x="281" y="631"/>
      <point x="365" y="631" type="curve" smooth="yes"/>
      <point x="407" y="631"/>
      <point x="447" y="619"/>
      <point x="476" y="601" type="curve"/>
      <point x="329" y="389" type="line"/>
      <point x="320" y="337" type="line"/>
      <point x="400" y="304" type="line" smooth="yes"/>
      <point x="458" y="280"/>
      <point x="484" y="243"/>
      <point x="472" y="174" type="curve" smooth="yes"/>
      <point x="469" y="156" type="line" smooth="yes"/>
      <point x="457" y="89"/>
      <point x="426" y="49"/>
      <point x="349" y="49" type="curve" smooth="yes"/>
      <point x="305" y="49"/>
      <point x="266" y="60"/>
      <point x="220" y="84" type="curve"/>
      <point x="194" y="28" type="line"/>
      <point x="244" y="3"/>
      <point x="299" y="-10"/>
      <point x="348" y="-10" type="curve" smooth="yes"/>
      <point x="458" y="-10"/>
      <point x="520" y="54"/>
    </contour>
  </outline>
</glyph>
<glyph name="endash" format="1">
  <advance width="584"/>
  <unicode hex="2013"/>
  <outline>
    <contour>
      <point x="64" y="269" type="line"/>
      <point x="528" y="269" type="line"/>
      <point x="538" y="322" type="line"/>
      <point x="74" y="322" type="line"/>
    </contour>
  </outline>
</glyph>
<glyph name="emdash" format="1">
  <advance width="784"/>
  <unicode hex="2014"/>
  <outline>
    <contour>
      <point x="64" y="269" type="line"/>
      <point x="728" y="269" type="line"/>
      <point x="738" y="322" type="line"/>
      <point x="74" y="322" type="line"/>
    </contour>
  </outline>
</glyph>
<glyph name="quoteleft" format="1">
  <advance width="180"/>
  <unicode hex="2018"/>
  <outline>
    <contour>
      <point x="79" y="458" type="line"/>
      <point x="141" y="458" type="line"/>
      <point x="157" y="550"/>
      <point x="176" y="596"/>
      <point x="221" y="668" type="curve"/>
      <point x="182" y="690" type="line"/>
      <point x="129" y="620"/>
      <point x="95" y="560"/>
      <point x="82" y="477" type="curve" smooth="yes"/>
    </contour>
  </outline>
</glyph>
<glyph name="quoteright" format="1">
  <advance width="180"/>
  <unicode hex="2019"/>
  <outline>
    <contour>
      <point x="216" y="680" type="line"/>
      <point x="154" y="680" type="line"/>
      <point x="138" y="588"/>
      <point x="119" y="542"/>
      <point x="74" y="470" type="curve"/>
      <point x="113" y="448" type="line"/>
      <point x="166" y="518"/>
      <point x="200" y="578"/>
      <point x="213" y="661" type="curve" smooth="yes"/>
    </contour>
  </outline>
</glyph>
<glyph name="quotesinglbase" format="1">
  <advance width="180"/>
  <unicode hex="201A"/>
  <outline>
    <contour>
      <point x="91" y="73" type="line"/>
      <point x="29" y="73" type="line"/>
      <point x="13" y="-19"/>
      <point x="-6" y="-65"/>
      <point x="-51" y="-137" type="curve"/>
      <point x="-12" y="-159" type="line"/>
      <point x="41" y="-89"/>
      <point x="75" y="-29"/>
      <point x="88" y="54" type="curve" smooth="yes"/>
    </contour>
  </outline>
</glyph>
<glyph name="quotedblleft" format="1">
  <advance width="330"/>
  <unicode hex="201C"/>
  <outline>
    <contour>
      <point x="229" y="458" type="line"/>
      <point x="291" y="458" type="line"/>
      <point x="307" y="550"/>
      <point x="326" y="596"/>
      <point x="371" y="668" type="curve"/>
      <point x="332" y="690" type="line"/>
      <point x="279" y="620"/>
      <point x="245" y="560"/>
      <point x="232" y="477" type="curve" smooth="yes"/>
    </contour>
    <contour>
      <point x="79" y="458" type="line"/>
      <point x="141" y="458" type="line"/>
      <point x="157" y="550"/>
      <point x="176" y="596"/>
      <point x="221" y="668" type="curve"/>
      <point x="182" y="690" type="line"/>
      <point x="129" y="620"/>
      <point x="95" y="560"/>
      <point x="82" y="477" type="curve" smooth="yes"/>
    </contour>
  </outline>
</glyph>
<glyph name="quotedblright" format="1">
  <advance width="330"/>
  <unicode hex="201D"/>
  <outline>
    <contour>
      <point x="216" y="680" type="line"/>
      <point x="154" y="680" type="line"/>
      <point x="138" y="588"/>
      <point x="119" y="542"/>
      <point x="74" y="470" type="curve"/>
      <point x="113" y="448" type="line"/>
      <point x="166" y="518"/>
      <point x="200" y="578"/>
      <point x="213" y="661" type="curve" smooth="yes"/>
    </contour>
    <contour>
      <point x="366" y="680" type="line"/>
      <point x="304" y="680" type="line"/>
      <point x="288" y="588"/>
      <point x="269" y="542"/>
      <point x="224" y="470" type="curve"/>
      <point x="263" y="448" type="line"/>
      <point x="316" y="518"/>
      <point x="350" y="578"/>
      <point x="363" y="661" type="curve" smooth="yes"/>
    </contour>
  </outline>
</glyph>
<glyph name="quotedblbase" format="1">
  <advance width="330"/>
  <unicode hex="201E"/>
  <outline>
    <contour>
      <point x="91" y="73" type="line"/>
      <point x="29" y="73" type="line"/>
      <point x="13" y="-19"/>
      <point x="-6" y="-65"/>
      <point x="-51" y="-137" type="curve"/>
      <point x="-12" y="-159" type="line"/>
      <point x="41" y="-89"/>
      <point x="75" y="-29"/>
      <point x="88" y="54" type="curve" smooth="yes"/>
    </contour>
    <contour>
      <point x="241" y="73" type="line"/>
      <point x="179" y="73" type="line"/>
      <point x="163" y="-19"/>
      <point x="144" y="-65"/>
      <point x="99" y="-137" type="curve"/>
      <point x="138" y="-159" type="line"/>
      <point x="191" y="-89"/>
      <point x="225" y="-29"/>
      <point x="238" y="54" type="curve" smooth="yes"/>
    </contour>
  </outline>
</glyph>
<glyph name="dagger" format="1">
  <advance width="430"/>
  <unicode hex="2020"/>
  <outline>
    <contour>
      <point x="249" y="251" type="line"/>
      <point x="252" y="269" type="line"/>
      <point x="256" y="289" type="line"/>
      <point x="274" y="453" type="line"/>
      <point x="431" y="443" type="line"/>
      <point x="451" y="443" type="line"/>
      <point x="462" y="507" type="line"/>
      <point x="442" y="507" type="line"/>
      <point x="282" y="497" type="line"/>
      <point x="321" y="660" type="line"/>
      <point x="325" y="680" type="line"/>
      <point x="259" y="680" type="line"/>
      <point x="255" y="660" type="line"/>
      <point x="237" y="497" type="line"/>
      <point x="80" y="507" type="line"/>
      <point x="60" y="507" type="line"/>
      <point x="49" y="443" type="line"/>
      <point x="69" y="443" type="line"/>
      <point x="229" y="453" type="line"/>
      <point x="190" y="289" type="line"/>
      <point x="186" y="269" type="line"/>
      <point x="183" y="251" type="line"/>
      <point x="125" y="-143" type="line"/>
      <point x="169" y="-143" type="line"/>
    </contour>
  </outline>
</glyph>
<glyph name="daggerdbl" format="1">
  <advance width="452"/>
  <unicode hex="2021"/>
  <outline>
    <contour>
      <point x="194" y="-123" type="line"/>
      <point x="213" y="40" type="line"/>
      <point x="369" y="30" type="line"/>
      <point x="389" y="30" type="line"/>
      <point x="401" y="94" type="line"/>
      <point x="381" y="94" type="line"/>
      <point x="220" y="84" type="line"/>
      <point x="260" y="248" type="line"/>
      <point x="267" y="289" type="line"/>
      <point x="285" y="453" type="line"/>
      <point x="442" y="443" type="line"/>
      <point x="462" y="443" type="line"/>
      <point x="473" y="507" type="line"/>
      <point x="453" y="507" type="line"/>
      <point x="293" y="497" type="line"/>
      <point x="332" y="660" type="line"/>
      <point x="336" y="680" type="line"/>
      <point x="270" y="680" type="line"/>
      <point x="266" y="660" type="line"/>
      <point x="248" y="497" type="line"/>
      <point x="91" y="507" type="line"/>
      <point x="71" y="507" type="line"/>
      <point x="60" y="443" type="line"/>
      <point x="80" y="443" type="line"/>
      <point x="240" y="453" type="line"/>
      <point x="201" y="289" type="line"/>
      <point x="194" y="248" type="line"/>
      <point x="175" y="84" type="line"/>
      <point x="19" y="94" type="line"/>
      <point x="-1" y="94" type="line"/>
      <point x="-13" y="30" type="line"/>
      <point x="7" y="30" type="line"/>
      <point x="167" y="40" type="line"/>
      <point x="128" y="-123" type="line"/>
      <point x="125" y="-143" type="line"/>
      <point x="191" y="-143" type="line"/>
    </contour>
  </outline>
</glyph>
